<svg xmlns="http://www.w3.org/2000/svg" xmlns:svg="http://www.w3.org/2000/svg" xmlns:xlink="http://www.w3.org/1999/xlink" id="svg4211" width="29.946" height="66.065" version="1.1"><defs id="defs4213"><linearGradient id="linearGradient19936" x1="274.818" x2="324.224" y1="284.71" y2="480.464" gradientTransform="matrix(0.196489,0,0,0.196489,405.6821,137.41089)" gradientUnits="userSpaceOnUse" xlink:href="#linearGradient2806"/><linearGradient id="linearGradient2806"><stop id="stop2808" offset="0" stop-color="#fff" stop-opacity="1"/><stop id="stop2810" offset="1" stop-color="#fff" stop-opacity="0"/></linearGradient><linearGradient id="linearGradient2806-3-7"><stop id="stop2808-8-1" offset="0" stop-color="#fff" stop-opacity="1"/><stop id="stop2810-4-9" offset="1" stop-color="#fff" stop-opacity="0"/></linearGradient><linearGradient id="linearGradient20738" x1="274.818" x2="324.224" y1="284.71" y2="480.464" gradientTransform="matrix(0.196489,0,0,0.196489,405.68875,368.25399)" gradientUnits="userSpaceOnUse" xlink:href="#linearGradient2806-6"/><linearGradient id="linearGradient2806-6"><stop id="stop2808-0" offset="0" stop-color="#fff" stop-opacity="1"/><stop id="stop2810-8" offset="1" stop-color="#fff" stop-opacity="0"/></linearGradient><linearGradient id="linearGradient15060" x1="274.818" x2="324.224" y1="284.71" y2="480.464" gradientTransform="matrix(0.196491,0,0,0.196491,405.56722,60.315417)" gradientUnits="userSpaceOnUse" xlink:href="#linearGradient2806-7"/><linearGradient id="linearGradient2806-7"><stop id="stop2808-3" offset="0" stop-color="#fff" stop-opacity="1"/><stop id="stop2810-5" offset="1" stop-color="#fff" stop-opacity="0"/></linearGradient><linearGradient id="linearGradient2382" x1="274.818" x2="324.224" y1="284.71" y2="480.464" gradientTransform="matrix(0.196491,0,0,0.196491,405.70665,290.84895)" gradientUnits="userSpaceOnUse" xlink:href="#linearGradient2806-0"/><linearGradient id="linearGradient2806-0"><stop id="stop2808-9" offset="0" stop-color="#fff" stop-opacity="1"/><stop id="stop2810-2" offset="1" stop-color="#fff" stop-opacity="0"/></linearGradient><linearGradient id="linearGradient2422" x1="274.818" x2="324.224" y1="284.71" y2="480.464" gradientTransform="matrix(0.196491,0,0,0.196491,568.70565,290.97137)" gradientUnits="userSpaceOnUse" xlink:href="#linearGradient2806-72"/><linearGradient id="linearGradient2806-72"><stop id="stop2808-7" offset="0" stop-color="#fff" stop-opacity="1"/><stop id="stop2810-59" offset="1" stop-color="#fff" stop-opacity="0"/></linearGradient><linearGradient id="linearGradient2407" x1="274.818" x2="324.224" y1="284.71" y2="480.464" gradientTransform="matrix(0.196489,0,0,0.196489,489.23925,290.73165)" gradientUnits="userSpaceOnUse" xlink:href="#linearGradient2806-5"/><linearGradient id="linearGradient2806-5"><stop id="stop2808-35" offset="0" stop-color="#fff" stop-opacity="1"/><stop id="stop2810-9" offset="1" stop-color="#fff" stop-opacity="0"/></linearGradient><linearGradient id="linearGradient4395" x1="274.818" x2="324.224" y1="284.71" y2="480.464" gradientTransform="matrix(0.122817,0,0,0.122817,678.85505,357.77095)" gradientUnits="userSpaceOnUse" xlink:href="#linearGradient2806-64"/><linearGradient id="linearGradient2806-64"><stop id="stop2808-04" offset="0" stop-color="#fff" stop-opacity="1"/><stop id="stop2810-6" offset="1" stop-color="#fff" stop-opacity="0"/></linearGradient><linearGradient id="linearGradient3655" x1="274.818" x2="324.224" y1="284.71" y2="480.464" gradientTransform="matrix(0.1924709,0,0,0.122817,522.48873,141.74892)" gradientUnits="userSpaceOnUse" xlink:href="#linearGradient2806-3"/><linearGradient id="linearGradient2806-3"><stop id="stop2808-79" offset="0" stop-color="#fff" stop-opacity="1"/><stop id="stop2810-27" offset="1" stop-color="#fff" stop-opacity="0"/></linearGradient><linearGradient id="linearGradient4711" x1="274.818" x2="324.224" y1="284.71" y2="480.464" gradientTransform="matrix(0.1924709,0,0,0.122817,522.48873,141.74892)" gradientUnits="userSpaceOnUse" xlink:href="#linearGradient2806-3"/><linearGradient id="linearGradient3016" x1="274.818" x2="324.224" y1="284.71" y2="480.464" gradientTransform="matrix(0.196489,0,0,0.196489,507.71411,331.2955)" gradientUnits="userSpaceOnUse" xlink:href="#linearGradient2806-5-1"/><linearGradient id="linearGradient2806-5-1"><stop id="stop2808-35-7" offset="0" stop-color="#fff" stop-opacity="1"/><stop id="stop2810-9-4" offset="1" stop-color="#fff" stop-opacity="0"/></linearGradient><linearGradient id="linearGradient3876" x1="274.818" x2="324.224" y1="284.71" y2="480.464" gradientTransform="matrix(0.196489,0,0,0.196489,507.71411,331.2955)" gradientUnits="userSpaceOnUse" xlink:href="#linearGradient2806-5-1"/><linearGradient id="linearGradient3902" x1="274.818" x2="324.224" y1="284.71" y2="480.464" gradientTransform="matrix(0.10903083,0,0,0.196489,413.98114,332.06421)" gradientUnits="userSpaceOnUse" xlink:href="#linearGradient2806-5-1"/><linearGradient id="linearGradient3907" x1="274.818" x2="324.224" y1="284.71" y2="480.464" gradientTransform="matrix(0,0.19656955,-0.11706894,0,548.7264,352.37188)" gradientUnits="userSpaceOnUse" xlink:href="#linearGradient2806-3"/></defs><metadata id="metadata4216"/><g id="layer1" transform="translate(-483.18356,-391.47983)"><path id="path3629" fill="teal" fill-opacity="1" stroke-dasharray="none" stroke-linecap="round" stroke-miterlimit="4" stroke-width="14.69" d="m -157.47986,322.08786 a 168.28732,99.746239 0 1 1 -336.57464,0 168.28732,99.746239 0 1 1 336.57464,0 z" transform="matrix(0,-0.17407022,-0.10366926,0,528.78955,367.71739)"/><path id="path3631" fill="#f8d600" fill-opacity="1" stroke="#000" stroke-dasharray="none" stroke-linecap="round" stroke-miterlimit="4" stroke-width="1.973" d="M 9.90625 1 C -0.61791 1 1.18079 20.6145 1.0625 31.6875 C 0.94423 42.7605 -0.61791 65.03125 9.90625 65.03125 C 20.43041 65.03125 28.96927 45.45199 28.96875 33.03125 C 28.96824 20.61225 20.43041 1 9.90625 1 z M 10.0625 17.28125 C 12.971637 17.115819 15.830107 19.349516 17.8125 23.65625 C 19.17765 26.62203 19.86048 29.82115 20 34.0625 C 20.0979 37.03735 20.10092 37.14889 20.4375 36.96875 C 20.97674 36.68016 21.69728 37.0818 22.1875 37.9375 C 22.55295 38.57541 22.625 38.91146 22.625 40.28125 C 22.625 42.47266 22.37238 42.92003 19.28125 46.125 C 17.08983 48.39713 16.65902 48.78268 16.1875 48.78125 C 15.82071 48.78025 15.49019 48.61057 15.1875 48.28125 C 14.53169 47.56774 14.45051 47.22341 13.34375 41.625 C 12.24047 36.04416 12.16969 35.14653 12.90625 33.625 C 13.5302 32.33609 14.73546 32.15153 15.34375 33.25 C 16.04714 34.52019 16.12712 34.49577 16.03125 32.96875 C 15.80829 29.41728 14.05331 25.87596 11.96875 24.8125 C 11.04597 24.34173 9.75813 24.3646 8.75 24.875 L 7.9375 25.3125 L 7.65625 23.8125 C 7.28249 21.87374 6.6564 20.46844 5.9375 20.03125 L 5.375 19.71875 L 6.15625 19.03125 C 7.4182938 17.932131 8.7401649 17.356446 10.0625 17.28125 z" transform="translate(483.18356,391.47983)"/><path id="path3633" fill="url(#linearGradient3907)" fill-opacity="1" stroke-dasharray="none" stroke-linecap="round" stroke-miterlimit="4" stroke-width="2" d="m 495.43262,454.34324 c -4.12553,0.0657 -3.74654,-59.47582 0,-59.48366 8.90345,-0.0187 16.12936,13.32439 16.12936,29.74175 0,16.41752 -7.22791,29.6001 -16.12936,29.74191 z"/></g></svg>