<svg xmlns="http://www.w3.org/2000/svg" xmlns:svg="http://www.w3.org/2000/svg" xmlns:xlink="http://www.w3.org/1999/xlink" id="svg4211" width="29.946" height="66.065" version="1.1"><defs id="defs4213"><linearGradient id="linearGradient19936" x1="274.818" x2="324.224" y1="284.71" y2="480.464" gradientTransform="matrix(0.196489,0,0,0.196489,405.6821,137.41089)" gradientUnits="userSpaceOnUse" xlink:href="#linearGradient2806"/><linearGradient id="linearGradient2806"><stop id="stop2808" offset="0" stop-color="#fff" stop-opacity="1"/><stop id="stop2810" offset="1" stop-color="#fff" stop-opacity="0"/></linearGradient><linearGradient id="linearGradient2806-3-7"><stop id="stop2808-8-1" offset="0" stop-color="#fff" stop-opacity="1"/><stop id="stop2810-4-9" offset="1" stop-color="#fff" stop-opacity="0"/></linearGradient><linearGradient id="linearGradient20738" x1="274.818" x2="324.224" y1="284.71" y2="480.464" gradientTransform="matrix(0.196489,0,0,0.196489,405.68875,368.25399)" gradientUnits="userSpaceOnUse" xlink:href="#linearGradient2806-6"/><linearGradient id="linearGradient2806-6"><stop id="stop2808-0" offset="0" stop-color="#fff" stop-opacity="1"/><stop id="stop2810-8" offset="1" stop-color="#fff" stop-opacity="0"/></linearGradient><linearGradient id="linearGradient15060" x1="274.818" x2="324.224" y1="284.71" y2="480.464" gradientTransform="matrix(0.196491,0,0,0.196491,405.56722,60.315417)" gradientUnits="userSpaceOnUse" xlink:href="#linearGradient2806-7"/><linearGradient id="linearGradient2806-7"><stop id="stop2808-3" offset="0" stop-color="#fff" stop-opacity="1"/><stop id="stop2810-5" offset="1" stop-color="#fff" stop-opacity="0"/></linearGradient><linearGradient id="linearGradient2382" x1="274.818" x2="324.224" y1="284.71" y2="480.464" gradientTransform="matrix(0.196491,0,0,0.196491,405.70665,290.84895)" gradientUnits="userSpaceOnUse" xlink:href="#linearGradient2806-0"/><linearGradient id="linearGradient2806-0"><stop id="stop2808-9" offset="0" stop-color="#fff" stop-opacity="1"/><stop id="stop2810-2" offset="1" stop-color="#fff" stop-opacity="0"/></linearGradient><linearGradient id="linearGradient2422" x1="274.818" x2="324.224" y1="284.71" y2="480.464" gradientTransform="matrix(0.196491,0,0,0.196491,568.70565,290.97137)" gradientUnits="userSpaceOnUse" xlink:href="#linearGradient2806-72"/><linearGradient id="linearGradient2806-72"><stop id="stop2808-7" offset="0" stop-color="#fff" stop-opacity="1"/><stop id="stop2810-59" offset="1" stop-color="#fff" stop-opacity="0"/></linearGradient><linearGradient id="linearGradient2407" x1="274.818" x2="324.224" y1="284.71" y2="480.464" gradientTransform="matrix(0.196489,0,0,0.196489,489.23925,290.73165)" gradientUnits="userSpaceOnUse" xlink:href="#linearGradient2806-5"/><linearGradient id="linearGradient2806-5"><stop id="stop2808-35" offset="0" stop-color="#fff" stop-opacity="1"/><stop id="stop2810-9" offset="1" stop-color="#fff" stop-opacity="0"/></linearGradient><linearGradient id="linearGradient4395" x1="274.818" x2="324.224" y1="284.71" y2="480.464" gradientTransform="matrix(0.122817,0,0,0.122817,678.85505,357.77095)" gradientUnits="userSpaceOnUse" xlink:href="#linearGradient2806-64"/><linearGradient id="linearGradient2806-64"><stop id="stop2808-04" offset="0" stop-color="#fff" stop-opacity="1"/><stop id="stop2810-6" offset="1" stop-color="#fff" stop-opacity="0"/></linearGradient><linearGradient id="linearGradient3655" x1="274.818" x2="324.224" y1="284.71" y2="480.464" gradientTransform="matrix(0.1924709,0,0,0.122817,522.48873,141.74892)" gradientUnits="userSpaceOnUse" xlink:href="#linearGradient2806-3"/><linearGradient id="linearGradient2806-3"><stop id="stop2808-79" offset="0" stop-color="#fff" stop-opacity="1"/><stop id="stop2810-27" offset="1" stop-color="#fff" stop-opacity="0"/></linearGradient><linearGradient id="linearGradient4711" x1="274.818" x2="324.224" y1="284.71" y2="480.464" gradientTransform="matrix(0.1924709,0,0,0.122817,522.48873,141.74892)" gradientUnits="userSpaceOnUse" xlink:href="#linearGradient2806-3"/><linearGradient id="linearGradient3016" x1="274.818" x2="324.224" y1="284.71" y2="480.464" gradientTransform="matrix(0.196489,0,0,0.196489,507.71411,331.2955)" gradientUnits="userSpaceOnUse" xlink:href="#linearGradient2806-5-1"/><linearGradient id="linearGradient2806-5-1"><stop id="stop2808-35-7" offset="0" stop-color="#fff" stop-opacity="1"/><stop id="stop2810-9-4" offset="1" stop-color="#fff" stop-opacity="0"/></linearGradient><linearGradient id="linearGradient3876" x1="274.818" x2="324.224" y1="284.71" y2="480.464" gradientTransform="matrix(0.196489,0,0,0.196489,507.71411,331.2955)" gradientUnits="userSpaceOnUse" xlink:href="#linearGradient2806-5-1"/><linearGradient id="linearGradient3902" x1="274.818" x2="324.224" y1="284.71" y2="480.464" gradientTransform="matrix(0.10903083,0,0,0.196489,413.98114,332.06421)" gradientUnits="userSpaceOnUse" xlink:href="#linearGradient2806-5-1"/><linearGradient id="linearGradient3907" x1="274.818" x2="324.224" y1="284.71" y2="480.464" gradientTransform="matrix(0,0.19656955,0.11706894,0,447.52394,352.37188)" gradientUnits="userSpaceOnUse" xlink:href="#linearGradient2806-3"/></defs><metadata id="metadata4216"/><g id="layer1" transform="translate(-483.18356,-391.47983)"><path id="path3629" fill="teal" fill-opacity="1" stroke-dasharray="none" stroke-linecap="round" stroke-miterlimit="4" stroke-width="14.69" d="m -157.47986,322.08786 a 168.28732,99.746239 0 1 1 -336.57464,0 168.28732,99.746239 0 1 1 336.57464,0 z" transform="matrix(0,-0.17407022,0.10366926,0,467.46079,367.71739)"/><path id="path3631" fill="#f8d600" fill-opacity="1" stroke="#000" stroke-dasharray="none" stroke-linecap="round" stroke-miterlimit="4" stroke-width="1.973" d="m 503.16053,392.47983 c 10.52416,0 8.72546,19.6145 8.84375,30.6875 0.11827,11.073 1.68041,33.34375 -8.84375,33.34375 -10.52416,0 -19.06302,-19.57926 -19.0625,-32 5.1e-4,-12.419 8.53834,-32.03125 19.0625,-32.03125 z m -0.15625,16.28125 c -2.90914,-0.16543 -5.76761,2.06827 -7.75,6.375 -1.36515,2.96578 -2.04798,6.1649 -2.1875,10.40625 -0.0979,2.97485 -0.10092,3.08639 -0.4375,2.90625 -0.53924,-0.28859 -1.25978,0.11305 -1.75,0.96875 -0.36545,0.63791 -0.4375,0.97396 -0.4375,2.34375 0,2.19141 0.25262,2.63878 3.34375,5.84375 2.19142,2.27213 2.62223,2.65768 3.09375,2.65625 0.36679,-10e-4 0.69731,-0.17068 1,-0.5 0.65581,-0.71351 0.73699,-1.05784 1.84375,-6.65625 1.10328,-5.58084 1.17406,-6.47847 0.4375,-8 -0.62395,-1.28891 -1.82921,-1.47347 -2.4375,-0.375 -0.70339,1.27019 -0.78337,1.24577 -0.6875,-0.28125 0.22296,-3.55147 1.97794,-7.09279 4.0625,-8.15625 0.92278,-0.47077 2.21062,-0.4479 3.21875,0.0625 l 0.8125,0.4375 0.28125,-1.5 c 0.37376,-1.93876 0.99985,-3.34406 1.71875,-3.78125 l 0.5625,-0.3125 -0.78125,-0.6875 c -1.26204,-1.09912 -2.58392,-1.6748 -3.90625,-1.75 z"/><path id="path3633" fill="url(#linearGradient3907)" fill-opacity="1" stroke-dasharray="none" stroke-linecap="round" stroke-miterlimit="4" stroke-width="2" d="m 500.81772,454.34324 c 4.12553,0.0657 3.74654,-59.47582 0,-59.48366 -8.90345,-0.0187 -16.12936,13.32439 -16.12936,29.74175 0,16.41752 7.22791,29.6001 16.12936,29.74191 z"/></g></svg>