<svg xmlns="http://www.w3.org/2000/svg" xmlns:svg="http://www.w3.org/2000/svg" id="svg2" width="64" height="64" version="1.0"><metadata id="metadata7"/><g id="layer1" transform="translate(-321.53125,-636.24027)"><rect id="rect2989" width="61.071" height="60" x="1.071" y="1.143" fill="#fff" fill-opacity="1" fill-rule="evenodd" stroke="none" rx="9.645" ry="0" transform="translate(321.53125,636.24027)"/><g id="g3336" transform="matrix(1.072813,0,0,1.0922667,-23.411652,-64.608834)"><path id="rect2478" fill="#2aaf18" fill-opacity="1" fill-rule="evenodd" stroke="none" stroke-dashoffset="0" stroke-linecap="round" stroke-linejoin="round" stroke-miterlimit="4" stroke-opacity="1" stroke-width=".889" marker-end="none" marker-mid="none" marker-start="none" d="M 325.71558,645.00886 L 343.99681,645.00886 L 344.18187,673.01823 L 359.71046,673.14296 L 359.94936,680.07638 L 337.46144,679.95692 L 337.72828,651.82809 L 333.00734,651.8281 L 333.00207,665.39119 L 325.71558,665.50538 L 325.71558,645.00886 z" display="inline" overflow="visible" visibility="visible" style="marker:none"/><path id="rect2481" fill="#000" fill-opacity="1" fill-rule="evenodd" stroke="none" stroke-dashoffset="0" stroke-linecap="round" stroke-linejoin="round" stroke-miterlimit="4" stroke-opacity="1" stroke-width=".9" marker-end="none" marker-mid="none" marker-start="none" d="M 322.125,641.6465 C 321.80221,641.64652 321.53124,641.91743 321.53125,642.24025 L 321.53125,699.6465 C 321.53125,699.96931 321.80222,700.24023 322.125,700.24025 L 380.59375,700.24025 C 380.91654,700.24027 381.1875,699.96931 381.1875,699.6465 L 381.1875,642.24025 C 381.1875,641.91748 380.91655,641.64651 380.59375,641.6465 L 322.125,641.6465 z M 349.375,644.209 L 365.75,644.30275 L 365.78125,647.81168 L 368.84822,647.8206 L 368.74554,644.32061 L 377,644.5215 C 377.32279,644.5215 377.79463,644.7032 377.79464,645.02596 L 377.73661,667.40543 L 368.84375,667.17775 L 369.04464,651.69114 L 365.87054,651.65989 L 366,672.0215 L 377.71875,672.11525 L 377.96875,694.834 C 377.96875,695.15684 377.69779,695.42778 377.375,695.42775 L 359.96875,695.42775 C 359.64596,695.42776 359.37499,695.15682 359.375,694.834 L 359.375,686.0215 C 359.37501,685.69872 359.64595,685.42778 359.96875,685.42775 L 371.03125,685.42775 L 370.96875,681.834 L 354.625,681.55275 L 354.375,695.55275 C 354.375,695.87558 354.13528,696.14653 353.8125,696.1465 L 326.03125,696.1465 C 325.70846,696.14649 325.46874,695.87558 325.46875,695.55275 L 325.46875,686.0215 C 325.46876,685.69872 325.6147,685.86528 325.9375,685.86525 L 340.375,685.92775 L 340.46875,681.5215 L 325.5,681.49025 C 325.1772,681.49024 324.90624,681.25057 324.90625,680.92775 L 324.90625,672.61525 C 324.90626,672.29248 325.17719,672.02153 325.5,672.0215 L 336.71875,672.0215 L 336.71875,653.11525 L 333.65625,653.11525 L 333.65625,666.2715 C 333.65625,666.59434 333.41653,666.86528 333.09375,666.86525 L 324.78125,666.86525 C 324.45846,666.86525 324.21874,666.59432 324.21875,666.2715 L 324.21875,644.2715 L 345.03125,644.24025 L 345.09375,672.0215 L 359.90625,672.0215 L 359.90625,667.5215 L 349.71875,667.5215 L 349.375,644.209 z" display="inline" overflow="visible" visibility="visible" style="marker:none"/></g></g></svg>