<svg xmlns="http://www.w3.org/2000/svg" xmlns:svg="http://www.w3.org/2000/svg" xmlns:xlink="http://www.w3.org/1999/xlink" id="svg641" width="370.28" height="370.28" version="1.0" xml:space="preserve"><metadata id="metadata30"/><defs id="defs643"><linearGradient id="linearGradient679"><stop id="stop680" offset="0" stop-color="#ff8d00" stop-opacity="1"/><stop id="stop681" offset="1" stop-color="#ffca00" stop-opacity="1"/></linearGradient><linearGradient id="linearGradient653"><stop id="stop654" offset="0" stop-color="#000" stop-opacity="1"/><stop id="stop655" offset="1" stop-color="#fff" stop-opacity="1"/></linearGradient><radialGradient id="radialGradient656" cx="358.127" cy="445.376" r="199.79" fx="358.127" fy="445.376" gradientTransform="scale(1.0389249,0.9625335)" gradientUnits="userSpaceOnUse" xlink:href="#linearGradient653"/><radialGradient id="radialGradient657" cx="354.944" cy="423.695" r="440.812" fx="354.944" fy="423.695" gradientTransform="matrix(0.9847605,0,0,1.0154754,-168.64595,-159.82929)" gradientUnits="userSpaceOnUse" xlink:href="#linearGradient653"/><linearGradient id="linearGradient658" x1="298.209" x2="72.435" y1="466.444" y2="323.852" gradientTransform="matrix(0.9865045,0,0,1.0136802,-168.64595,-159.82929)" gradientUnits="userSpaceOnUse" xlink:href="#linearGradient653"/><linearGradient id="linearGradient659" x1="406.589" x2="657.748" y1="478.554" y2="350.793" gradientTransform="matrix(1.0006179,0,0,0.9993824,-168.64595,-159.82929)" gradientUnits="userSpaceOnUse" xlink:href="#linearGradient653"/><linearGradient id="linearGradient678" x1="248.15" x2="313.136" y1="429.631" y2="480.324" gradientTransform="matrix(0.9285675,0,0,1.0769276,-168.64595,-159.82929)" gradientUnits="userSpaceOnUse" xlink:href="#linearGradient679"/><linearGradient id="linearGradient682" x1="458.003" x2="530.746" y1="433.346" y2="461.677" gradientTransform="matrix(0.914169,0,0,1.0938897,-168.64595,-159.82929)" gradientUnits="userSpaceOnUse" xlink:href="#linearGradient679"/><linearGradient id="linearGradient3021" x1="458.003" x2="530.746" y1="433.346" y2="461.677" gradientTransform="matrix(0.914169,0,0,1.0938897,-168.64595,-159.82929)" gradientUnits="userSpaceOnUse" xlink:href="#linearGradient679"/><linearGradient id="linearGradient3023" x1="248.15" x2="313.136" y1="429.631" y2="480.324" gradientTransform="matrix(0.9285675,0,0,1.0769276,-168.64595,-159.82929)" gradientUnits="userSpaceOnUse" xlink:href="#linearGradient679"/><radialGradient id="radialGradient3025" cx="354.944" cy="423.695" r="440.812" fx="354.944" fy="423.695" gradientTransform="matrix(0.9847605,0,0,1.0154754,-168.64595,-159.82929)" gradientUnits="userSpaceOnUse" xlink:href="#linearGradient653"/><linearGradient id="linearGradient3027" x1="298.209" x2="72.435" y1="466.444" y2="323.852" gradientTransform="matrix(0.9865045,0,0,1.0136802,-168.64595,-159.82929)" gradientUnits="userSpaceOnUse" xlink:href="#linearGradient653"/><linearGradient id="linearGradient3029" x1="406.589" x2="657.748" y1="478.554" y2="350.793" gradientTransform="matrix(1.0006179,0,0,0.9993824,-168.64595,-159.82929)" gradientUnits="userSpaceOnUse" xlink:href="#linearGradient653"/><radialGradient id="radialGradient3031" cx="358.127" cy="445.376" r="199.79" fx="358.127" fy="445.376" gradientTransform="scale(1.0389249,0.9625335)" gradientUnits="userSpaceOnUse" xlink:href="#linearGradient653"/></defs><g id="g3006" transform="translate(4.9141157e-5,-48.137747)"><path id="path670" fill="url(#linearGradient3021)" fill-opacity="1" fill-rule="evenodd" stroke-width="1" d="m 237.75125,323.34281 c 1.5397,12.6564 -12.4899,38.8051 5.4193,46.7201 2.7818,1.4303 7.9953,-4.6446 10.9559,-5.4784 7.0057,-1.9578 21.9791,1.9296 25.2094,1.3271 3.0789,-0.6771 10.6946,-8.7551 17.2618,-10.3166 6.5767,-1.3467 11.1817,1.2221 13.3188,-1.074 11.5582,-15.6379 -13.9375,-31.3125 -18.965,-43.3094 -10.1646,-23.6292 -16.4322,-39.4676 -39.3139,-34.4354 -22.8817,5.0321 -16.5144,20.8659 -13.8863,46.5666 z" font-size="12"/><path id="path668" fill="url(#linearGradient3023)" fill-opacity="1" fill-rule="evenodd" stroke-width="1" d="m 132.76085,320.83721 c -1.5887,12.6564 12.8864,38.8051 -5.5914,46.7201 -2.8701,1.4303 -8.2491,-4.6446 -11.3038,-5.4784 -7.2281,-1.9578 -22.676797,1.9296 -26.009697,1.3271 -3.1767,-0.6771 -11.0341,-8.7551 -17.8098,-10.3166 -6.7855,-1.3467 -11.5367,1.2221 -13.7418,-1.074 -11.925,-15.6379 14.3801,-31.3125 19.5673,-43.3094 10.4872,-23.6292 16.953798,-39.4676 40.561997,-34.4354 23.6081,5.0321 17.0386,20.8659 14.3272,46.5666 z" font-size="12"/><path id="path645" fill="url(#radialGradient3025)" fill-opacity="1" fill-rule="evenodd" stroke-width="1" d="m 298.11595,234.12551 c 4.0337,52.8888 -40.1444,104.4419 -114.1848,104.4419 -74.0403,0 -126.976997,-56.4913 -119.887897,-107.7826 10.4153,-77.8115 104.905697,-109.4446 119.887897,-134.509296 16.1634,24.020396 111.0093,66.781996 114.1848,137.849996 z" font-size="12"/><path id="path648" fill="url(#linearGradient3027)" fill-rule="evenodd" stroke-width="1" d="m 88.605453,278.94531 c -33.6758,6.2281 -85.5470993,54.505 -88.4528993,39.1208 -2.9056,-15.3838 36.2515993,-84.5552 69.9043993,-90.9115 10.0747,8.7571 28.340698,49.9796 18.5485,51.7907 z" font-size="12"/><path id="path649" fill="url(#linearGradient3029)" fill-rule="evenodd" stroke-width="1" d="m 279.09165,282.09401 c 33.8153,5.3337 88.413,53.8659 91.067,38.4363 2.6541,-15.4292 -38.7917,-84.5757 -72.5438,-90.3815 -13.0896,22.3606 -26.3145,50.7163 -18.5232,51.9452 z" font-size="12"/><path id="path652" fill="#fff" fill-opacity="1" fill-rule="evenodd" stroke-width="1" d="m 267.20345,298.99821 c 4.4847,7.6912 -56.7617,44.2936 -79.1379,33.6632 -24.7387,10.6305 -87.3681,-21.4803 -82.6815,-30.1197 7.1251,-13.1348 29.5949,-13.5834 85.0438,-13.5834 55.4488,0 70.6298,-0.4996 76.7756,10.0399 z" font-size="12"/><g id="g671" transform="translate(-169.82713,-157.97363)"><path id="path650" fill="url(#radialGradient3031)" fill-opacity="1" fill-rule="evenodd" stroke="none" d="m 452.38567,427.52661 c 0,41.09735 -35.96011,74.41333 -80.31914,74.41333 -44.35904,0 -80.31914,-33.31598 -80.31914,-74.41333 0,-41.09735 35.9601,-74.41333 80.31914,-74.41333 44.35903,0 80.31914,33.31598 80.31914,74.41333 z" transform="matrix(1.132352,0,0,1.174604,-68.14272,-108.9013)"/><path id="path661" fill="#ffaf00" fill-opacity="1" fill-rule="evenodd" stroke-width="1" d="m 398.0521,469.4579 c 0,11.416 -23.6388,40.7502 -43.703,40.7502 -17.7019,0 -43.7031,-28.153 -43.7031,-39.569 0,-11.4159 20.0954,5.3152 44.8843,5.3152 24.7888,0 42.5218,-17.9123 42.5218,-6.4964 z" font-size="12"/><path id="path663" fill="#fff" fill-opacity="1" fill-rule="evenodd" stroke-width="1" d="m 350.2447,465.2768 c -1.3409,9.515 -6.9532,8.3486 -12.3306,7.6233 -7.4926,-1.4282 -14.8361,-3.8675 -14.8361,-7.6233 0,-10.4375 7.3342,-21.8219 14.8361,-21.8219 14.6012,0.8351 14.2184,10.9716 12.3306,21.8219 z" font-size="12"/><path id="path664" fill="#fff" fill-opacity="1" fill-rule="evenodd" stroke-width="1" d="m 356.904,466.1119 c 0.9646,9.5605 6.9532,8.3486 12.3306,7.6233 7.4926,-1.4282 14.8361,-3.8675 14.8361,-7.6233 0,-10.4375 -7.3342,-21.8219 -14.8361,-21.8219 -14.6013,0.4175 -13.8008,11.3891 -12.3306,21.8219 z" font-size="12"/><path id="path665" fill="#141414" fill-opacity="1" fill-rule="evenodd" stroke="none" d="m 349.11731,467.92477 c 0,3.1136 -4.11329,5.63767 -9.18729,5.63767 -5.07399,0 -9.18728,-2.52407 -9.18728,-5.63767 0,-3.11359 4.11329,-5.63766 9.18728,-5.63766 5.074,0 9.18729,2.52407 9.18729,5.63766 z"/><path id="path666" fill="#141415" fill-opacity="1" fill-rule="evenodd" stroke="none" d="m 349.11731,467.92477 c 0,3.1136 -4.11329,5.63767 -9.18729,5.63767 -5.07399,0 -9.18728,-2.52407 -9.18728,-5.63767 0,-3.11359 4.11329,-5.63766 9.18728,-5.63766 5.074,0 9.18729,2.52407 9.18729,5.63766 z" transform="translate(27.14432,-3.051758e-5)"/></g></g></svg>