<svg xmlns="http://www.w3.org/2000/svg" xmlns:svg="http://www.w3.org/2000/svg" id="svg3664" width="16.455" height="36.375" version="1.1"><metadata id="metadata3669"/><g id="layer1" transform="translate(-237.8955,-439.53183)"><path id="LEFT_GREEN_ON" fill="#0f0" fill-opacity="1" stroke="#000" stroke-dasharray="none" stroke-dashoffset="0" stroke-linecap="round" stroke-linejoin="round" stroke-miterlimit="4" stroke-opacity="1" stroke-width=".895" d="m -142.5,174.5 a 2.875,5.75 0 1 1 -5.75,0 2.875,5.75 0 1 1 5.75,0 z" display="inline" transform="matrix(1.9718404,0,0,1.0841955,530.87483,278.01675)"/><path id="LEFT_RED_OFF" fill="#620909" fill-opacity="1" stroke="#000" stroke-dasharray="none" stroke-dashoffset="0" stroke-linecap="round" stroke-linejoin="round" stroke-miterlimit="4" stroke-opacity="1" stroke-width=".895" d="m -142.5,174.5 a 2.875,5.75 0 1 1 -5.75,0 2.875,5.75 0 1 1 5.75,0 z" display="inline" transform="matrix(1.8835714,0,0,1.0866449,518.44495,261.46738)"/><path id="LEFT_LIGHT_BASE" fill="#333" fill-opacity="1" stroke="#000" stroke-dasharray="none" stroke-dashoffset="0" stroke-linecap="round" stroke-linejoin="round" stroke-miterlimit="4" stroke-opacity="1" stroke-width="1" d="m 240.5067,440.03183 0,2.75 5,0 0,32.625 8.34375,0 0,-32.625 0,-0.5 0,-2.25 -13.34375,0 z" display="inline"/></g></svg>