<svg xmlns="http://www.w3.org/2000/svg" xmlns:svg="http://www.w3.org/2000/svg" id="svg3231" width="104.871" height="104.871" version="1.1"><metadata id="metadata3236"/><g id="layer1" transform="translate(73.207739,-531.62445)"><g id="g4545" display="inline" transform="matrix(1.1290323,0,0,1.1290323,-1280.7723,309.29617)"><path id="path4516" fill="#fc0" fill-opacity="1" stroke="#000" stroke-dasharray="none" stroke-dashoffset="0" stroke-linecap="round" stroke-linejoin="round" stroke-miterlimit="4" stroke-opacity="1" stroke-width=".886" d="m 1182,291.36218 c 0,25.4051 -20.5949,46 -46,46 -25.4051,0 -46,-20.5949 -46,-46 0,-25.4051 20.5949,-46 46,-46 25.4051,0 46,20.5949 46,46 z" transform="translate(-20,-48)"/><path id="path4520" fill="#ff0" fill-opacity="1" stroke="none" d="m 1115.2188,201.375 c -5.1832,-0.033 -4.1145,0.50888 0.1646,1.63682 22.8406,7.84712 38.1744,33.35836 32.6478,57.23818 -1.0032,5.7503 -4.0862,12.4024 -6.5,16.625 17.8457,-13.35978 22.136,-41.33257 7.9688,-58.84375 -7.9573,-10.49073 -21.0094,-17.0744 -34.2812,-16.65625 l 0,0 z m -4.4376,0.3125 c 0.043,-0.0798 -0.1803,-0.0148 0,0 z"/><path id="path4536" fill="#ff0" fill-opacity="1" stroke="none" d="m 1076.375,229.40625 c -7.4067,20.26668 3.1077,44.93797 23.4062,52.71875 4.9304,2.03418 10.3223,3.13407 15.6876,3.1875 -22.984,-4.80712 -40.9914,-27.13009 -39.4376,-50.84375 -0.2433,-0.62311 0.823,-6.70924 0.3438,-5.0625 z"/></g></g></svg>