<svg xmlns="http://www.w3.org/2000/svg" xmlns:svg="http://www.w3.org/2000/svg" xmlns:xlink="http://www.w3.org/1999/xlink" id="svg2987" width="110" height="80" version="1.1"><metadata id="metadata2993"/><defs id="defs2991"><linearGradient id="linearGradient1078" x1="213.828" x2="214.592" y1="183.484" y2="463.473" gradientTransform="matrix(1.5539,0,0,0.643542,-1.017928,0)" gradientUnits="userSpaceOnUse" xlink:href="#linearGradient1702"/><linearGradient id="linearGradient1077" x1="522.942" x2="522.942" y1="469.499" y2="505.084" gradientUnits="userSpaceOnUse" xlink:href="#linearGradient1697"/><linearGradient id="linearGradient1076" x1="520.572" x2="520.572" y1="506.287" y2="466.279" gradientUnits="userSpaceOnUse" xlink:href="#linearGradient1697"/><radialGradient id="radialGradient1706" cx="522.895" cy="481.866" r="15.301" fx="522.899" fy="473.033" gradientUnits="userSpaceOnUse" xlink:href="#linearGradient1702"/><linearGradient id="linearGradient1697"><stop id="stop1698" offset="0" stop-color="#db210e" stop-opacity="1"/><stop id="stop1699" offset="1" stop-color="#761107" stop-opacity="1"/></linearGradient><linearGradient id="linearGradient1702"><stop id="stop1703" offset="0" stop-color="#fff" stop-opacity=".691"/><stop id="stop1704" offset="1" stop-color="#fff" stop-opacity="0"/></linearGradient><linearGradient id="linearGradient4996" x1="57.142" x2="57.739" y1="74.461" y2="-4.734" gradientTransform="matrix(0.96292473,0,0,0.98546944,5.8295573,5.4967685)" gradientUnits="userSpaceOnUse" xlink:href="#linearGradient1697"/><linearGradient id="linearGradient5004" x1="-5.442" x2="107.57" y1="35.012" y2="35.012" gradientTransform="matrix(0.96292473,0,0,0.98546944,5.8295573,5.4967685)" gradientUnits="userSpaceOnUse" xlink:href="#linearGradient1697"/><linearGradient id="linearGradient1078-9" x1="213.828" x2="214.592" y1="183.484" y2="463.473" gradientTransform="matrix(1.5539,0,0,0.643542,-1.017928,0)" gradientUnits="userSpaceOnUse" xlink:href="#linearGradient1702-3"/><linearGradient id="linearGradient1702-3"><stop id="stop1703-1" offset="0" stop-color="#fff" stop-opacity=".691"/><stop id="stop1704-8" offset="1" stop-color="#fff" stop-opacity="0"/></linearGradient><linearGradient id="linearGradient5055" x1="213.828" x2="214.592" y1="232.687" y2="463.473" gradientTransform="matrix(0.26630633,0,0,0.11287198,-0.79522922,-17.195664)" gradientUnits="userSpaceOnUse" xlink:href="#linearGradient1702-3"/></defs><rect id="rect4922" width="108.052" height="78.052" x=".974" y=".974" fill="url(#linearGradient4996)" fill-opacity="1" stroke="url(#linearGradient5004)" stroke-dasharray="none" stroke-dashoffset="0" stroke-linecap="round" stroke-linejoin="round" stroke-miterlimit="4" stroke-opacity="1" stroke-width="1.948" ry="7.869"/><g id="layer1" transform="matrix(1.3519636,0,0,1.3519636,-13.914234,5.1614522)"><g id="g11309" fill="#fff" fill-opacity="1" stroke="none" transform="matrix(0.13111,0,0,0.175243,55.38642,4.603455)"><path id="path11311" fill-rule="evenodd" stroke="#000" stroke-linecap="round" stroke-linejoin="round" d="m -177.46417,83.851927 c -55.41083,-20.22815 -59.92867,111.800913 -44.31337,114.725873 25.80298,17.41866 78.00661,14.56136 92.07317,1.46973 9.23475,-7.56016 21.43273,-128.269643 -47.7598,-116.195603 z"/></g><path id="path11315" fill="#111414" fill-opacity="1" fill-rule="nonzero" stroke="#000" stroke-linecap="round" stroke-linejoin="round" stroke-miterlimit="4" stroke-opacity="1" stroke-width=".934" d="m 32.289088,3.2048427 c -9.780436,0.54179 -10.767644,30.8816113 -8.742909,35.5344703 5.933703,5.248634 14.802346,3.905172 18.03712,-0.03963 C 44.07454,33.721006 44.815653,2.0555332 32.289088,3.2048427 z m 0.352163,0.8422393 c -9.780435,0.54179 -10.767644,30.881611 -8.742908,35.534476 5.933702,5.248628 14.802345,3.905168 18.03712,-0.03963 2.49124,-4.97868 3.232353,-36.6441525 -9.294212,-35.494843 z"/><path id="path2186" fill="#fff" fill-opacity="1" fill-rule="evenodd" stroke="none" d="M 32.799883,14.710462 C 31.353745,8.150528 40.622351,5.1909553 37.02272,15.704809"/><path id="path5435" fill="#fff" fill-opacity="1" fill-rule="evenodd" stroke="none" d="M 29.220703,15.860808 C 25.981662,6.8783002 32.56275,6.6726277 33.3688,15.137892"/><path id="path12075" fill="#ff8a00" fill-opacity="1" fill-rule="nonzero" stroke="#000" stroke-linecap="round" stroke-linejoin="round" stroke-miterlimit="4" stroke-opacity="1" stroke-width=".747" d="m 28.966243,41.218236 0.175265,3.158351 1.791921,2.717193 c -2.241303,1.743238 -7.85052,0.409582 -7.948357,-1.478628 l 3.915773,-1.245169 c -0.364363,1.494202 -0.364363,-3.984534 -0.364363,-3.984534 m 1.931694,1.081819 0.175264,3.158355 1.791922,2.717193 c -2.241303,1.743234 -7.850519,0.409578 -7.948357,-1.478631 l 3.915773,-1.245166 c -0.364364,1.494202 -0.364364,-3.984538 -0.364364,-3.984538"/><path id="path5438" fill="#ff8a00" fill-opacity="1" fill-rule="nonzero" stroke="#000" stroke-linecap="round" stroke-linejoin="round" stroke-miterlimit="4" stroke-opacity="1" stroke-width=".747" d="m 36.038097,41.608017 -0.175265,3.158355 -1.791922,2.71719 c 2.241302,1.743234 7.85052,0.409581 7.948357,-1.478629 l -3.915774,-1.245165 c 0.364364,1.494198 0.364364,-3.984537 0.364364,-3.984537 m -1.931693,1.081822 -0.175265,3.158352 -1.791922,2.717189 c 2.241302,1.743238 7.85052,0.409581 7.948358,-1.478628 L 38.60156,45.0088 c 0.364365,1.494203 0.364365,-3.984533 0.364365,-3.984533"/><path id="path13611" fill="#fff" fill-opacity="1" fill-rule="evenodd" stroke="#000" stroke-linecap="round" stroke-linejoin="round" stroke-miterlimit="4" stroke-opacity="1" stroke-width=".538" d="m 32.555244,19.583416 c -7.264938,-3.54485 -7.857275,19.592379 -5.809945,20.104956 3.383041,3.052506 10.227483,2.551783 12.071756,0.257559 1.210771,-1.324865 2.810054,-22.47841 -6.261811,-20.362515 z"/><path id="path5441" fill="#ff8a00" fill-opacity="1" fill-rule="nonzero" stroke="#000" stroke-linecap="round" stroke-linejoin="round" stroke-miterlimit="4" stroke-opacity="1" stroke-width=".671" d="m 32.612268,24.616972 c -3.470587,-1.446477 -4.883197,-7.329326 -4.216005,-9.826055 3.471134,1.546069 4.913309,0.339553 9.302095,0.176185 -0.141817,4.617192 -1.779285,8.21641 -5.08609,9.64987 z m -0.258518,0.287377 c -4.194326,-2.411466 -4.641951,-7.088079 -3.974761,-9.584808 6.607342,-0.625149 3.224583,-0.384186 9.302099,0.176182 -0.14182,4.617195 -2.020534,8.940145 -5.327338,9.408626 z"/><path id="path2188" fill="#000" fill-opacity="1" fill-rule="evenodd" stroke="#000" stroke-linecap="round" stroke-linejoin="round" stroke-miterlimit="4" stroke-opacity="1" stroke-width="1.839" d="m 35.391881,12.841453 c 1.107615,1.263933 -0.226047,0.165817 -0.226047,0.165817"/><path id="path5462" fill="#000" fill-opacity="1" fill-rule="evenodd" stroke="#000" stroke-linecap="round" stroke-linejoin="round" stroke-miterlimit="4" stroke-opacity="1" stroke-width="1.839" d="m 30.680704,12.88806 c 1.107614,1.263935 -0.226045,0.165816 -0.226045,0.165816"/><path id="path5464" fill="#111414" fill-opacity="1" fill-rule="nonzero" stroke="#000" stroke-linecap="round" stroke-linejoin="round" stroke-miterlimit="4" stroke-opacity="1" stroke-width=".747" d="m 24.779284,16.382468 c -4.110974,6.227345 -8.354964,13.560295 -6.36104,15.427846 5.303155,-2.189204 2.748339,-2.654512 5.934853,-5.769139 m 0.0016,-9.991281 c -4.110974,6.227347 -8.354965,13.560295 -6.36104,15.427845 5.303156,-2.189204 2.74834,-2.654516 5.934855,-5.76914"/><path id="path13605" fill="#111414" fill-opacity="1" fill-rule="nonzero" stroke="#000" stroke-linecap="round" stroke-linejoin="round" stroke-miterlimit="4" stroke-opacity="1" stroke-width=".747" d="m 41.88073,16.216185 c 4.110974,6.227344 8.354965,13.560294 6.36104,15.427846 -5.303156,-2.189204 -2.748339,-2.654512 -5.934854,-5.769144 m -0.0016,-9.991278 c 4.110974,6.227346 8.354965,13.560295 6.361041,15.427846 -5.303156,-2.189208 -2.74834,-2.654512 -5.934854,-5.769139"/><path id="path13607" fill="#000" fill-opacity="1" fill-rule="evenodd" stroke="#000" stroke-linecap="round" stroke-linejoin="round" stroke-miterlimit="4" stroke-opacity="1" stroke-width=".764" d="m 31.731272,20.744615 c 0.467596,0.516383 -0.09543,0.06774 -0.09543,0.06774"/><path id="path13609" fill="#000" fill-opacity="1" fill-rule="evenodd" stroke="#000" stroke-linecap="round" stroke-linejoin="round" stroke-miterlimit="4" stroke-opacity="1" stroke-width=".764" d="m 33.661245,20.744615 c 0.467595,0.516383 -0.09543,0.06774 -0.09543,0.06774"/></g><path id="path1713-8" fill="url(#linearGradient5055)" fill-opacity="1" fill-rule="evenodd" stroke="none" d="M 106.61629,28.298373 C 106.70517,21.636833 107.7517,7.2475057 104.00555,5.0285687 101.05121,2.1463502 17.132662,4.3440338 7.9614696,4.2459808 2.0748296,3.5633272 3.8874768,22.684642 3.8379928,27.426219 25.814389,21.636703 48.310059,21.116809 65.483028,26.2697 c 24.336165,6.045087 31.53911,4.599658 41.133262,2.028673 z" opacity=".9"/></svg>