<svg xmlns="http://www.w3.org/2000/svg" xmlns:svg="http://www.w3.org/2000/svg" id="svg3661" width="129.999" height="160" version="1.1"><g id="layer1" transform="translate(-106.50753,-463.58258)"><path id="path3954-8-5-7-3-4-8-9-1-7-1-4-7-0-9" fill="#ab926c" fill-opacity="1" fill-rule="evenodd" stroke="#000" stroke-dasharray="none" stroke-dashoffset="0" stroke-linecap="round" stroke-linejoin="round" stroke-miterlimit="4" stroke-opacity="1" stroke-width="42.641" d="m -1064,429.36218 a 136,119 0 1 1 -272,0 136,119 0 1 1 272,0 z" transform="matrix(0.04216377,0.01948683,-0.03114741,0.0464975,281.0738,586.82787)"/><rect id="rect3252-71-0-6-0-2-7-2-9-8-9" width="29.117" height="48.243" x="-64.468" y="569.853" fill="#fff" fill-opacity="1" fill-rule="evenodd" stroke="#000" stroke-dasharray="none" stroke-dashoffset="0" stroke-linecap="round" stroke-linejoin="round" stroke-miterlimit="4" stroke-opacity="1" stroke-width="1.892" rx="7.11" ry="21.5" transform="matrix(0.89004447,-0.45587371,0.41918285,0.90790184,0,0)"/><rect id="rect3252-6-7-2-7-0-8-8-6-7-2-1" width="64.689" height="59.829" x="142.804" y="556.211" fill="#558040" fill-opacity="1" fill-rule="evenodd" stroke="#000" stroke-dasharray="none" stroke-dashoffset="0" stroke-linecap="round" stroke-linejoin="round" stroke-miterlimit="4" stroke-opacity="1" stroke-width="2.142" rx="21.393" ry="9.348" transform="matrix(0.99999998,-1.9124873e-4,5.7568517e-4,0.99999983,0,0)"/><path id="path3352-0-2-4-5-6-7-3-1-6" fill="#fff" fill-opacity="1" stroke="#000" stroke-dasharray="none" stroke-linecap="butt" stroke-linejoin="miter" stroke-miterlimit="4" stroke-opacity="1" stroke-width="2.416" d="m 138.84663,545.64771 c 0.96457,5.79838 9.17441,10.24493 19.36505,13.29958 0.31427,-7.99906 0.0933,-17.03574 -0.59894,-25.44289 -10.45072,1.32298 -18.74445,4.49068 -18.87429,10.85406 -0.009,0.44048 0.0374,0.86345 0.10821,1.28923 z"/><path id="path3932-5-3-8-0-8-6-6-0-8-2-2-7" fill="#fff" fill-opacity="1" fill-rule="evenodd" stroke="#000" stroke-dasharray="none" stroke-dashoffset="0" stroke-linecap="round" stroke-linejoin="round" stroke-miterlimit="4" stroke-opacity="1" stroke-width="2.228" d="m 176.00981,525.00405 c -0.11689,0 -0.23411,0.0112 -0.35079,0.0112 -0.0663,0 -0.13267,0 -0.19895,-0.0112 -0.1022,0 -0.20647,0 -0.30889,0 l 0,0.0267 c -7.82719,0.44801 -15.07816,5.36091 -19.93743,11.56333 -10.4155,13.20626 -14.38774,30.5995 -14.73839,47.28995 0.27363,4.2808 -0.52589,9.41965 1.19896,13.1316 6.26757,4.02117 17.31963,4.69413 24.85371,5.63399 1.99942,0.0932 5.17516,0.11942 8.62315,0.13958 l 0,0.0111 c 0.36178,0 0.70602,0 1.06281,-0.0111 0.0352,-2.2e-4 0.0696,2.2e-4 0.10468,0 3.44798,-0.0199 6.62373,-0.0465 8.62314,-0.13958 7.53409,-0.93986 18.58615,-1.61282 24.85372,-5.63399 1.72488,-3.71195 0.92533,-8.8508 1.19897,-13.1316 -0.35064,-16.69045 -4.32288,-34.08369 -14.7384,-47.29006 -4.85927,-6.20231 -12.11021,-11.11521 -19.93743,-11.56322 l 0,-0.0376 c -0.10245,-9e-5 -0.20663,0 -0.3089,0 z"/><path id="path17510-1-7-1-8" fill="#635140" fill-opacity="1" fill-rule="evenodd" stroke="#000" stroke-dasharray="none" stroke-dashoffset="0" stroke-linecap="round" stroke-linejoin="round" stroke-miterlimit="4" stroke-opacity="1" stroke-width="1.499" d="m -129.37339,10.138043 c -1.33379,4.445952 -4.63838,1.138083 -7.17071,5.028169 -2.53234,3.890086 1.82995,5.57314 -1.69577,8.592208 -3.52572,3.019069 -4.51735,-1.550281 -8.75082,0.353183 -4.23348,1.903465 -1.47361,5.677774 -6.07187,6.311426 -4.59826,0.633652 -2.96209,-3.746442 -7.55261,-4.433936 -4.59051,-0.687494 -4.30931,3.979754 -8.52019,2.02681 -4.21088,-1.952944 -0.46639,-4.753135 -3.95649,-7.813312 -3.4901,-3.060178 -5.77684,1.018191 -8.26342,-2.901304 -2.48658,-3.919494 2.17739,-4.25074 0.89578,-8.7120162 -1.2816,-4.4612767 -5.41026,-2.2666406 -5.38306,-6.9082736 0.0272,-4.6416329 4.12986,-2.39876539 5.46365,-6.8447171 1.3338,-4.4459518 -3.32597,-4.8318297 -0.79363,-8.7219161 2.53234,-3.890086 4.77113,0.2148 8.29685,-2.804268 3.52572,-3.019069 -0.1857,-5.862947 4.04778,-7.766411 4.23348,-1.903464 3.8976,2.760168 8.49586,2.126515 4.59826,-0.633652 3.01353,-5.03262 7.60405,-4.345126 4.59051,0.687494 1.78661,4.429202 5.99748,6.382146 4.21088,1.952944 5.25599,-2.604472 8.74609,0.455706 3.4901,3.060178 -0.89162,4.691996 1.59496,8.61149 2.48658,3.9194946 5.8297,0.650578 7.1113,5.1118548 1.2816,4.4612767 -3.28676,3.4651141 -3.31396,8.106747 -0.0272,4.641633 4.55253,3.6990736 3.21873,8.1450252 z" transform="matrix(0.72552629,0,0,0.76416523,315.66052,486.1107)"/><path id="path17510-1-2-6" fill="#635140" fill-opacity="1" fill-rule="evenodd" stroke="#000" stroke-dasharray="none" stroke-dashoffset="0" stroke-linecap="round" stroke-linejoin="round" stroke-miterlimit="4" stroke-opacity="1" stroke-width="1.499" d="m -129.37339,10.138043 c -1.33379,4.445952 -4.63838,1.138083 -7.17071,5.028169 -2.53234,3.890086 1.82995,5.57314 -1.69577,8.592208 -3.52572,3.019069 -4.51735,-1.550281 -8.75082,0.353183 -4.23348,1.903465 -1.47361,5.677774 -6.07187,6.311426 -4.59826,0.633652 -2.96209,-3.746442 -7.55261,-4.433936 -4.59051,-0.687494 -4.30931,3.979754 -8.52019,2.02681 -4.21088,-1.952944 -0.46639,-4.753135 -3.95649,-7.813312 -3.4901,-3.060178 -5.77684,1.018191 -8.26342,-2.901304 -2.48658,-3.919494 2.17739,-4.25074 0.89578,-8.7120162 -1.2816,-4.4612767 -5.41026,-2.2666406 -5.38306,-6.9082736 0.0272,-4.6416329 4.12986,-2.39876539 5.46365,-6.8447171 1.3338,-4.4459518 -3.32597,-4.8318297 -0.79363,-8.7219161 2.53234,-3.890086 4.77113,0.2148 8.29685,-2.804268 3.52572,-3.019069 -0.1857,-5.862947 4.04778,-7.766411 4.23348,-1.903464 3.8976,2.760168 8.49586,2.126515 4.59826,-0.633652 3.01353,-5.03262 7.60405,-4.345126 4.59051,0.687494 1.78661,4.429202 5.99748,6.382146 4.21088,1.952944 5.25599,-2.604472 8.74609,0.455706 3.4901,3.060178 -0.89162,4.691996 1.59496,8.61149 2.48658,3.9194946 5.8297,0.650578 7.1113,5.1118548 1.2816,4.4612767 -3.28676,3.4651141 -3.31396,8.106747 -0.0272,4.641633 4.55253,3.6990736 3.21873,8.1450252 z" transform="matrix(0.72552629,0,0,0.76416523,265.48337,484.56234)"/><g id="g5111" transform="matrix(-1.1902603,0.49790502,-0.47272914,-1.2536495,156.84304,1128.9035)"><path id="path3954-8-5-7-3-4-8-9-1-7-1-6-4-9" fill="#ab926c" fill-opacity="1" fill-rule="evenodd" stroke="#000" stroke-dasharray="none" stroke-dashoffset="0" stroke-linecap="round" stroke-linejoin="round" stroke-miterlimit="4" stroke-opacity="1" stroke-width="42.641" d="m -1064,429.36218 c 0,65.72189 -60.8893,119 -136,119 -75.1107,0 -136,-53.27811 -136,-119 0,-65.72188 60.8893,-119 136,-119 75.1107,0 136,53.27812 136,119 z" transform="matrix(-0.02331542,0.03145183,0.04162333,0.0194419,-186.45979,472.19617)"/><path id="path3352-0-2-4-5-6-0" fill="#fff" fill-opacity="1" stroke="#000" stroke-dasharray="none" stroke-linecap="butt" stroke-linejoin="miter" stroke-miterlimit="4" stroke-opacity="1" stroke-width="1.558" d="m -133.09346,437.28764 c -0.60818,-10.69656 -8.18936,-37.50195 -16.94956,-36.19514 -8.76023,1.30684 -4.3844,27.52749 -1.55709,37.57287 1.04585,3.71601 14.72674,1.83593 18.50665,-1.37773 z"/></g><rect id="rect4240-4-5-4-7-7-1-4-3" width="73.685" height="66.522" x="139.301" y="479.052" fill="#ab926c" fill-opacity="1" fill-rule="evenodd" stroke="#000" stroke-dasharray="none" stroke-dashoffset="0" stroke-linecap="round" stroke-linejoin="bevel" stroke-miterlimit="4" stroke-opacity="1" stroke-width="2.161" rx="35.264" ry="32.152"/><path id="path458-3-6-66-7-2-8-3-1-0" fill="#231f20" fill-opacity="1" fill-rule="nonzero" stroke="none" d="m 160.61191,513.45257 c 0,1.8371 -1.41283,3.32576 -3.15763,3.32576 -1.74423,0 -3.15824,-1.48866 -3.15824,-3.32576 0,-1.83646 1.41401,-3.32648 3.15824,-3.32648 1.7448,0 3.15763,1.49002 3.15763,3.32648"/><path id="path458-9-9-2-9-2-2-9-2-8" fill="#231f20" fill-opacity="1" fill-rule="nonzero" stroke="none" d="m 190.08597,512.89821 c 0,1.83711 -1.41283,3.32577 -3.15762,3.32577 -1.74425,0 -3.15826,-1.48866 -3.15826,-3.32577 0,-1.83645 1.41401,-3.32645 3.15826,-3.32645 1.74479,0 3.15762,1.49 3.15762,3.32645"/><path id="rect4240-4-5-4-7-7-1-2-5-5" fill="#635140" fill-opacity="1" fill-rule="evenodd" stroke="none" d="m 174.30559,478.66672 c -16.46942,0 -30.22764,10.16681 -34.14255,24.03844 8.10861,-8.77817 20.74609,-15.11902 37.15622,-15.17402 21.10407,-0.0707 29.54777,10.35548 34.95112,17.96108 -2.77136,-15.2562 -17.26207,-26.8255 -34.8041,-26.8255 l -3.16069,0 z"/><g id="g588-0-6-2-8-2-5-6-1-5-3-7-8-2-0-6" fill="#b66b6f" fill-opacity="1" stroke="#000" stroke-dasharray="none" stroke-linecap="round" stroke-linejoin="round" stroke-miterlimit="4" stroke-opacity="1" stroke-width="2.322" transform="matrix(0.66462723,0,0,-0.46873281,189.58618,525.15958)"><path id="path590-4-20-9-2-9-1-2-5-9-0-6-6-5-9-1" fill="#b66b6f" fill-opacity="1" stroke="#000" stroke-dasharray="none" stroke-linecap="round" stroke-linejoin="round" stroke-miterlimit="4" stroke-opacity="1" stroke-width="2.322" d="m -9.6745247,0.38698099 c 0,0 -2.0343943,-24.63135699 -15.4965323,-25.23098099 C -36.495404,-25.348404 -39.625684,0 -39.625684,0 z"/></g><path id="path4010-7-1-8-9-8-8-6-7-4-2-6-3" fill="#fff" fill-opacity="1" stroke="#000" stroke-dasharray="none" stroke-linecap="butt" stroke-linejoin="miter" stroke-miterlimit="4" stroke-opacity="1" stroke-width="2.38" d="m 179.72322,619.58008 c 0,0 0.29948,-13.46972 13.61862,-14.20156 17.91697,-0.98449 20.24179,12.13574 20.24179,12.13574 1.59736,3.91243 -34.0019,7.57402 -33.86041,2.06582 z"/><path id="path4010-1-9-1-1-1-9-9-3-8-3-1-3-2" fill="#fff" fill-opacity="1" stroke="#000" stroke-dasharray="none" stroke-linecap="butt" stroke-linejoin="miter" stroke-miterlimit="4" stroke-opacity="1" stroke-width="2.14" d="m 173.19439,619.97944 c 0,0 -0.26712,-11.74219 -12.14809,-12.38016 -15.98237,-0.85823 -18.05618,10.57918 -18.05618,10.57918 -1.42485,3.41055 30.33051,6.60252 30.20427,1.80098 z"/><path id="path3928-9-81-8-0-49-3-2-5-9-84-2-4" fill="#fff" fill-opacity="1" stroke="#000" stroke-dasharray="none" stroke-linecap="round" stroke-linejoin="round" stroke-miterlimit="4" stroke-opacity="1" stroke-width="1.37" d="M 175.22938,614.75284 174.92474,602.1259"/></g><metadata id="metadata59"/></svg>