<svg xmlns="http://www.w3.org/2000/svg" xmlns:svg="http://www.w3.org/2000/svg" xmlns:xlink="http://www.w3.org/1999/xlink" id="svg3381" width="60" height="36" version="1.1"><defs id="defs3383"><radialGradient id="radialGradient4438" cx="-624.746" cy="386.521" r="76.705" fx="-624.746" fy="386.521" gradientTransform="matrix(0.1275293,0.56006627,-1.2771928,0.28853509,2044.8489,149.06702)" gradientUnits="userSpaceOnUse" xlink:href="#linearGradient4375"/><linearGradient id="linearGradient4375"><stop id="stop4377" offset="0" stop-color="#fffcdc" stop-opacity="0"/><stop id="stop4385" offset=".789" stop-color="#fffcdc" stop-opacity="0"/><stop id="stop4381" offset="1" stop-color="#fffcdc" stop-opacity="1"/></linearGradient><radialGradient id="radialGradient4440" cx="-642.68" cy="403.854" r="76.705" fx="-642.68" fy="403.854" gradientTransform="matrix(0.06001821,0.50517768,-0.83571376,0.0984666,1829.91,188.62111)" gradientUnits="userSpaceOnUse" xlink:href="#linearGradient4172"/><linearGradient id="linearGradient4172"><stop id="stop4174" offset="0" stop-color="#e8d203" stop-opacity="0"/><stop id="stop4176" offset=".773" stop-color="#e8d203" stop-opacity="0"/><stop id="stop4178" offset="1" stop-color="#e8d203" stop-opacity="1"/></linearGradient><radialGradient id="radialGradient4442" cx="-1110.669" cy="708.431" r="76.705" fx="-1110.669" fy="708.431" gradientTransform="matrix(-0.09357513,0.35137921,-0.72006526,-0.16471869,1675.8285,335.51636)" gradientUnits="userSpaceOnUse" xlink:href="#linearGradient4305"/><linearGradient id="linearGradient4305"><stop id="stop4307" offset="0" stop-color="#e8d203" stop-opacity="0"/><stop id="stop4309" offset=".738" stop-color="#e8d203" stop-opacity="0"/><stop id="stop4311" offset="1" stop-color="#e8d203" stop-opacity="1"/></linearGradient><radialGradient id="radialGradient4444" cx="-1084.338" cy="688.134" r="76.705" fx="-1084.338" fy="688.134" gradientTransform="matrix(0.02115541,0.50319805,-0.86272971,0.17094183,1898.7245,269.65468)" gradientUnits="userSpaceOnUse" xlink:href="#linearGradient4375"/><linearGradient id="linearGradient3362"><stop id="stop3364" offset="0" stop-color="#fffcdc" stop-opacity="0"/><stop id="stop3366" offset=".789" stop-color="#fffcdc" stop-opacity="0"/><stop id="stop3368" offset="1" stop-color="#fffcdc" stop-opacity="1"/></linearGradient></defs><metadata id="metadata3386"/><g id="layer1" transform="translate(-510,-537.21933)"><g id="NUGGET" display="inline" transform="matrix(0.4882418,0,0,0.50576929,-175.26673,602.40355)"><path id="path3033-6-1" fill="#ffec39" fill-opacity="1" stroke="none" stroke-width="1" d="m 1522.6436,-95.632164 c 4.8532,18.392787 -34.7667,37.929527 -64.7509,37.929527 -29.9842,0 -55.7855,-5.957046 -54.2912,-34.442939 0.9965,-18.996174 26.2993,-36.933334 54.2912,-34.442914 29.8662,2.65718 51.6912,-18.53887 64.7509,30.956326 z" color="#000" display="inline" enable-background="accumulate" overflow="visible" visibility="visible" style="marker:none"/><path d="m 1522.6436,-95.632133 c 4.8532,18.39276 -34.7667,37.9295 -64.7509,37.9295 -29.9842,0 -55.7855,-5.95704 -54.2912,-34.4429 0.9965,-18.996197 26.2993,-36.933397 54.2912,-34.442997 29.8662,2.6572 51.6912,-18.5388 64.7509,30.956397 z" style="marker:none" id="path3033-6-1-4-3" fill="url(#radialGradient4438)" fill-opacity="1" fill-rule="nonzero" stroke="none" stroke-width=".686" color="#000" display="inline" enable-background="accumulate" overflow="visible" visibility="visible"/><path d="m 1522.6436,-95.632127 c 4.8532,18.39275 -34.7667,37.92949 -64.7509,37.92949 -29.9842,0 -55.7855,-5.95704 -54.2912,-34.44289 0.9965,-18.996203 26.2993,-36.933403 54.2912,-34.443003 29.8662,2.6572 51.6912,-18.5388 64.7509,30.956403 z" style="marker:none" id="path3033-6-1-4" fill="url(#radialGradient4440)" fill-opacity="1" fill-rule="nonzero" stroke="none" stroke-width=".686" color="#000" display="inline" enable-background="accumulate" overflow="visible" visibility="visible"/><path id="path3806-2-0" fill="#fffde6" fill-opacity="1" fill-rule="nonzero" stroke="none" stroke-width="1" d="m 876.62832,864.67432 c 0,9.90303 -16.502,17.93103 -36.85824,17.93103 -20.35624,0 -36.85824,-8.028 -36.85824,-17.93103 0,-9.90304 16.502,-17.93104 36.85824,-17.93104 20.35624,0 36.85824,8.028 36.85824,17.93104 z" color="#000" display="inline" enable-background="accumulate" overflow="visible" transform="matrix(0.17842259,-0.10803804,0.07700882,0.09014448,1208.9189,-88.191486)" visibility="visible" style="marker:none"/><path id="path3806-2-0-4" fill="#fffde6" fill-opacity="1" fill-rule="nonzero" stroke="none" stroke-width="1" d="m 876.62832,864.67432 c 0,9.90303 -16.502,17.93103 -36.85824,17.93103 -20.35624,0 -36.85824,-8.028 -36.85824,-17.93103 0,-9.90304 16.502,-17.93104 36.85824,-17.93104 20.35624,0 36.85824,8.028 36.85824,17.93104 z" color="#000" display="inline" enable-background="accumulate" overflow="visible" transform="matrix(0.18273955,-0.03451191,0.04995752,0.06306293,1278.1538,-145.46436)" visibility="visible" style="marker:none"/><g id="g4331" transform="matrix(0.83890784,0,0,0.76099412,417.85491,45.088532)"><path id="path4216" fill="#ffec39" fill-opacity="1" fill-rule="nonzero" stroke="none" stroke-width=".932" d="m 1321.4499,-160.25778 c 0,13.40745 -7.4997,21.79915 -37.2425,17.83567 -29.4385,-3.92294 -45.8161,-0.46474 -53.854,-24.27633 -4.3203,-12.79861 10.1789,-17.83567 53.854,-24.27633 29.3716,-4.33134 37.2425,17.30955 37.2425,30.71699 z" color="#000" display="inline" enable-background="accumulate" overflow="visible" visibility="visible" style="marker:none"/><path id="path4216-1" fill="url(#radialGradient4442)" fill-opacity="1" fill-rule="nonzero" stroke="none" stroke-width=".686" d="m 1321.4499,-160.25779 c 0,13.40745 -7.4997,21.79915 -37.2425,17.83567 -29.4385,-3.92295 -45.8161,-0.46474 -53.854,-24.27635 -4.3203,-12.79858 10.1789,-17.83567 53.854,-24.27628 29.3716,-4.33134 37.2425,17.30949 37.2425,30.71696 z" color="#000" display="inline" enable-background="accumulate" overflow="visible" visibility="visible" style="marker:none"/><path id="path4216-1-0" fill="url(#radialGradient4444)" fill-opacity="1" fill-rule="nonzero" stroke="none" stroke-width=".686" d="m 1321.4499,-160.25783 c 0,13.4075 -7.4997,21.7992 -37.2425,17.8357 -29.4385,-3.9229 -45.8161,-0.4647 -53.854,-24.2763 -4.3203,-12.7986 10.1789,-17.8357 53.854,-24.2763 29.3716,-4.3314 37.2425,17.3095 37.2425,30.7169 z" color="#000" display="inline" enable-background="accumulate" opacity=".6" overflow="visible" visibility="visible" style="marker:none"/><path id="path3806-2-0-9" fill="#fffde6" fill-opacity="1" fill-rule="nonzero" stroke="none" stroke-width="1" d="m 876.62832,864.67432 c 0,9.90303 -16.502,17.93103 -36.85824,17.93103 -20.35624,0 -36.85824,-8.028 -36.85824,-17.93103 0,-9.90304 16.502,-17.93104 36.85824,-17.93104 20.35624,0 36.85824,8.028 36.85824,17.93104 z" color="#000" display="inline" enable-background="accumulate" overflow="visible" transform="matrix(0.19730256,-0.07218798,0.0556837,0.11905356,1036.4343,-216.48583)" visibility="visible" style="marker:none"/></g></g></g></svg>