<svg xmlns="http://www.w3.org/2000/svg" xmlns:svg="http://www.w3.org/2000/svg" id="svg4502" width="2385.893" height="104.062" version="1.1"><metadata id="metadata4507"/><g id="layer1" transform="translate(847.82621,-264.62762)"><g id="g4791" display="inline" transform="matrix(3.0209583,0,0,2.9999994,-859.1548,243.72137)"><path stroke-width="1" style="marker:none" id="rect4034-2-06-2" fill="#9d5a00" fill-opacity="1" fill-rule="nonzero" stroke="#493110" stroke-dasharray="none" stroke-miterlimit="4" stroke-opacity="1" d="m 4.25,7.46875 0,33.6875 508.09375,0 0.4375,0 280.59375,0 0,-33.6875 -280.59375,0 -0.4375,0 -508.09375,0 z" color="#000" display="inline" enable-background="accumulate" overflow="visible" visibility="visible"/><path stroke-width=".899" style="marker:none" id="rect4034-2-06-4-1-96" fill="none" stroke="#382915" stroke-dasharray="none" stroke-linecap="round" stroke-miterlimit="4" stroke-opacity="1" d="m 4.73971,12.348984 31.72044,-0.5 31.72043,0.75 31.47044,1 25.97043,-1.75 33.72044,2.664214 37.80882,-3.240039 25.63205,-0.174175 35.72043,2.75 31.72044,-1.5 39.72043,1.5 23.72044,-3 31.72043,2 39.72044,-1 23.72044,1.5 31.72043,-2.25 31.72044,1.25" color="#000" display="inline" enable-background="accumulate" overflow="visible" visibility="visible"/><path stroke-width="1.199" style="marker:none" id="rect4034-2-06-4-1-5-8" fill="none" stroke="#382915" stroke-dasharray="none" stroke-linecap="round" stroke-miterlimit="4" stroke-opacity="1" d="m 4.73971,28.744718 31.72044,-0.5 31.47043,-1 31.72044,2.75 25.97043,-1.75 33.72044,2.664214 37.89721,-0.853554 25.54366,-2.56066 35.72043,2.75 31.72044,-1.5 39.67624,-0.311961 23.76463,-1.188039 31.72043,2 39.72044,-1 23.36688,0.96967 32.19899,1.28033 31.59544,-1.75" color="#000" display="inline" enable-background="accumulate" overflow="visible" visibility="visible"/><path stroke-width=".699" style="marker:none" id="rect4034-2-06-4-1-9-9" fill="none" stroke="#4f3209" stroke-dasharray="none" stroke-linecap="round" stroke-miterlimit="4" stroke-opacity="1" d="m 4.73971,36.661603 31.72044,-0.5 31.72043,2 31.47044,-0.25 25.97044,-1.75 33.72043,2.664214 37.72044,-1.914214 25.72043,-1.5 35.72044,2.75 31.72044,-1.5 39.72043,1.5 23.72044,-3 31.72043,2 39.72044,-1 23.72043,1.5 31.72044,-2.25 31.72043,1.25" color="#000" display="inline" enable-background="accumulate" overflow="visible" visibility="visible"/><path stroke-width=".999" style="marker:none" id="rect4034-2-06-4-1-6-6" fill="none" stroke="#4f3209" stroke-dasharray="none" stroke-linecap="round" stroke-miterlimit="4" stroke-opacity="1" d="m 4.73972,21.23714 31.72044,-0.5 31.72043,0.75 31.47044,1 25.97043,-1.75 33.72044,2.664214 37.63204,-0.05806 25.80882,-3.356155 35.72044,2.75 31.72043,-1.5 39.72044,1.5 23.72043,-3 31.72044,2 39.72043,-1 23.72044,1.5 31.72043,-2.25 31.72043,1.25" color="#000" display="inline" enable-background="accumulate" overflow="visible" visibility="visible"/><path stroke-width="1.399" style="marker:none" id="rect4034-2-06-4-1-0-1" fill="none" stroke="#493110" stroke-dasharray="none" stroke-linecap="round" stroke-miterlimit="4" stroke-opacity="1" d="m 4.73972,18.11403 31.72044,-0.5 31.72043,0.75 31.47044,1 25.97043,-1.75 33.72044,2.664214 37.54365,-0.411612 25.89721,-3.002602 35.72044,2.75 31.72043,-1.5 39.72044,1.5 23.72043,-3 31.72044,2 39.72043,-1 23.72044,1.5 31.72043,-2.25 31.72044,1.25" color="#000" display="inline" enable-background="accumulate" overflow="visible" visibility="visible"/><path stroke-opacity="1" style="marker:none" id="path4322-5" fill="none" stroke="#493110" stroke-dasharray="none" stroke-dashoffset="0" stroke-linecap="butt" stroke-linejoin="miter" stroke-miterlimit="4" stroke-width=".999" d="m 490.45632,25.318153 c -0.0278,-0.612109 -6.9447,-1.677673 -10.5,-1.698223 -3.29478,-0.01904 -9.2286,0.545137 -9.75,1.448223 -0.33077,0.572901 7.75498,1.667893 9.34467,1.667893 3.7552,0 10.93313,-0.805784 10.90533,-1.417893 z" color="#000" display="inline" enable-background="accumulate" overflow="visible" visibility="visible"/><path id="path4341-55" fill="none" stroke="#493110" stroke-linecap="butt" stroke-linejoin="miter" stroke-opacity="1" stroke-width="1" d="m 337.18191,32.552248 c 2.38253,0.787102 -5.22507,2.246758 -7.73398,2.209709 -2.86952,-0.04237 -8.67538,-1.137774 -8.04334,-1.458408 0.86894,-0.440812 14.62643,-1.131514 15.77732,-0.751301 z"/><path id="path4343-0" fill="none" stroke="#4f3209" stroke-linecap="round" stroke-linejoin="round" stroke-opacity="1" stroke-width="1" d="m 201.5058,14.78619 -4.41942,-0.707107 -8.3085,1.502602 8.22011,0.618719 z"/><path id="path4345-3" fill="none" stroke="#382915" stroke-linecap="round" stroke-linejoin="round" stroke-opacity="1" stroke-width="1" d="m 74.95632,33.193153 -7.375,-1.75 c 0,0 -11.625,0.25 -9.125,1.25 2.5,1 10.25,1.75 10.25,1.75 z"/><path stroke-width=".892" style="marker:none" id="rect4034-2-06-4-1-96-1" fill="none" stroke="#382915" stroke-dasharray="none" stroke-linecap="round" stroke-miterlimit="4" stroke-opacity="1" d="m 511.96363,12.348042 31.68668,-0.501026 31.16562,0.751539 30.92,1.002052 25.86356,-1.753591 33.13065,2.669682 37.14751,-3.246689 25.18373,-0.174533 35.09566,2.755644 31.16563,-1.503078" color="#000" display="inline" enable-background="accumulate" overflow="visible" visibility="visible"/><path stroke-width="1.189" style="marker:none" id="rect4034-2-06-4-1-5-8-5" fill="none" stroke="#382915" stroke-dasharray="none" stroke-linecap="round" stroke-miterlimit="4" stroke-opacity="1" d="m 512.22715,28.743779 31.69778,-0.501408 30.84628,-1.002815 31.09133,2.757742 25.45536,-1.754927 33.05167,2.671715 37.1456,-0.855957 25.03705,-2.567869 35.01199,2.757742 31.09134,-1.504223" color="#000" display="inline" enable-background="accumulate" overflow="visible" visibility="visible"/><path stroke-width=".693" style="marker:none" id="rect4034-2-06-4-1-9-9-1" fill="none" stroke="#4f3209" stroke-dasharray="none" stroke-linecap="round" stroke-miterlimit="4" stroke-opacity="1" d="m 512.05262,36.660825 31.92791,-0.500847 31.14679,2.003387 30.90132,-0.250423 25.50078,-1.752964 33.11062,2.668727 37.03829,-1.917457 25.25529,-1.502541 35.07446,2.754658 31.1468,-1.50254" color="#000" display="inline" enable-background="accumulate" overflow="visible" visibility="visible"/><path stroke-width=".991" style="marker:none" id="rect4034-2-06-4-1-6-6-3" fill="none" stroke="#4f3209" stroke-dasharray="none" stroke-linecap="round" stroke-miterlimit="4" stroke-opacity="1" d="m 512.05168,21.236107 31.94712,-0.501126 31.16552,0.751689 30.91991,1.002252 25.51611,-1.753941 33.13054,2.670214 36.97372,-0.05819 25.35733,-3.363714 35.09555,2.756194 31.16553,-1.503378" color="#000" display="inline" enable-background="accumulate" overflow="visible" visibility="visible"/><path stroke-width="1.388" style="marker:none" id="rect4034-2-06-4-1-0-1-9" fill="none" stroke="#493110" stroke-dasharray="none" stroke-linecap="round" stroke-miterlimit="4" stroke-opacity="1" d="m 512.05024,18.112609 31.92846,-0.50155 31.14731,0.752325 30.90185,1.0031 25.5012,-1.755425 33.11119,2.672474 36.86532,-0.412888 25.42931,-3.011912 35.07506,2.758526 31.14731,-1.50465" color="#000" display="inline" enable-background="accumulate" overflow="visible" visibility="visible"/><path id="path4343-0-8" fill="none" stroke="#4f3209" stroke-linecap="round" stroke-linejoin="round" stroke-opacity="1" stroke-width="1" d="m 709.61708,14.786186 -4.41942,-0.707107 -8.3085,1.502602 8.22011,0.618719 z"/><path id="path4345-3-3" fill="none" stroke="#382915" stroke-linecap="round" stroke-linejoin="round" stroke-opacity="1" stroke-width="1" d="m 583.0676,33.193149 -7.375,-1.75 c 0,0 -11.625,0.25 -9.125,1.25 2.5,1 10.25,1.75 10.25,1.75 z"/></g><path id="path4585" fill="#382915" fill-opacity="1" fill-rule="nonzero" stroke="#251703" stroke-dasharray="none" stroke-dashoffset="0" stroke-linecap="round" stroke-linejoin="bevel" stroke-miterlimit="4" stroke-opacity="1" stroke-width="3" d="m -789.60296,292.2807 -19.09189,22.80419 19.62222,23.86485 16.44024,-24.39515 z" color="#000" display="inline" enable-background="accumulate" overflow="visible" visibility="visible" style="marker:none"/><path id="path4585-9" fill="#382915" fill-opacity="1" fill-rule="nonzero" stroke="#251703" stroke-dasharray="none" stroke-dashoffset="0" stroke-linecap="round" stroke-linejoin="bevel" stroke-miterlimit="4" stroke-opacity="1" stroke-width="3" d="m 1473.6796,340.01042 19.092,-22.80421 -19.6223,-23.86484 -16.4399,24.39519 z" color="#000" display="inline" enable-background="accumulate" overflow="visible" visibility="visible" style="marker:none"/></g></svg>