<svg xmlns="http://www.w3.org/2000/svg" xmlns:svg="http://www.w3.org/2000/svg" id="svg4502" width="104.063" height="1528.593" version="1.1"><metadata id="metadata4507"/><g id="layer1" transform="translate(-273.67199,234.79167)"><g id="g4767" display="inline" transform="matrix(3.0000004,0,0,2.9999994,254.07824,-251.47917)"><rect id="rect4034-2-06" width="33.706" height="508.525" x="7.026" y="6.066" fill="#9d5a00" fill-opacity="1" fill-rule="nonzero" stroke="#493110" stroke-dasharray="none" stroke-dashoffset="0" stroke-linecap="butt" stroke-linejoin="miter" stroke-miterlimit="4" stroke-opacity="1" stroke-width="1" color="#000" display="inline" enable-background="accumulate" overflow="visible" rx="0" ry="0" visibility="visible" style="marker:none"/><path d="m 11.909513,514.09161 -0.5,-31.72044 0.75,-31.72043 1,-31.47044 -1.75,-25.97043 2.664214,-33.72044 -3.240039,-37.80882 -0.174175,-25.63205 2.75,-35.72043 -1.5,-31.72044 1.5,-39.72043 -3,-23.72044 2,-31.72043 -1,-39.72044 1.5,-23.720437 -2.25,-31.720437 1.25,-31.720436" style="marker:none" id="rect4034-2-06-4-1" fill="none" stroke="#382915" stroke-dasharray="none" stroke-miterlimit="4" stroke-opacity="1" stroke-width=".899" color="#000" display="inline" enable-background="accumulate" overflow="visible" visibility="visible"/><path d="m 28.305247,514.09161 -0.5,-31.72044 -1,-31.47043 2.75,-31.72044 -1.75,-25.97043 2.664214,-33.72044 -0.853554,-37.89721 -2.56066,-25.54366 2.75,-35.72043 -1.5,-31.72044 -0.311961,-39.67624 -1.188039,-23.76463 2,-31.72043 -1,-39.72044 0.96967,-23.366884 1.28033,-32.19899 -1.75,-31.595436" style="marker:none" id="rect4034-2-06-4-1-5" fill="none" stroke="#382915" stroke-dasharray="none" stroke-miterlimit="4" stroke-opacity="1" stroke-width="1.199" color="#000" display="inline" enable-background="accumulate" overflow="visible" visibility="visible"/><path d="m 36.222132,514.09161 -0.5,-31.72044 2,-31.72043 -0.25,-31.47044 -1.75,-25.97044 2.664214,-33.72043 -1.914214,-37.72044 -1.5,-25.72043 2.75,-35.72044 -1.5,-31.72044 1.5,-39.72043 -3,-23.72044 2,-31.72043 -1,-39.72044 1.5,-23.72043 -2.25,-31.720435 1.25,-31.720435" style="marker:none" id="rect4034-2-06-4-1-9" fill="none" stroke="#4f3209" stroke-dasharray="none" stroke-miterlimit="4" stroke-opacity="1" stroke-width=".699" color="#000" display="inline" enable-background="accumulate" overflow="visible" visibility="visible"/><path d="m 20.797669,514.0916 -0.5,-31.72044 0.75,-31.72043 1,-31.47044 -1.75,-25.97043 2.664214,-33.72044 -0.05806,-37.63204 -3.356155,-25.80882 2.75,-35.72044 -1.5,-31.72043 1.5,-39.72044 -3,-23.72043 2,-31.72044 -1,-39.72043 1.5,-23.720436 -2.25,-31.720434 1.25,-31.7204345" style="marker:none" id="rect4034-2-06-4-1-6" fill="none" stroke="#4f3209" stroke-dasharray="none" stroke-miterlimit="4" stroke-opacity="1" stroke-width=".999" color="#000" display="inline" enable-background="accumulate" overflow="visible" visibility="visible"/><path d="m 17.674559,514.0916 -0.5,-31.72044 0.75,-31.72043 1,-31.47044 -1.75,-25.97043 2.664214,-33.72044 -0.411612,-37.54365 -3.002602,-25.89721 2.75,-35.72044 -1.5,-31.72043 1.5,-39.72044 -3,-23.72043 2,-31.72044 -1,-39.72043 1.5,-23.720436 -2.25,-31.720435 1.25,-31.720434" style="marker:none" id="rect4034-2-06-4-1-0" fill="none" stroke="#493110" stroke-dasharray="none" stroke-miterlimit="4" stroke-opacity="1" stroke-width="1.399" color="#000" display="inline" enable-background="accumulate" overflow="visible" visibility="visible"/><path stroke-opacity="1" style="marker:none" id="path4322" fill="none" stroke="#493110" stroke-dasharray="none" stroke-dashoffset="0" stroke-linecap="butt" stroke-linejoin="miter" stroke-miterlimit="4" stroke-width=".999" d="m 24.878682,28.375001 c -0.612109,0.0278 -1.677673,6.944694 -1.698223,10.5 -0.01904,3.294775 0.545137,9.228603 1.448223,9.75 0.572901,0.330765 1.667893,-7.754981 1.667893,-9.34467 0,-3.755204 -0.805784,-10.933126 -1.417893,-10.90533 z" color="#000" display="inline" enable-background="accumulate" overflow="visible" visibility="visible"/><path id="path4341" fill="none" stroke="#493110" stroke-linecap="butt" stroke-linejoin="miter" stroke-opacity="1" stroke-width="1" d="m 32.112777,181.64941 c 0.787102,-2.38253 2.246758,5.22507 2.209709,7.73398 -0.04237,2.86952 -1.137774,8.67538 -1.458408,8.04334 -0.440812,-0.86894 -1.131514,-14.62643 -0.751301,-15.77732 z"/><path id="path4343" fill="none" stroke="#4f3209" stroke-linecap="round" stroke-linejoin="round" stroke-opacity="1" stroke-width="1" d="m 14.346719,317.32552 -0.707107,4.41942 1.502602,8.3085 0.618719,-8.22011 z"/><path id="path4345" fill="none" stroke="#382915" stroke-linecap="round" stroke-linejoin="round" stroke-opacity="1" stroke-width="1" d="m 32.753682,443.875 -1.75,7.375 c 0,0 0.25,11.625 1.25,9.125 1,-2.5 1.75,-10.25 1.75,-10.25 z"/></g></g></svg>