<svg xmlns="http://www.w3.org/2000/svg" xmlns:svg="http://www.w3.org/2000/svg" id="svg4078" width="800" height="520" version="1.1"><metadata id="metadata4083"/><g id="layer1" transform="translate(-139.39394,-411.45309)"><rect id="rect4151" width="800" height="520" x="139.394" y="103.185" fill="#e9afae" fill-opacity="1" stroke="none" transform="translate(0,308.2677)"/><path id="path4665" fill="#794305" fill-opacity="1" stroke="#000" stroke-dasharray="none" stroke-dashoffset="0" stroke-miterlimit="4" stroke-opacity="1" stroke-width="1.5" d="m 439.39394,289.54904 c 0,16.7359 -46.80659,30.30303 -104.54546,30.30303 -57.73886,0 -104.54546,-13.56713 -104.54546,-30.30303 0,-16.7359 46.8066,-30.30303 104.54546,-30.30303 57.06929,0 103.59387,13.26565 104.53136,29.80524" transform="matrix(0.79761957,0.46680294,-0.43954643,0.84708038,277.61267,222.40407)"/><path id="path4665-6" fill="#794305" fill-opacity="1" stroke="#000" stroke-dasharray="none" stroke-dashoffset="0" stroke-miterlimit="4" stroke-opacity="1" stroke-width="1.5" d="m 439.39394,289.54904 c 0,16.7359 -46.80659,30.30303 -104.54546,30.30303 -57.73886,0 -104.54546,-13.56713 -104.54546,-30.30303 0,-16.7359 46.8066,-30.30303 104.54546,-30.30303 57.06929,0 103.59387,13.26565 104.53136,29.80524" transform="matrix(-0.79761957,0.46680294,0.43954643,0.84708038,817.08307,220.47959)"/><path id="path4661" fill="#794305" fill-opacity="1" stroke="#000" stroke-dasharray="none" stroke-dashoffset="0" stroke-miterlimit="4" stroke-opacity="1" stroke-width="1.5" d="m 724.2424,427.42783 c 0,69.45398 -66.13975,125.75756 -147.72726,125.75756 -81.58752,0 -147.72727,-56.30358 -147.72727,-125.75756 0,-69.45399 66.13975,-125.75757 147.72727,-125.75757 80.64137,0 146.38262,55.05243 147.70733,123.69173" transform="matrix(0.81762022,0,0,1.0267927,78.202238,295.44636)"/><path id="path4685" fill="#794305" fill-opacity="1" stroke="#000" stroke-dasharray="none" stroke-dashoffset="0" stroke-miterlimit="4" stroke-opacity="1" stroke-width="1.5" d="m 427.27274,520.60962 c 0,35.56379 -16.95891,64.39394 -37.87879,64.39394 -20.91988,0 -37.87879,-28.83015 -37.87879,-64.39394 0,-35.56379 16.95891,-64.39394 37.87879,-64.39394 20.67728,0 37.53401,28.1895 37.87368,63.33613" transform="matrix(0.77712556,-0.55245106,0.51505757,0.83354534,-143.35054,608.59215)"/><path id="path4685-5" fill="#794305" fill-opacity="1" stroke="#000" stroke-dasharray="none" stroke-dashoffset="0" stroke-miterlimit="4" stroke-opacity="1" stroke-width="1.5" d="m 427.27274,520.60962 c 0,35.56379 -16.95891,64.39394 -37.87879,64.39394 -20.91988,0 -37.87879,-28.83015 -37.87879,-64.39394 0,-35.56379 16.95891,-64.39394 37.87879,-64.39394 20.67728,0 37.53401,28.1895 37.87368,63.33613" transform="matrix(-0.75103434,-0.53091439,-0.49776502,0.80105053,1227.3471,614.51649)"/><path id="path4705" fill="#794305" fill-opacity="1" stroke="#000" stroke-dasharray="none" stroke-dashoffset="0" stroke-miterlimit="4" stroke-opacity="1" stroke-width="1.5" d="m 639.39394,243.33691 c 0,36.40059 -45.44989,65.90909 -101.51516,65.90909 -56.06527,0 -101.51515,-29.5085 -101.51515,-65.90909 0,-36.40058 45.44988,-65.90908 101.51515,-65.90908 55.41511,0 100.59114,28.85278 101.50146,64.82638" transform="matrix(0.92114752,0,0,1.1148299,58.592877,275.00695)"/><path id="path4712" fill="#794305" fill-opacity="1" stroke="#000" stroke-dasharray="none" stroke-dashoffset="0" stroke-miterlimit="4" stroke-opacity="1" stroke-width="1.5" d="m 518.58408,169.31572 c 0,13.44056 -13.86729,24.33628 -30.97345,24.33628 -17.10617,0 -30.97346,-10.89572 -30.97346,-24.33628 0,-13.44056 13.86729,-24.33628 30.97346,-24.33628 16.90779,0 30.69152,10.6536 30.96927,23.9365" transform="translate(0,306.2677)"/><path id="path4710" fill="#a87206" fill-opacity="1" stroke="#000" stroke-dasharray="none" stroke-dashoffset="0" stroke-miterlimit="4" stroke-opacity="1" stroke-width="1.5" d="m 624.24241,440.30661 c 0,44.76854 -29.84768,81.06061 -66.66667,81.06061 -36.81898,0 -66.66666,-36.29207 -66.66666,-81.06061 0,-44.76854 29.84768,-81.06061 66.66666,-81.06061 36.39201,0 66.05986,35.48561 66.65767,79.72901" transform="matrix(1.0738068,0,0,1,-46.073348,308.2677)"/><path id="path4712-6" fill="#794305" fill-opacity="1" stroke="#000" stroke-dasharray="none" stroke-dashoffset="0" stroke-miterlimit="4" stroke-opacity="1" stroke-width="1.5" d="m 518.58408,169.31572 c 0,13.44056 -13.86729,24.33628 -30.97345,24.33628 -17.10617,0 -30.97346,-10.89572 -30.97346,-24.33628 0,-13.44056 13.86729,-24.33628 30.97346,-24.33628 16.90779,0 30.69152,10.6536 30.96927,23.9365" transform="translate(133.53712,305.36131)"/><path id="path4732" fill="#ab7410" fill-opacity="1" stroke="#000" stroke-dasharray="none" stroke-dashoffset="0" stroke-miterlimit="4" stroke-opacity="1" stroke-width="1.5" d="m 392.92035,161.79359 c 0,9.28621 -7.13174,16.81416 -15.9292,16.81416 -8.79746,0 -15.9292,-7.52795 -15.9292,-16.81416 0,-9.2862 7.13174,-16.81416 15.9292,-16.81416 8.69544,0 15.78421,7.36068 15.92705,16.53796" transform="matrix(1.2460297,0,0,0.94360705,17.231298,326.50676)"/><path id="path4732-9" fill="#ab7410" fill-opacity="1" stroke="#000" stroke-dasharray="none" stroke-dashoffset="0" stroke-miterlimit="4" stroke-opacity="1" stroke-width="1.5" d="m 392.92035,161.79359 c 0,9.28621 -7.13174,16.81416 -15.9292,16.81416 -8.79746,0 -15.9292,-7.52795 -15.9292,-16.81416 0,-9.2862 7.13174,-16.81416 15.9292,-16.81416 8.69544,0 15.78421,7.36068 15.92705,16.53796" transform="matrix(1.2460297,0,0,0.94360705,150.29323,323.12623)"/><path id="path4752" fill="#000" fill-opacity="1" stroke="#000" stroke-dasharray="none" stroke-dashoffset="0" stroke-miterlimit="4" stroke-opacity="1" stroke-width="1.5" d="m 566.37171,255.15643 c 0,8.55309 -7.13175,15.48673 -15.92921,15.48673 -8.79745,0 -15.9292,-6.93364 -15.9292,-15.48673 0,-8.55308 7.13175,-15.48672 15.9292,-15.48672 8.69544,0 15.78422,6.77957 15.92706,15.23232" transform="translate(2,308.2677)"/><path id="path4754" fill="#feffff" fill-opacity="1" stroke="#000" stroke-dasharray="none" stroke-dashoffset="0" stroke-miterlimit="4" stroke-opacity="1" stroke-width="1.5" d="m 538.05309,221.08563 c 0,12.70744 -8.12227,23.00885 -18.14159,23.00885 -10.01933,0 -18.14159,-10.30141 -18.14159,-23.00885 0,-12.70743 8.12226,-23.00885 18.14159,-23.00885 9.90313,0 17.97646,10.0725 18.13914,22.63088" transform="matrix(1,0,0,0.94763347,2,320.6403)"/><path id="path4756" fill="#000" fill-opacity="1" stroke="#000" stroke-dasharray="none" stroke-dashoffset="0" stroke-miterlimit="4" stroke-opacity="1" stroke-width="1.5" d="m 431.85841,201.61661 c 0,5.37622 -4.16018,9.73451 -9.29203,9.73451 -5.13185,0 -9.29204,-4.35829 -9.29204,-9.73451 0,-5.37623 4.16019,-9.73452 9.29204,-9.73452 5.07233,0 9.20745,4.26145 9.29078,9.57461" transform="translate(100,330.2677)"/><path id="path4754-2" fill="#feffff" fill-opacity="1" stroke="#000" stroke-dasharray="none" stroke-dashoffset="0" stroke-miterlimit="4" stroke-opacity="1" stroke-width="1.5" d="m 538.05309,221.08563 c 0,12.70744 -8.12227,23.00885 -18.14159,23.00885 -10.01933,0 -18.14159,-10.30141 -18.14159,-23.00885 0,-12.70743 8.12226,-23.00885 18.14159,-23.00885 9.90313,0 17.97646,10.0725 18.13914,22.63088" transform="matrix(1,0,0,0.94763347,64.81416,321.19032)"/><path id="path4756-8" fill="#000" fill-opacity="1" stroke="#000" stroke-dasharray="none" stroke-dashoffset="0" stroke-miterlimit="4" stroke-opacity="1" stroke-width="1.5" d="m 431.85841,201.61661 c 0,5.37622 -4.16018,9.73451 -9.29203,9.73451 -5.13185,0 -9.29204,-4.35829 -9.29204,-9.73451 0,-5.37623 4.16019,-9.73452 9.29204,-9.73452 5.07233,0 9.20745,4.26145 9.29078,9.57461" transform="translate(162.81416,330.81772)"/><path id="path4779" fill="#a87206" fill-opacity="1" stroke="#000" stroke-dasharray="none" stroke-dashoffset="0" stroke-miterlimit="4" stroke-opacity="1" stroke-width="1.5" d="m 84.070795,494.09448 c 0,17.83929 -8.320372,32.30089 -18.58407,32.30089 -10.263699,0 -18.58407,-14.4616 -18.58407,-32.30089 0,-17.83928 8.320371,-32.30088 18.58407,-32.30088 10.144674,0 18.414914,14.14024 18.581562,31.77027" transform="matrix(1.1241486,-0.39651983,0.44729838,1.0428576,145.06107,355.53664)"/><path id="path4779-8" fill="#a87206" fill-opacity="1" stroke="#000" stroke-dasharray="none" stroke-dashoffset="0" stroke-miterlimit="4" stroke-opacity="1" stroke-width="1.5" d="m 84.070795,494.09448 c 0,17.83929 -8.320372,32.30089 -18.58407,32.30089 -10.263699,0 -18.58407,-14.4616 -18.58407,-32.30089 0,-17.83928 8.320371,-32.30088 18.58407,-32.30088 10.144674,0 18.414914,14.14024 18.581562,31.77027" transform="matrix(-1.1241486,-0.39651983,-0.44729838,1.0428576,960.99615,355.09399)"/><path id="path4799" fill="#a87206" fill-opacity="1" stroke="#000" stroke-dasharray="none" stroke-dashoffset="0" stroke-miterlimit="4" stroke-opacity="1" stroke-width="1.5" d="m 226.54867,652.94403 c 0,5.86497 -2.97156,10.61947 -6.63717,10.61947 -3.66561,0 -6.63717,-4.7545 -6.63717,-10.61947 0,-5.86497 2.97156,-10.61947 6.63717,-10.61947 3.6231,0 6.57675,4.64885 6.63627,10.44502" transform="matrix(0.8905081,-0.50179158,0.44193731,1.0111151,-89.260556,258.70505)"/><path id="path4799-6" fill="#a87206" fill-opacity="1" stroke="#000" stroke-dasharray="none" stroke-dashoffset="0" stroke-miterlimit="4" stroke-opacity="1" stroke-width="1.5" d="m 226.54867,652.94403 c 0,5.86497 -2.97156,10.61947 -6.63717,10.61947 -3.66561,0 -6.63717,-4.7545 -6.63717,-10.61947 0,-5.86497 2.97156,-10.61947 6.63717,-10.61947 3.6231,0 6.57675,4.64885 6.63627,10.44502" transform="matrix(-0.8905081,-0.50179158,-0.44193731,1.0111151,1192.3579,255.60761)"/><path id="path4799-4" fill="#a87206" fill-opacity="1" stroke="#000" stroke-dasharray="none" stroke-dashoffset="0" stroke-miterlimit="4" stroke-opacity="1" stroke-width="1.5" d="m 226.54867,652.94403 c 0,5.86497 -2.97156,10.61947 -6.63717,10.61947 -3.66561,0 -6.63717,-4.7545 -6.63717,-10.61947 0,-5.86497 2.97156,-10.61947 6.63717,-10.61947 3.6231,0 6.57675,4.64885 6.63627,10.44502" transform="matrix(1.0220847,-0.01193208,-0.0985301,1.0990697,516.55766,73.408228)"/><path id="path4799-8" fill="#a87206" fill-opacity="1" stroke="#000" stroke-dasharray="none" stroke-dashoffset="0" stroke-miterlimit="4" stroke-opacity="1" stroke-width="1.5" d="m 226.54867,652.94403 c 0,5.86497 -2.97156,10.61947 -6.63717,10.61947 -3.66561,0 -6.63717,-4.7545 -6.63717,-10.61947 0,-5.86497 2.97156,-10.61947 6.63717,-10.61947 3.6231,0 6.57675,4.64885 6.63627,10.44502" transform="matrix(0.97876177,0.29466058,-0.42310628,1.0191386,757.48399,58.405622)"/><path id="path4799-8-8" fill="#a87206" fill-opacity="1" stroke="#000" stroke-dasharray="none" stroke-dashoffset="0" stroke-miterlimit="4" stroke-opacity="1" stroke-width="1.5" d="m 226.54867,652.94403 c 0,5.86497 -2.97156,10.61947 -6.63717,10.61947 -3.66561,0 -6.63717,-4.7545 -6.63717,-10.61947 0,-5.86497 2.97156,-10.61947 6.63717,-10.61947 3.6231,0 6.57675,4.64885 6.63627,10.44502" transform="matrix(-0.97876177,0.29466058,0.42310628,1.0191386,346.48069,62.175565)"/><path id="path4799-4-0" fill="#a87206" fill-opacity="1" stroke="#000" stroke-dasharray="none" stroke-dashoffset="0" stroke-miterlimit="4" stroke-opacity="1" stroke-width="1.5" d="m 226.54867,652.94403 c 0,5.86497 -2.97156,10.61947 -6.63717,10.61947 -3.66561,0 -6.63717,-4.7545 -6.63717,-10.61947 0,-5.86497 2.97156,-10.61947 6.63717,-10.61947 3.6231,0 6.57675,4.64885 6.63627,10.44502" transform="matrix(-1.0220847,-0.01193208,0.0985301,1.0990697,583.4423,72.753414)"/><path id="path4876" fill="#feffff" fill-opacity="1" stroke="#000" stroke-linecap="butt" stroke-linejoin="miter" stroke-opacity="1" stroke-width="1" d="m 522.12389,276.83785 c 0,0 16.83219,21.36621 32.74337,22.12388 18.58407,0.88496 30.97345,-20.35397 30.97345,-20.35397 0,0 -16.81416,7.9646 -31.85841,7.9646 -16.90706,0 -31.85841,-9.73451 -31.85841,-9.73451 z" transform="translate(0,308.2677)"/><path id="path4878" fill="#a87206" fill-opacity="1" stroke="#000" stroke-dasharray="none" stroke-dashoffset="0" stroke-miterlimit="4" stroke-opacity="1" stroke-width="1.5" d="m 279.64602,307.81131 c 0,3.42123 -1.18863,6.19469 -2.65487,6.19469 -1.46624,0 -2.65487,-2.77346 -2.65487,-6.19469 0,-3.42123 1.18863,-6.19469 2.65487,-6.19469 1.44924,0 2.6307,2.71183 2.65451,6.09293" transform="matrix(1.0962023,-0.71343297,0.54547278,0.83812854,-128.90054,527.38961)"/><path id="path4878-4" fill="#a87206" fill-opacity="1" stroke="#000" stroke-dasharray="none" stroke-dashoffset="0" stroke-miterlimit="4" stroke-opacity="1" stroke-width="1.5" d="m 279.64602,307.81131 c 0,3.42123 -1.18863,6.19469 -2.65487,6.19469 -1.46624,0 -2.65487,-2.77346 -2.65487,-6.19469 0,-3.42123 1.18863,-6.19469 2.65487,-6.19469 1.44924,0 2.6307,2.71183 2.65451,6.09293" transform="matrix(1.0749823,-0.74502291,0.56962565,0.82190426,-124.89638,532.7139)"/><path id="path4878-5" fill="#a87206" fill-opacity="1" stroke="#000" stroke-dasharray="none" stroke-dashoffset="0" stroke-miterlimit="4" stroke-opacity="1" stroke-width="1.5" d="m 279.64602,307.81131 c 0,3.42123 -1.18863,6.19469 -2.65487,6.19469 -1.46624,0 -2.65487,-2.77346 -2.65487,-6.19469 0,-3.42123 1.18863,-6.19469 2.65487,-6.19469 1.44924,0 2.6307,2.71183 2.65451,6.09293" transform="matrix(1.0963154,-0.71325923,0.54533994,0.83821497,-112.33722,517.09645)"/><path id="path4878-9" fill="#a87206" fill-opacity="1" stroke="#000" stroke-dasharray="none" stroke-dashoffset="0" stroke-miterlimit="4" stroke-opacity="1" stroke-width="1.5" d="m 279.64602,307.81131 c 0,3.42123 -1.18863,6.19469 -2.65487,6.19469 -1.46624,0 -2.65487,-2.77346 -2.65487,-6.19469 0,-3.42123 1.18863,-6.19469 2.65487,-6.19469 1.44924,0 2.6307,2.71183 2.65451,6.09293" transform="matrix(-0.87808344,-0.96933769,-0.74113105,0.67136038,1226.4101,646.95633)"/><path id="path4878-4-9" fill="#a87206" fill-opacity="1" stroke="#000" stroke-dasharray="none" stroke-dashoffset="0" stroke-miterlimit="4" stroke-opacity="1" stroke-width="1.5" d="m 279.64602,307.81131 c 0,3.42123 -1.18863,6.19469 -2.65487,6.19469 -1.46624,0 -2.65487,-2.77346 -2.65487,-6.19469 0,-3.42123 1.18863,-6.19469 2.65487,-6.19469 1.44924,0 2.6307,2.71183 2.65451,6.09293" transform="matrix(-0.8495107,-0.99447355,-0.7603493,0.64951439,1221.1808,653.08381)"/><path id="path4878-5-2" fill="#a87206" fill-opacity="1" stroke="#000" stroke-dasharray="none" stroke-dashoffset="0" stroke-miterlimit="4" stroke-opacity="1" stroke-width="1.5" d="m 279.64602,307.81131 c 0,3.42123 -1.18863,6.19469 -2.65487,6.19469 -1.46624,0 -2.65487,-2.77346 -2.65487,-6.19469 0,-3.42123 1.18863,-6.19469 2.65487,-6.19469 1.44924,0 2.6307,2.71183 2.65451,6.09293" transform="matrix(-0.8782371,-0.96919853,-0.74102464,0.67147782,1215.0184,634.78044)"/><path id="path4929" fill="#a87206" fill-opacity="1" stroke="#000" stroke-dasharray="none" stroke-dashoffset="0" stroke-miterlimit="4" stroke-opacity="1" stroke-width="1.5" d="m 320.50358,308.12326 c 0,3.77461 -4.67041,6.83453 -10.43165,6.83453 -5.76124,0 -10.43165,-3.05992 -10.43165,-6.83453 0,-3.77461 4.67041,-6.83453 10.43165,-6.83453 5.69443,0 10.3367,2.99193 10.43025,6.72226" transform="matrix(1.0101408,-0.4114438,0.38381924,1.0828434,-70.508721,390.35483)"/><path id="path4929-1" fill="#a87206" fill-opacity="1" stroke="#000" stroke-dasharray="none" stroke-dashoffset="0" stroke-miterlimit="4" stroke-opacity="1" stroke-width="1.5" d="m 320.50358,308.12326 c 0,3.77461 -4.67041,6.83453 -10.43165,6.83453 -5.76124,0 -10.43165,-3.05992 -10.43165,-6.83453 0,-3.77461 4.67041,-6.83453 10.43165,-6.83453 5.69443,0 10.3367,2.99193 10.43025,6.72226" transform="matrix(-0.44144244,-0.99739612,-1.0279836,0.512949,1190.3152,740.98522)"/></g></svg>