<svg xmlns="http://www.w3.org/2000/svg" xmlns:svg="http://www.w3.org/2000/svg" id="svg4341" width="100%" height="100%" version="1.1" viewBox="0 0 18.228 18.265"><defs id="defs4343"><radialGradient id="radialGradient4481-8" cx="12.5" cy="2.335" r="9.962" gradientTransform="matrix(0.99167,0.0041626,-0.0041976,0.99999,0.11387,-0.052012)" gradientUnits="userSpaceOnUse"><stop id="stop3773-2-1" offset="0" stop-color="#fff" stop-opacity="1"/><stop id="stop3775-4-5" offset="1" stop-color="#0025ff" stop-opacity="1"/></radialGradient></defs><g id="layer1" transform="translate(-126.00413,-661.46043)"><g id="layer1-6" opacity="1" transform="matrix(-0.84261,0.026204,0.026204,0.84261,119.57,-195.39)"><path id="path5114" fill="#0b00ff" fill-opacity="1" fill-rule="nonzero" stroke="none" d="m 17.823385,9.0762625 a 8.7729893,8.8423414 0 1 1 -17.54597831,0 8.7729893,8.8423414 0 1 1 17.54597831,0 z" transform="matrix(-1.185642,0.03687182,0.03687182,1.185642,23.967616,1016.2373)"/><path id="path3769-2-9" fill="#000" fill-opacity="1" stroke="none" stroke-width="1" d="m 12.428696,1016.5469 c -2.7897632,0.2758 -5.7173707,1.3328 -7.4524778,3.8055 -3.4133994,4.8645 -2.8974671,10.8035 1.5685275,15.2817 4.6601503,3.4609 11.7152883,3.6711 15.4062503,-1.5313 3.495821,-4.9273 3.32915,-10.7993 -1.342505,-14.6302 -2.335828,-1.9154 -5.390032,-3.2015 -8.179795,-2.9257 z m 0.143813,1.2865 c 2.533001,-0.2505 4.813958,0.1149 6.940838,1.8589 4.253761,3.4883 4.0554,10.5543 0.968069,14.4663 -3.408007,4.3183 -9.923645,2.8102 -14.1774042,-0.6781 -3.144985,-3.5638 -3.4842996,-7.7788 -0.4075867,-12.1653 1.7441163,-2.1268 4.1430829,-3.2313 6.6760839,-3.4818 z" baseline-shift="baseline" color="#000" direction="ltr" display="inline" enable-background="accumulate" font-family="Sans" font-size="medium" font-stretch="normal" font-style="normal" font-variant="normal" font-weight="normal" letter-spacing="normal" overflow="visible" text-anchor="start" text-decoration="none" visibility="visible" word-spacing="normal" writing-mode="lr-tb" style="text-indent:0;text-align:start;line-height:normal;text-transform:none;block-progression:tb;marker:none;-inkscape-font-specification:Sans"/></g></g><metadata id="metadata11"/></svg>