<svg xmlns="http://www.w3.org/2000/svg" xmlns:svg="http://www.w3.org/2000/svg" xmlns:xlink="http://www.w3.org/1999/xlink" id="svg2" width="798.901" height="518.402" version="1.1"><defs id="defs4"><linearGradient id="linearGradient4253"><stop id="stop4255" offset="0" stop-color="#000" stop-opacity="1"/><stop id="stop4257" offset="1" stop-color="#3b383a" stop-opacity="0"/></linearGradient><linearGradient id="linearGradient4236"><stop id="stop4238" offset="0" stop-color="#000" stop-opacity="1"/><stop id="stop4240" offset="1" stop-color="#3b383a" stop-opacity="0"/></linearGradient><linearGradient id="linearGradient3946"><stop id="stop3948" offset="0" stop-color="#000" stop-opacity="1"/><stop id="stop3950" offset="1" stop-color="#bdbcbe" stop-opacity=".985"/></linearGradient><linearGradient id="linearGradient3934"><stop id="stop3936" offset="0" stop-color="#797777" stop-opacity="1"/><stop id="stop3944" offset=".684" stop-color="#c0c2c4" stop-opacity="1"/><stop id="stop3938" offset="1" stop-color="#000" stop-opacity=".902"/></linearGradient><linearGradient id="linearGradient3940" x1="260.278" x2="264.585" y1="284.784" y2="501.89" gradientUnits="userSpaceOnUse" xlink:href="#linearGradient3934"/><linearGradient id="linearGradient3952" x1="386.434" x2="471.013" y1="413.775" y2="409.824" gradientUnits="userSpaceOnUse" xlink:href="#linearGradient3946"/><linearGradient id="linearGradient4234" x1="293.579" x2="291.289" y1="507.252" y2="545.41" gradientUnits="userSpaceOnUse" xlink:href="#linearGradient4236"/><linearGradient id="linearGradient4251" x1="711.022" x2="634.053" y1="506.923" y2="650.344" gradientTransform="matrix(1,0,0,0.97188755,0,-24.693075)" gradientUnits="userSpaceOnUse" xlink:href="#linearGradient4253"/></defs><metadata id="metadata7"/><g id="layer2" display="inline" transform="translate(-148.43617,-120.24683)"><rect id="rect3905" width="798.402" height="518.402" x="148.935" y="428.515" fill="#800" fill-opacity="1" stroke="none" display="inline" ry="0" transform="translate(0,-308.2677)"/><path id="path4243" fill="url(#linearGradient4251)" fill-opacity="1" stroke="none" d="m 556.57895,454.87181 c 0,0 -67.74031,60.96859 -57.89474,79.92496 15.38539,29.62257 110.52632,50.51257 110.52632,50.51257 l 73.02631,-30.05178 -21.71052,44.75798 186.18421,0 33.55263,-96.54935 -274.34211,-62.66118 z"/><path id="path4226" fill="url(#linearGradient4234)" fill-opacity="1" stroke="none" d="m 423.68421,510.54185 c 0,0 -20.98698,40.30614 -39.47368,40.13158 -21.02156,-0.1985 -235.52632,-7.89474 -235.52632,-7.89474 l 0.6579,-52.63158 z"/><path id="path3843" fill="url(#linearGradient3940)" fill-opacity="1" stroke="#000" stroke-linecap="butt" stroke-linejoin="miter" stroke-opacity="1" stroke-width="1" d="m 408.82228,273.1228 -259.73029,29.18414 -0.15582,195.89377 258.51064,19.29803 z" display="inline"/><path id="path3073" fill="url(#linearGradient3952)" fill-opacity="1" stroke="#000" stroke-dasharray="none" stroke-dashoffset="0" stroke-miterlimit="4" stroke-opacity="1" stroke-width="1.6" d="m 470.21278,413.77533 c 0,67.27298 -18.57542,121.80851 -41.48936,121.80851 -22.91394,0 -41.48936,-54.53553 -41.48936,-121.80851 0,-67.27298 18.57542,-121.80851 41.48936,-121.80851 22.91394,0 41.48936,54.53553 41.48936,121.80851 z" transform="matrix(1,0,0,0.99891703,-19.148936,-18.441256)"/><path id="path3954-6-0-2" fill="#000" fill-opacity="1" stroke="none" d="m 59.210526,484.22607 c 0,5.45018 -4.123693,9.86842 -9.210526,9.86842 -5.086833,0 -9.210526,-4.41824 -9.210526,-9.86842 0,-5.45017 4.123693,-9.86842 9.210526,-9.86842 5.086833,0 9.210526,4.41825 9.210526,9.86842 z" display="inline" transform="matrix(-0.39545053,0.91848727,-0.55109235,-0.23727032,1129.3627,573.37838)"/></g></svg>