<svg xmlns="http://www.w3.org/2000/svg" xmlns:svg="http://www.w3.org/2000/svg" xmlns:xlink="http://www.w3.org/1999/xlink" id="svg2" width="798.901" height="518.402" version="1.1"><defs id="defs4"><linearGradient id="linearGradient4253"><stop id="stop4255" offset="0" stop-color="#000" stop-opacity="1"/><stop id="stop4257" offset="1" stop-color="#3b383a" stop-opacity="0"/></linearGradient><linearGradient id="linearGradient4236"><stop id="stop4238" offset="0" stop-color="#000" stop-opacity="1"/><stop id="stop4240" offset="1" stop-color="#3b383a" stop-opacity="0"/></linearGradient><linearGradient id="linearGradient3946"><stop id="stop3948" offset="0" stop-color="#000" stop-opacity="1"/><stop id="stop3950" offset="1" stop-color="#bdbcbe" stop-opacity=".985"/></linearGradient><linearGradient id="linearGradient3934"><stop id="stop3936" offset="0" stop-color="#797777" stop-opacity="1"/><stop id="stop3944" offset=".684" stop-color="#c0c2c4" stop-opacity="1"/><stop id="stop3938" offset="1" stop-color="#000" stop-opacity=".902"/></linearGradient><linearGradient id="linearGradient3940" x1="260.278" x2="264.585" y1="284.784" y2="501.89" gradientUnits="userSpaceOnUse" xlink:href="#linearGradient3934"/><linearGradient id="linearGradient3952" x1="386.434" x2="471.013" y1="413.775" y2="409.824" gradientUnits="userSpaceOnUse" xlink:href="#linearGradient3946"/><linearGradient id="linearGradient4234" x1="293.579" x2="291.289" y1="507.252" y2="545.41" gradientUnits="userSpaceOnUse" xlink:href="#linearGradient4236"/><linearGradient id="linearGradient4251" x1="711.022" x2="634.053" y1="506.923" y2="650.344" gradientTransform="matrix(1,0,0,0.97188755,0,-24.693075)" gradientUnits="userSpaceOnUse" xlink:href="#linearGradient4253"/></defs><metadata id="metadata7"/><g id="layer2" display="inline" transform="translate(-148.43617,-120.24683)"><rect id="rect3905" width="798.402" height="518.402" x="148.935" y="428.515" fill="#800" fill-opacity="1" stroke="none" display="inline" ry="0" transform="translate(0,-308.2677)"/><path id="path4243" fill="url(#linearGradient4251)" fill-opacity="1" stroke="none" d="m 556.57895,454.87181 c 0,0 -67.74031,60.96859 -57.89474,79.92496 15.38539,29.62257 110.52632,50.51257 110.52632,50.51257 l 73.02631,-30.05178 -21.71052,44.75798 186.18421,0 33.55263,-96.54935 -274.34211,-62.66118 z"/><path id="path4226" fill="url(#linearGradient4234)" fill-opacity="1" stroke="none" d="m 423.68421,510.54185 c 0,0 -20.98698,40.30614 -39.47368,40.13158 -21.02156,-0.1985 -235.52632,-7.89474 -235.52632,-7.89474 l 0.6579,-52.63158 z"/><path id="path3843" fill="url(#linearGradient3940)" fill-opacity="1" stroke="#000" stroke-linecap="butt" stroke-linejoin="miter" stroke-opacity="1" stroke-width="1" d="m 408.82228,273.1228 -259.73029,29.18414 -0.15582,195.89377 258.51064,19.29803 z" display="inline"/><path id="path3073" fill="url(#linearGradient3952)" fill-opacity="1" stroke="#000" stroke-dasharray="none" stroke-dashoffset="0" stroke-miterlimit="4" stroke-opacity="1" stroke-width="1.6" d="m 470.21278,413.77533 c 0,67.27298 -18.57542,121.80851 -41.48936,121.80851 -22.91394,0 -41.48936,-54.53553 -41.48936,-121.80851 0,-67.27298 18.57542,-121.80851 41.48936,-121.80851 22.91394,0 41.48936,54.53553 41.48936,121.80851 z" transform="matrix(1,0,0,0.99891703,-19.148936,-18.441256)"/><path id="path3922" fill="#00008b" fill-opacity="1" stroke="#000" stroke-dasharray="none" stroke-linecap="butt" stroke-linejoin="miter" stroke-miterlimit="4" stroke-opacity="1" stroke-width="1.5" d="m 557.44681,389.30725 90.42553,47.34042 -0.60982,105.62406 -90.87954,-48.17725 z"/><path id="path3924" fill="#000052" fill-opacity="1" stroke="#000" stroke-dasharray="none" stroke-linecap="butt" stroke-linejoin="miter" stroke-miterlimit="4" stroke-opacity="1" stroke-width="1.5" d="m 647.72325,436.34276 90.73044,-38.29787 -0.007,105.62406 -91.33354,38.45369 z"/><path id="path3926" fill="#0000e0" fill-opacity="1" stroke="#000" stroke-dasharray="none" stroke-linecap="butt" stroke-linejoin="miter" stroke-miterlimit="4" stroke-opacity="1" stroke-width="1.5" d="m 557.44681,388.77533 96.80851,-36.17021 83.89346,45.43977 -91.34027,38.07086 z"/><path id="path3928" fill="#00da00" fill-opacity="1" stroke="#000" stroke-dasharray="none" stroke-linecap="butt" stroke-linejoin="miter" stroke-miterlimit="4" stroke-opacity="1" stroke-width="1.5" d="m 710.33339,488.92442 121.5815,8.36155 45.74468,-57.44681 -114.89361,-9.57446 z"/><path id="path3930" fill="#00ac00" fill-opacity="1" stroke="#000" stroke-dasharray="none" stroke-linecap="butt" stroke-linejoin="miter" stroke-miterlimit="4" stroke-opacity="1" stroke-width="1.5" d="m 709.57447,489.54098 2.12766,104.5535 121.73059,12.31196 -1.51783,-108.05664 z"/><path id="path3932" fill="#007400" fill-opacity="1" stroke="#000" stroke-dasharray="none" stroke-linecap="butt" stroke-linejoin="miter" stroke-miterlimit="4" stroke-opacity="1" stroke-width="1.5" d="m 831.91489,497.28597 45.74468,-57.44681 2.12766,102.12766 -46.35451,64.1347 z"/><path id="path3954" fill="#000" fill-opacity="1" stroke="none" d="m 59.210526,484.22607 c 0,5.45018 -4.123693,9.86842 -9.210526,9.86842 -5.086833,0 -9.210526,-4.41824 -9.210526,-9.86842 0,-5.45017 4.123693,-9.86842 9.210526,-9.86842 5.086833,0 9.210526,4.41825 9.210526,9.86842 z" display="inline" transform="matrix(1,0,0,0.59999998,550,99.00623)"/><path id="path3954-8" fill="#000" fill-opacity="1" stroke="none" d="m 59.210526,484.22607 c 0,5.45018 -4.123693,9.86842 -9.210526,9.86842 -5.086833,0 -9.210526,-4.41824 -9.210526,-9.86842 0,-5.45017 4.123693,-9.86842 9.210526,-9.86842 5.086833,0 9.210526,4.41825 9.210526,9.86842 z" display="inline" transform="matrix(1,0,0,0.59999998,598.68421,102.24306)"/><path id="path3954-3" fill="#000" fill-opacity="1" stroke="none" d="m 59.210526,484.22607 c 0,5.45018 -4.123693,9.86842 -9.210526,9.86842 -5.086833,0 -9.210526,-4.41824 -9.210526,-9.86842 0,-5.45017 4.123693,-9.86842 9.210526,-9.86842 5.086833,0 9.210526,4.41825 9.210526,9.86842 z" display="inline" transform="matrix(1,0,0,0.59999998,648,106.13779)"/><path id="path3954-6" fill="#000" fill-opacity="1" stroke="none" d="m 59.210526,484.22607 c 0,5.45018 -4.123693,9.86842 -9.210526,9.86842 -5.086833,0 -9.210526,-4.41824 -9.210526,-9.86842 0,-5.45017 4.123693,-9.86842 9.210526,-9.86842 5.086833,0 9.210526,4.41825 9.210526,9.86842 z" display="inline" transform="matrix(0.50960782,0.8604068,-0.51624407,0.30576468,802.81423,240.59386)"/><path id="path3954-6-3" fill="#000" fill-opacity="1" stroke="none" d="m 59.210526,484.22607 c 0,5.45018 -4.123693,9.86842 -9.210526,9.86842 -5.086833,0 -9.210526,-4.41824 -9.210526,-9.86842 0,-5.45017 4.123693,-9.86842 9.210526,-9.86842 5.086833,0 9.210526,4.41825 9.210526,9.86842 z" display="inline" transform="matrix(0.50960782,0.8604068,-0.51624407,0.30576468,846.02476,306.4886)"/><path id="path3954-6-0" fill="#000" fill-opacity="1" stroke="none" d="m 59.210526,484.22607 c 0,5.45018 -4.123693,9.86842 -9.210526,9.86842 -5.086833,0 -9.210526,-4.41824 -9.210526,-9.86842 0,-5.45017 4.123693,-9.86842 9.210526,-9.86842 5.086833,0 9.210526,4.41825 9.210526,9.86842 z" display="inline" transform="matrix(-0.39545053,0.91848727,-0.55109235,-0.23727032,984.62581,538.7468)"/><path id="path3954-8-0" fill="#000" fill-opacity="1" stroke="none" d="m 59.210526,484.22607 c 0,5.45018 -4.123693,9.86842 -9.210526,9.86842 -5.086833,0 -9.210526,-4.41824 -9.210526,-9.86842 0,-5.45017 4.123693,-9.86842 9.210526,-9.86842 5.086833,0 9.210526,4.41825 9.210526,9.86842 z" display="inline" transform="matrix(1,0,0,0.59999998,728.94737,155.45358)"/><path id="path3954-8-09" fill="#000" fill-opacity="1" stroke="none" d="m 59.210526,484.22607 c 0,5.45018 -4.123693,9.86842 -9.210526,9.86842 -5.086833,0 -9.210526,-4.41824 -9.210526,-9.86842 0,-5.45017 4.123693,-9.86842 9.210526,-9.86842 5.086833,0 9.210526,4.41825 9.210526,9.86842 z" display="inline" transform="matrix(1,0,0,0.59999998,786.94737,161.45358)"/><path id="path3954-8-3" fill="#000" fill-opacity="1" stroke="none" d="m 59.210526,484.22607 c 0,5.45018 -4.123693,9.86842 -9.210526,9.86842 -5.086833,0 -9.210526,-4.41824 -9.210526,-9.86842 0,-5.45017 4.123693,-9.86842 9.210526,-9.86842 5.086833,0 9.210526,4.41825 9.210526,9.86842 z" display="inline" transform="matrix(1,0,0,0.59999998,702.94737,183.45358)"/><path id="path3954-8-2" fill="#000" fill-opacity="1" stroke="none" d="m 59.210526,484.22607 c 0,5.45018 -4.123693,9.86842 -9.210526,9.86842 -5.086833,0 -9.210526,-4.41824 -9.210526,-9.86842 0,-5.45017 4.123693,-9.86842 9.210526,-9.86842 5.086833,0 9.210526,4.41825 9.210526,9.86842 z" display="inline" transform="matrix(1,0,0,0.59999998,763.78947,188.40095)"/><path id="path3954-8-3-1" fill="#000" fill-opacity="1" stroke="none" d="m 59.210526,484.22607 c 0,5.45018 -4.123693,9.86842 -9.210526,9.86842 -5.086833,0 -9.210526,-4.41824 -9.210526,-9.86842 0,-5.45017 4.123693,-9.86842 9.210526,-9.86842 5.086833,0 9.210526,4.41825 9.210526,9.86842 z" display="inline" transform="matrix(0.84348864,0.53714701,-0.32228819,0.50609317,846.83328,238.59468)"/><path id="path3954-8-3-1-1" fill="#000" fill-opacity="1" stroke="none" d="m 59.210526,484.22607 c 0,5.45018 -4.123693,9.86842 -9.210526,9.86842 -5.086833,0 -9.210526,-4.41824 -9.210526,-9.86842 0,-5.45017 4.123693,-9.86842 9.210526,-9.86842 5.086833,0 9.210526,4.41825 9.210526,9.86842 z" display="inline" transform="matrix(0.84348864,0.53714701,-0.32228819,0.50609317,917.2017,245.22625)"/><path id="path3954-8-3-1-2" fill="#000" fill-opacity="1" stroke="none" d="m 59.210526,484.22607 c 0,5.45018 -4.123693,9.86842 -9.210526,9.86842 -5.086833,0 -9.210526,-4.41824 -9.210526,-9.86842 0,-5.45017 4.123693,-9.86842 9.210526,-9.86842 5.086833,0 9.210526,4.41825 9.210526,9.86842 z" display="inline" transform="matrix(0.84348864,0.53714701,-0.32228819,0.50609317,884.25433,272.8052)"/><path id="path3954-8-3-1-9" fill="#000" fill-opacity="1" stroke="none" d="m 59.210526,484.22607 c 0,5.45018 -4.123693,9.86842 -9.210526,9.86842 -5.086833,0 -9.210526,-4.41824 -9.210526,-9.86842 0,-5.45017 4.123693,-9.86842 9.210526,-9.86842 5.086833,0 9.210526,4.41825 9.210526,9.86842 z" display="inline" transform="matrix(0.84348864,0.53714701,-0.32228819,0.50609317,917.78065,307.59468)"/><path id="path3954-8-3-1-4" fill="#000" fill-opacity="1" stroke="none" d="m 59.210526,484.22607 c 0,5.45018 -4.123693,9.86842 -9.210526,9.86842 -5.086833,0 -9.210526,-4.41824 -9.210526,-9.86842 0,-5.45017 4.123693,-9.86842 9.210526,-9.86842 5.086833,0 9.210526,4.41825 9.210526,9.86842 z" display="inline" transform="matrix(0.84348864,0.53714701,-0.32228819,0.50609317,848.93854,302.38415)"/><path id="path3954-6-0-2" fill="#000" fill-opacity="1" stroke="none" d="m 59.210526,484.22607 c 0,5.45018 -4.123693,9.86842 -9.210526,9.86842 -5.086833,0 -9.210526,-4.41824 -9.210526,-9.86842 0,-5.45017 4.123693,-9.86842 9.210526,-9.86842 5.086833,0 9.210526,4.41825 9.210526,9.86842 z" display="inline" transform="matrix(-0.39545053,0.91848727,-0.55109235,-0.23727032,1129.3627,573.37838)"/><path id="path3954-6-0-5" fill="#000" fill-opacity="1" stroke="none" d="m 59.210526,484.22607 c 0,5.45018 -4.123693,9.86842 -9.210526,9.86842 -5.086833,0 -9.210526,-4.41824 -9.210526,-9.86842 0,-5.45017 4.123693,-9.86842 9.210526,-9.86842 5.086833,0 9.210526,4.41825 9.210526,9.86842 z" display="inline" transform="matrix(-0.39545053,0.91848727,-0.55109235,-0.23727032,1130.0995,640.69417)"/><path id="path3954-6-0-9" fill="#000" fill-opacity="1" stroke="none" d="m 59.210526,484.22607 c 0,5.45018 -4.123693,9.86842 -9.210526,9.86842 -5.086833,0 -9.210526,-4.41824 -9.210526,-9.86842 0,-5.45017 4.123693,-9.86842 9.210526,-9.86842 5.086833,0 9.210526,4.41825 9.210526,9.86842 z" display="inline" transform="matrix(-0.39545053,0.91848727,-0.55109235,-0.23727032,1144.4679,622.22049)"/><path id="path3954-6-0-92" fill="#000" fill-opacity="1" stroke="none" d="m 59.210526,484.22607 c 0,5.45018 -4.123693,9.86842 -9.210526,9.86842 -5.086833,0 -9.210526,-4.41824 -9.210526,-9.86842 0,-5.45017 4.123693,-9.86842 9.210526,-9.86842 5.086833,0 9.210526,4.41825 9.210526,9.86842 z" display="inline" transform="matrix(-0.39545053,0.91848727,-0.55109235,-0.23727032,1142.5732,556.53628)"/><path id="path3954-6-0-21" fill="#000" fill-opacity="1" stroke="none" d="m 59.210526,484.22607 c 0,5.45018 -4.123693,9.86842 -9.210526,9.86842 -5.086833,0 -9.210526,-4.41824 -9.210526,-9.86842 0,-5.45017 4.123693,-9.86842 9.210526,-9.86842 5.086833,0 9.210526,4.41825 9.210526,9.86842 z" display="inline" transform="matrix(-0.39545053,0.91848727,-0.55109235,-0.23727032,1154.9942,541.53628)"/><path id="path3954-6-0-7" fill="#000" fill-opacity="1" stroke="none" d="m 59.210526,484.22607 c 0,5.45018 -4.123693,9.86842 -9.210526,9.86842 -5.086833,0 -9.210526,-4.41824 -9.210526,-9.86842 0,-5.45017 4.123693,-9.86842 9.210526,-9.86842 5.086833,0 9.210526,4.41825 9.210526,9.86842 z" display="inline" transform="matrix(-0.39545053,0.91848727,-0.55109235,-0.23727032,1156.31,603.79944)"/></g></svg>