<svg xmlns="http://www.w3.org/2000/svg" xmlns:svg="http://www.w3.org/2000/svg" xmlns:xlink="http://www.w3.org/1999/xlink" id="svg2" width="801" height="521" version="1.1"><defs id="defs4"><linearGradient id="linearGradient3981"><stop id="stop3983" offset="0" stop-color="#1bea02" stop-opacity="1"/><stop id="stop3985" offset="1" stop-color="#0ac7c9" stop-opacity=".459"/></linearGradient><radialGradient id="radialGradient3987" cx="183.035" cy="144.038" r="15.926" fx="183.035" fy="144.038" gradientTransform="matrix(1,0,0,1.0334001,0,-4.9904335)" gradientUnits="userSpaceOnUse" xlink:href="#linearGradient3981"/><radialGradient id="radialGradient3987-0" cx="183.035" cy="144.038" r="15.926" fx="183.035" fy="144.038" gradientTransform="matrix(1,0,0,1.0334001,0,-4.9904335)" gradientUnits="userSpaceOnUse" xlink:href="#linearGradient3981-0"/><linearGradient id="linearGradient3981-0"><stop id="stop3983-6" offset="0" stop-color="#21fff1" stop-opacity="1"/><stop id="stop3985-9" offset="1" stop-color="#09145d" stop-opacity="1"/></linearGradient><radialGradient id="radialGradient4004" cx="183.035" cy="144.038" r="15.926" fx="183.035" fy="144.038" gradientTransform="matrix(1,0,0,1.0334001,0,-4.9904335)" gradientUnits="userSpaceOnUse" xlink:href="#linearGradient3981-0"/><radialGradient id="radialGradient4004-0" cx="183.035" cy="144.038" r="15.926" fx="183.035" fy="144.038" gradientTransform="matrix(1,0,0,1.0334001,0,-4.9904335)" gradientUnits="userSpaceOnUse" xlink:href="#linearGradient3981-0-3"/><linearGradient id="linearGradient3981-0-3"><stop id="stop3983-6-2" offset="0" stop-color="#21f7ff" stop-opacity="1"/><stop id="stop3985-9-3" offset="1" stop-color="#2128e0" stop-opacity=".677"/></linearGradient><radialGradient id="radialGradient4038" cx="183.035" cy="144.038" r="15.926" fx="183.035" fy="144.038" gradientTransform="matrix(1,0,0,1.0334001,0,-4.9904335)" gradientUnits="userSpaceOnUse" xlink:href="#linearGradient3981-0-3"/><linearGradient id="linearGradient4063" x1="773.27" x2="767.02" y1="612.482" y2="423.121" gradientUnits="userSpaceOnUse" xlink:href="#linearGradient3981"/><radialGradient id="radialGradient4004-8" cx="183.035" cy="144.038" r="15.926" fx="183.035" fy="144.038" gradientTransform="matrix(1,0,0,1.0334001,0,-4.9904335)" gradientUnits="userSpaceOnUse" xlink:href="#linearGradient3981-0-1"/><linearGradient id="linearGradient3981-0-1"><stop id="stop3983-6-6" offset="0" stop-color="#21f7ff" stop-opacity="1"/><stop id="stop3985-9-0" offset="1" stop-color="#2128e0" stop-opacity=".677"/></linearGradient><radialGradient id="radialGradient4080" cx="183.035" cy="144.038" r="15.926" fx="183.035" fy="144.038" gradientTransform="matrix(1,0,0,1.0334001,0,-4.9904335)" gradientUnits="userSpaceOnUse" xlink:href="#linearGradient3981-0-1"/><linearGradient id="linearGradient4063-4" x1="773.27" x2="767.02" y1="612.482" y2="423.121" gradientUnits="userSpaceOnUse" xlink:href="#linearGradient3981-2"/><linearGradient id="linearGradient3981-2"><stop id="stop3983-8" offset="0" stop-color="#1bea02" stop-opacity="1"/><stop id="stop3985-2" offset="1" stop-color="#0ac7c9" stop-opacity=".459"/></linearGradient><linearGradient id="linearGradient4114" x1="773.27" x2="767.02" y1="612.482" y2="423.121" gradientTransform="translate(-496.04433,292.04164)" gradientUnits="userSpaceOnUse" xlink:href="#linearGradient3981-2"/><linearGradient id="linearGradient4139" x1="595.245" x2="600.5" y1="327.383" y2="891.213" gradientUnits="userSpaceOnUse" xlink:href="#linearGradient3981-0"/></defs><metadata id="metadata7"/><g id="layer1" display="inline" transform="translate(-123.96809,-396.67068)"><rect id="rect3050" width="800" height="520" x="124.468" y="397.171" fill="url(#linearGradient4139)" fill-opacity="1" stroke="#000" stroke-dasharray="none" stroke-dashoffset="0" stroke-miterlimit="4" stroke-opacity="1" stroke-width="1" ry="0"/><path id="path3893" fill="url(#linearGradient4063)" fill-opacity="1" stroke="#000" stroke-linecap="butt" stroke-linejoin="miter" stroke-opacity=".582" stroke-width="1" d="m 771.2766,456.6175 c 13.16961,-20.35158 -30.28816,-51.1219 5.18574,-53.00269 20.44267,8.17232 21.18119,35.01403 15.38211,52.90294 -34.82634,23.28467 8.23508,30.02115 -2.89119,58.29923 9.71729,13.41035 28.69287,-36.57027 24.95901,-1.92031 -5.54604,17.68117 -54.84305,18.91846 -30.38699,42.81174 10.10822,0.49341 21.76839,-30.49031 28.28233,-9.00684 -10.89961,12.35895 -45.28949,37.44256 -15.59527,48.09171 11.89735,33.74714 -11.79728,36.61395 -17.04811,-0.76014 -38.2886,64.16149 -7.22135,-9.21933 -29.93213,-16.88571 -13.37333,21.48814 -34.48263,20.18011 -23.43662,-1.16067 23.1704,-4.0877 40.17112,-20.26255 19.51666,-40.75912 -8.73352,-11.62249 -1.74489,-35.38709 12.49848,-17.38906 27.63236,5.62505 1.24262,-35.54769 -5.1971,-47.80324 -7.78804,-16.6527 9.36762,-40.20012 18.66308,-13.41784 z"/><path id="path3901-46" fill="url(#radialGradient4004)" fill-opacity="1" stroke="#0000d7" stroke-dasharray="none" stroke-dashoffset="0" stroke-miterlimit="4" stroke-opacity=".222" stroke-width="1" d="m 192.55319,149.41364 c 0,8.81305 -6.90625,15.95744 -15.42553,15.95744 -8.51929,0 -15.42554,-7.14439 -15.42554,-15.95744 0,-8.81306 6.90625,-15.95745 15.42554,-15.95745 8.51928,0 15.42553,7.14439 15.42553,15.95745 z" transform="matrix(0.84753271,0,0,0.85720403,12.11256,407.79485)"/><path id="path3901-46-0" fill="url(#radialGradient4038)" fill-opacity="1" stroke="#0000d7" stroke-dasharray="none" stroke-dashoffset="0" stroke-miterlimit="4" stroke-opacity=".222" stroke-width="1" d="m 192.55319,149.41364 c 0,8.81305 -6.90625,15.95744 -15.42553,15.95744 -8.51929,0 -15.42554,-7.14439 -15.42554,-15.95744 0,-8.81306 6.90625,-15.95745 15.42554,-15.95745 8.51928,0 15.42553,7.14439 15.42553,15.95745 z" transform="matrix(0.7143874,0,0,0.69516357,35.164364,512.85697)"/><path id="path3901-46-1" fill="url(#radialGradient4080)" fill-opacity="1" stroke="#0000d7" stroke-dasharray="none" stroke-dashoffset="0" stroke-miterlimit="4" stroke-opacity=".222" stroke-width="1" d="m 192.55319,149.41364 c 0,8.81305 -6.90625,15.95744 -15.42553,15.95744 -8.51929,0 -15.42554,-7.14439 -15.42554,-15.95744 0,-8.81306 6.90625,-15.95745 15.42554,-15.95745 8.51928,0 15.42553,7.14439 15.42553,15.95745 z" transform="matrix(1.0475194,0,0,1.0838577,-19.587194,292.0148)"/><path id="path3893-7" fill="url(#linearGradient4114)" fill-opacity="1" stroke="#000" stroke-linecap="butt" stroke-linejoin="miter" stroke-opacity=".582" stroke-width="1" d="m 275.23227,748.65914 c 13.16961,-20.35158 -30.28816,-51.1219 5.18574,-53.00269 20.44267,8.17232 21.18119,35.01403 15.38211,52.90294 -34.82634,23.28467 8.23508,30.02115 -2.89119,58.29923 9.71729,13.41035 28.69287,-36.57027 24.95901,-1.92031 -5.54604,17.68117 -54.84305,18.91846 -30.38699,42.81174 10.10822,0.49341 21.76839,-30.49031 28.28233,-9.00684 -10.89961,12.35895 -45.28949,37.44256 -15.59527,48.09171 11.89735,33.74714 -11.79728,36.61395 -17.04811,-0.76014 -38.2886,64.16149 -7.22135,-9.21933 -29.93213,-16.88571 -13.37333,21.48814 -34.48263,20.18011 -23.43662,-1.16067 23.1704,-4.0877 40.17112,-20.26255 19.51666,-40.75912 -8.73352,-11.62249 -1.74489,-35.38709 12.49848,-17.38906 27.63236,5.62505 1.24262,-35.54769 -5.1971,-47.80324 -7.78804,-16.6527 9.36762,-40.20012 18.66308,-13.41784 z"/></g></svg>