<svg xmlns="http://www.w3.org/2000/svg" xmlns:svg="http://www.w3.org/2000/svg" xmlns:xlink="http://www.w3.org/1999/xlink" id="svg4341" width="100%" height="100%" version="1.1" viewBox="0 0 18.138 18.435"><defs id="defs4343"><radialGradient id="radialGradient4481-8" cx="12.5" cy="2.335" r="9.962" gradientTransform="matrix(0.99167,0.0041626,-0.0041976,0.99999,0.11387,-0.052012)" gradientUnits="userSpaceOnUse"><stop id="stop3773-2-1" offset="0" stop-color="#fff" stop-opacity="1"/><stop id="stop3775-4-5" offset="1" stop-color="#0f0" stop-opacity="1"/></radialGradient><radialGradient id="radialGradient3004" cx="12.5" cy="2.335" r="9.962" gradientTransform="matrix(0.84375364,0.69785186,-0.70370683,0.85083259,10.759969,1008.7592)" gradientUnits="userSpaceOnUse" xlink:href="#radialGradient4481-8"/></defs><g id="layer1" transform="translate(-126.09479,-661.46043)"><g id="layer1-6" display="inline" opacity="1" transform="matrix(-0.84261,0.026204,0.026204,0.84261,119.57,-195.39)"><path font-size="medium" style="text-indent:0;text-align:start;line-height:normal;text-transform:none;block-progression:tb;marker:none;-inkscape-font-specification:Sans" id="path3769-2-9" fill="#000" fill-opacity="1" stroke="none" stroke-dasharray="none" stroke-miterlimit="4" stroke-width="1" d="m 12.428696,1016.5469 c -2.7897632,0.2758 -5.7173707,1.3328 -7.4524778,3.8055 -3.4133994,4.8645 -3.1031276,11.4508 1.5685275,15.2817 4.6716573,3.8309 12.0081943,3.8266 15.4062503,-1.5313 3.235714,-5.1019 3.140405,-11.5753 -1.53125,-15.4062 -2.335828,-1.9154 -5.201287,-2.4255 -7.99105,-2.1497 z m -0.479277,1.1001 c 2.533001,-0.2505 5.485832,0.5467 7.612712,2.2907 4.253761,3.4883 3.17009,11.1991 1.302288,13.3036 -3.65161,4.1144 -9.245577,4.7645 -13.4993361,1.2762 -3.5265103,-3.9223 -4.7965483,-8.9252 -1.3083156,-13.179 1.7441163,-2.1268 3.3596507,-3.441 5.8926517,-3.6915 z" baseline-shift="baseline" color="#000" direction="ltr" display="inline" enable-background="accumulate" font-family="Sans" font-stretch="normal" font-style="normal" font-variant="normal" font-weight="normal" letter-spacing="normal" opacity="1" overflow="visible" text-anchor="start" text-decoration="none" visibility="visible" word-spacing="normal" writing-mode="lr-tb"/><path id="path5116" fill="#10ff00" fill-opacity="1" fill-rule="nonzero" stroke="#000" stroke-dasharray="none" stroke-miterlimit="4" stroke-opacity="1" stroke-width=".869" d="m 17.337924,8.7607336 a 8.6342859,8.6342859 0 1 1 -17.26857185,0 8.6342859,8.6342859 0 1 1 17.26857185,0 z" transform="matrix(-1.161834,0.03613142,0.03539102,1.138026,23.470545,1016.9995)"/></g></g><metadata id="metadata11"/></svg>