<svg xmlns="http://www.w3.org/2000/svg" xmlns:svg="http://www.w3.org/2000/svg" xmlns:xlink="http://www.w3.org/1999/xlink" id="svg2" width="808.642" height="534.285" version="1.1"><defs id="defs4"><linearGradient id="linearGradient3928"><stop id="stop3930" offset="0" stop-color="#009737" stop-opacity="1"/><stop id="stop3932" offset="1" stop-color="#08451a" stop-opacity="0"/></linearGradient><linearGradient id="linearGradient3908"><stop id="stop3910" offset="0" stop-color="#00db37" stop-opacity="1"/><stop id="stop3912" offset="1" stop-color="#08451a" stop-opacity="1"/></linearGradient><linearGradient id="linearGradient3916" x1="516.784" x2="520.253" y1="512.257" y2="629.541" gradientTransform="matrix(1,0,0,1.082769,-2,-38.333309)" gradientUnits="userSpaceOnUse" xlink:href="#linearGradient3908"/><linearGradient id="linearGradient3935" x1="406.907" x2="624.025" y1="1039.382" y2="1171.481" gradientTransform="translate(-5.753086,-567.90123)" gradientUnits="userSpaceOnUse" xlink:href="#linearGradient3908"/></defs><metadata id="metadata7"/><g id="layer2" display="inline" transform="translate(-118.98765,-103.35374)"><rect id="rect3902" width="809.721" height="398.765" x="119.712" y="103.354" fill="#00b1eb" fill-opacity="1" stroke="none"/><path id="path3906" fill="url(#linearGradient3916)" fill-opacity="1" stroke="none" d="m 118.94629,494.9997 c 17.28395,-6.68376 128.95099,-13.90327 153.12778,-15.05223 15.90361,-0.75579 27.24024,-14.53943 44.44444,-14.70427 135.444,-1.29771 322.22223,-4.01025 346.91359,0 24.69135,4.01026 27.16049,14.70427 59.25925,16.04103 72.31618,-0.16568 135.95507,1.58146 206.43217,20.36555 l -0.47729,135.87733 -809.65858,0.1571 z"/><path id="path3918" fill="url(#linearGradient3935)" fill-opacity="1" stroke="#000" stroke-linecap="butt" stroke-linejoin="miter" stroke-opacity="1" stroke-width="1" d="m 480.66666,463.84757 c 12.34568,16.0494 4.93827,3.7037 8.64198,28.3951 4.03316,26.8877 20.98765,29.6295 55.55556,39.5062 32.6135,13.869 54.78158,62.25939 48.38678,105.75749 0,0 58.11182,15.12844 55.81488,-3.24706 -9.8571,-70.7307 -37.94233,-112.74913 -101.73253,-133.37473 -18.51852,-8.6419 -14.81482,-35.8024 -14.81482,-35.8024 z"/><path id="path3939" fill="#feffff" fill-opacity="1" stroke="none" d="m 562.87878,166.06418 c 14.39394,15.90909 37.12122,-9.09091 51.51516,-12.87878 14.39393,-3.78788 6.81818,0.75757 28.0303,0.75757 21.21212,0 68.18182,-23.48485 90.90909,-27.27273 22.52985,-3.75498 71.21212,-1.51515 71.21212,-1.51515 0,0 -18.93939,1.51515 -3.0303,5.30303 15.90909,3.78788 57.86986,9.96874 83.33333,4.54546 30.4192,-6.47876 3.0303,-12.87879 12.87879,-18.18182 9.84848,-5.30303 11.36364,-3.0303 15.90909,-3.78788 4.54545,-0.75758 -12.4267,-4.32439 -31.06061,0.75758 -16.66666,4.54545 -15.18247,12.77292 -27.27272,12.87878 -12.09025,0.10586 -25.08148,-9.04316 -38.63636,-17.42424 -13.55488,-8.38108 -20.37982,-2.33252 -45.45455,0 -32.57576,3.0303 -69.69697,10.60606 -95.45454,15.90909 -25.81097,5.31402 -19.23973,10.34386 -26.51516,9.84848 -29.16801,-1.98601 -88.06593,10.44225 -86.36364,31.06061 z"/><path id="path3942" fill="#2c900c" fill-opacity="1" stroke="#000" stroke-dasharray="none" stroke-linecap="butt" stroke-linejoin="miter" stroke-miterlimit="4" stroke-opacity="1" stroke-width="1.5" d="m 681.81818,277.42782 c 21.21212,-0.75758 30.30303,-0.75758 34.09091,-8.33334 3.78788,-7.57575 -18.93939,-40.90909 -15.15152,-52.27272 3.78788,-11.36364 16.66667,-12.12121 31.81819,-25.75758 15.15151,-13.63636 15.90909,-24.24242 46.96969,-25 31.06061,-0.75757 31.81819,18.9394 31.81819,18.9394 0,0 1.51515,2.27272 12.87878,4.54545 11.36364,2.27273 40.90909,-0.75758 49.24243,17.42424 8.33333,18.18182 -0.75758,52.27273 -0.75758,52.27273 0,0 43.9394,28.78788 40.90909,66.66667 -3.0303,37.87878 -35.60606,33.33333 -35.60606,33.33333 0,0 -0.75757,11.36364 -21.21212,18.18182 -20.45454,6.81818 -33.33333,0.75757 -33.33333,0.75757 0,0 -37.12121,7.57576 -63.63637,11.36364 -26.51515,3.78788 -31.81818,2.27273 -46.96969,-6.81818 -15.15152,-9.09091 -38.63637,-28.78788 -43.9394,-48.48485 -5.30303,-19.69697 0,-47.72727 1.51515,-48.48485 1.51516,-0.75757 11.36364,-8.33333 11.36364,-8.33333 z"/><path id="path3944" fill="none" stroke="#000" stroke-linecap="butt" stroke-linejoin="miter" stroke-opacity="1" stroke-width="1" d="m 873.48485,259.246 c -6.81818,23.48485 -21.9697,21.9697 -21.9697,21.9697"/><path id="path3946" fill="none" stroke="#000" stroke-linecap="butt" stroke-linejoin="miter" stroke-opacity="1" stroke-width="1" d="m 879.54545,360.76115 c -9.84848,0 -15.90909,0 -15.90909,0"/><path id="path3948" fill="none" stroke="#000" stroke-linecap="butt" stroke-linejoin="miter" stroke-opacity="1" stroke-width="1" d="m 798.48485,372.88236 c 0,0 13.63636,3.78788 24.24242,6.06061 12.87879,-1.51515 23.48485,-4.54545 23.48485,-4.54545"/><path id="path3954" fill="#7a5801" fill-opacity="1" stroke="none" d="m 745.45454,335.76115 17.42425,8.33333 19.69697,-8.33333 c 0,0 -9.84849,45.45454 -9.84849,73.48485 0,28.03021 5.30303,71.96966 5.30303,71.96966 l -42.42424,0 c 0,0 9.95476,-39.50864 12.87879,-68.93936 3.09128,-31.11417 -3.03031,-76.51515 -3.03031,-76.51515 z"/><path id="path3950" fill="none" stroke="#000" stroke-dasharray="none" stroke-linecap="butt" stroke-linejoin="miter" stroke-miterlimit="4" stroke-opacity="1" stroke-width="1.5" d="m 736.36364,481.21566 c 12.12121,-46.2121 12.87879,-97.72723 12.87879,-114.3939 0,-16.66667 -2.27273,-32.57576 -2.27273,-32.57576"/><path id="path3952" fill="none" stroke="#000" stroke-dasharray="none" stroke-linecap="butt" stroke-linejoin="miter" stroke-miterlimit="4" stroke-opacity="1" stroke-width="1.5" d="m 778.78788,481.97326 c -6.06061,-39.3939 -8.33333,-94.69696 -3.0303,-118.93938 5.30303,-24.24243 7.57575,-28.0303 7.57575,-28.0303"/></g><g id="layer3" display="inline" transform="translate(-118.98765,-103.35374)"><rect id="rect3051" width="293.069" height="182.178" x="345.545" y="281.718" fill="#cfc437" fill-opacity="1" stroke="#020000" stroke-dasharray="none" stroke-dashoffset="0" stroke-miterlimit="4" stroke-opacity="1" stroke-width="1.5" display="inline" ry="0"/><rect id="rect3821" width="60.396" height="44.554" x="401.98" y="296.57" fill="#fff" fill-opacity="1" stroke="#020000" stroke-dasharray="none" stroke-dashoffset="0" stroke-miterlimit="4" stroke-opacity="1" stroke-width="1.5" display="inline"/><rect id="rect3821-8" width="60.396" height="44.554" x="518.297" y="295.065" fill="#fff" fill-opacity="1" stroke="#020000" stroke-dasharray="none" stroke-dashoffset="0" stroke-miterlimit="4" stroke-opacity="1" stroke-width="1.5" display="inline"/><rect id="rect3821-4" width="62.376" height="52.475" x="551.98" y="382.213" fill="#fff" fill-opacity="1" stroke="#020000" stroke-dasharray="none" stroke-dashoffset="0" stroke-miterlimit="4" stroke-opacity="1" stroke-width="1.5" display="inline"/><rect id="rect3821-6" width="89.109" height="81.188" x="363.861" y="382.213" fill="#a9945d" fill-opacity="1" stroke="#020000" stroke-dasharray="none" stroke-dashoffset="0" stroke-miterlimit="4" stroke-opacity="1" stroke-width="1.5" display="inline"/><rect id="rect3821-1" width="52.475" height="83.168" x="479.703" y="380.233" fill="#a55a2b" fill-opacity="1" stroke="#020000" stroke-dasharray="none" stroke-dashoffset="0" stroke-miterlimit="4" stroke-opacity="1" stroke-width="1.5" display="inline"/><rect id="rect3821-5" width="25.743" height="59.406" x="556.931" y="173.302" fill="#cfc437" fill-opacity="1" stroke="#020000" stroke-dasharray="none" stroke-dashoffset="0" stroke-miterlimit="4" stroke-opacity="1" stroke-width="1.5" display="inline"/><path id="path3872" fill="#be3538" fill-opacity="1" stroke="#000" stroke-dasharray="none" stroke-linecap="butt" stroke-linejoin="miter" stroke-miterlimit="4" stroke-opacity="1" stroke-width="1.5" d="M 346.01227,281.5178 497.54601,142.86749 638.65031,281.5178 z" display="inline"/><path id="path3874" fill="#fff" fill-opacity="1" stroke="#000" stroke-linecap="butt" stroke-linejoin="miter" stroke-opacity="1" stroke-width="1" d="m 489.43966,392.80138 -0.21552,32.32759 35.99138,-32.54311 z" display="inline"/><path id="path3874-4" fill="#fff" fill-opacity="1" stroke="#000" stroke-linecap="butt" stroke-linejoin="miter" stroke-opacity="1" stroke-width="1" d="m 489.76293,459.71948 -0.21552,-31.68104 35.99138,31.89656 z" display="inline"/><path id="path3874-6" fill="#fff" fill-opacity="1" stroke="#000" stroke-linecap="butt" stroke-linejoin="miter" stroke-opacity="1" stroke-width="1" d="m 497.51087,426.16805 25.00466,23.24832 -0.20653,-45.93586 z" display="inline"/><path id="path3937" fill="#040505" fill-opacity="1" stroke="none" d="m 414.81482,447.18091 c 0,3.06825 -3.59277,5.55555 -8.02469,5.55555 -4.43191,0 -8.02469,-2.4873 -8.02469,-5.55555 0,-3.06825 3.59278,-5.55556 8.02469,-5.55556 4.43192,0 8.02469,2.48731 8.02469,5.55556 z" display="inline" transform="translate(2,4)"/></g></svg>