<svg xmlns="http://www.w3.org/2000/svg" xmlns:svg="http://www.w3.org/2000/svg" id="svg2" width="800" height="520" version="1.1"><metadata id="metadata7"/><g id="layer1" display="inline" transform="translate(-146.05264,-456.94113)"><rect id="rect4085" width="800" height="520" x="146.053" y="456.941" fill="#b82900" fill-opacity="1" stroke="none"/><path id="path3997" fill="#f6fb09" fill-opacity="1" stroke="none" d="m 378.94738,174.35764 -6.61762,-2.46876 -5.89125,3.89628 0.30297,-7.05663 -5.52608,-4.39889 6.80488,-1.89248 2.47594,-6.61494 3.90268,5.88701 7.05629,0.31064 -4.39289,5.53085 z" transform="translate(59.210526,322.08349)"/><path id="path3997-8" fill="#f6fb09" fill-opacity="1" stroke="none" d="m 378.94738,174.35764 -6.61762,-2.46876 -5.89125,3.89628 0.30297,-7.05663 -5.52608,-4.39889 6.80488,-1.89248 2.47594,-6.61494 3.90268,5.88701 7.05629,0.31064 -4.39289,5.53085 z" transform="matrix(1.9751507,0,0,2.02163,28.398923,168.81321)"/><path id="path3997-7" fill="#f6fb09" fill-opacity="1" stroke="none" d="m 378.94738,174.35764 -6.61762,-2.46876 -5.89125,3.89628 0.30297,-7.05663 -5.52608,-4.39889 6.80488,-1.89248 2.47594,-6.61494 3.90268,5.88701 7.05629,0.31064 -4.39289,5.53085 z" transform="matrix(1.1950301,0,0,1.2306906,266.11155,480.87492)"/><path id="path3997-4" fill="#f6fb09" fill-opacity="1" stroke="none" d="m 378.94738,174.35764 -6.61762,-2.46876 -5.89125,3.89628 0.30297,-7.05663 -5.52608,-4.39889 6.80488,-1.89248 2.47594,-6.61494 3.90268,5.88701 7.05629,0.31064 -4.39289,5.53085 z" transform="translate(443.13839,453.00586)"/><path id="path3997-0" fill="#f6fb09" fill-opacity="1" stroke="none" d="m 378.94738,174.35764 -6.61762,-2.46876 -5.89125,3.89628 0.30297,-7.05663 -5.52608,-4.39889 6.80488,-1.89248 2.47594,-6.61494 3.90268,5.88701 7.05629,0.31064 -4.39289,5.53085 z" transform="matrix(1.8126256,0,0,1.7250277,171.97392,520.95148)"/><path id="path3997-6" fill="#f6fb09" fill-opacity="1" stroke="none" d="m 378.94738,174.35764 -6.61762,-2.46876 -5.89125,3.89628 0.30297,-7.05663 -5.52608,-4.39889 6.80488,-1.89248 2.47594,-6.61494 3.90268,5.88701 7.05629,0.31064 -4.39289,5.53085 z" transform="translate(-61.466875,662.87429)"/><path id="path3997-3" fill="#f6fb09" fill-opacity="1" stroke="none" d="m 378.94738,174.35764 -6.61762,-2.46876 -5.89125,3.89628 0.30297,-7.05663 -5.52608,-4.39889 6.80488,-1.89248 2.47594,-6.61494 3.90268,5.88701 7.05629,0.31064 -4.39289,5.53085 z" transform="translate(-155.54582,570.11112)"/><path id="path3997-82" fill="#f6fb09" fill-opacity="1" stroke="none" d="m 378.94738,174.35764 -6.61762,-2.46876 -5.89125,3.89628 0.30297,-7.05663 -5.52608,-4.39889 6.80488,-1.89248 2.47594,-6.61494 3.90268,5.88701 7.05629,0.31064 -4.39289,5.53085 z" transform="matrix(2.267696,0,0,2.1534532,-486.48344,263.4038)"/><path id="path3997-9" fill="#f6fb09" fill-opacity="1" stroke="none" d="m 378.94738,174.35764 -6.61762,-2.46876 -5.89125,3.89628 0.30297,-7.05663 -5.52608,-4.39889 6.80488,-1.89248 2.47594,-6.61494 3.90268,5.88701 7.05629,0.31064 -4.39289,5.53085 z" transform="matrix(1.7801206,0,0,1.6920719,-436.67949,241.2183)"/></g></svg>