<svg xmlns="http://www.w3.org/2000/svg" xmlns:svg="http://www.w3.org/2000/svg" id="svg10790" width="28.957" height="37.708" version="1.0"><metadata id="metadata10795"/><g id="layer1" transform="translate(-9.5911334,-37.855515)"><g id="g22156" transform="matrix(0.60002004,0.61546023,-0.5571973,0.65452627,9.1375114,41.402273)"><path id="path21267" fill="red" fill-opacity="1" fill-rule="evenodd" stroke="#000" stroke-linecap="butt" stroke-linejoin="miter" stroke-opacity="1" stroke-width="1" d="M 20.980236,5.9570105 9.9380067,-2.3246617 4.4168919,-5.0852191 l 4.0488175,-5.7051519 7.7295606,-4.232855 8.46571,9.017821 4.600929,4.2328548 8.281672,-6.6253378 2.024409,2.2084459 0.552111,3.4967061 -2.392483,16.011233 -18.403716,1.472297 -4.048818,-2.57652 1.288261,-2.7605574 4.416891,-3.4967061 z"/><path id="path20377" fill="#000" fill-opacity="1" fill-rule="evenodd" stroke="none" d="M 17.486149,-17.96875 7.734375,-12.357686 -0.54510135,-4.90625 9.5782095,0.06942568 17.125,5.78125 11.40625,11.46875 16.75,17 39.1875,15.34375 42.875,-6 38.65625,-11.15625 c 0,0 -7.177028,6.2396113 -8.833361,6.2396115 -1.656335,0 -12.336739,-13.0521115 -12.33674,-13.0521115 z m -1.298649,5.875 8.843666,10.3195101 4.607685,2.40278719 6.423649,-5.72229729 1.84375,-0.71875 0.9375,2.75 L 38.083361,0.26047297 35.902703,11.670186 26.5,12.78125 19.125,13.125 17.65625,12.03125 23.9375,7.8125 22.09375,2.84375 7.53125,-5.8125 16.1875,-12.09375 z"/></g></g></svg>