<svg xmlns="http://www.w3.org/2000/svg" xmlns:svg="http://www.w3.org/2000/svg" xmlns:xlink="http://www.w3.org/1999/xlink" id="svg3369" width="800" height="520" version="1.1"><defs id="defs3371"><linearGradient id="linearGradient3349" x1="345.71" x2="345.71" y1="-241.93" y2="978.18" gradientTransform="matrix(1,0,0,0.95900721,0,-113.4466)" gradientUnits="userSpaceOnUse" xlink:href="#linearGradient4103"/><linearGradient id="linearGradient4103"><stop id="stop4105" offset="0" stop-color="#00acf4"/><stop id="stop4107" offset="1" stop-color="#a6e5ff"/></linearGradient><linearGradient id="linearGradient3351" x1="404.28" x2="428.52" y1="543.41" y2="1831.1" gradientUnits="userSpaceOnUse" xlink:href="#linearGradient4263"/><linearGradient id="linearGradient4263" x1="404.28" x2="428.52" y1="543.41" y2="1831.1" gradientUnits="userSpaceOnUse"><stop id="stop4240" offset="0" stop-color="#55a800"/><stop id="stop4242" offset="1" stop-color="#74e400"/></linearGradient><linearGradient id="linearGradient3353" x1="-242.86" x2="-248.57" y1="405.22" y2="994.64" gradientUnits="userSpaceOnUse" xlink:href="#linearGradient4200"/><linearGradient id="linearGradient4200" x1="-242.86" x2="-248.57" y1="405.22" y2="994.64" gradientUnits="userSpaceOnUse"><stop id="stop4193" offset="0" stop-color="#007900"/><stop id="stop4195" offset="1" stop-color="#008400" stop-opacity="0"/></linearGradient><clipPath id="clipPath4234" clipPathUnits="userSpaceOnUse"><path id="path4236" fill="#9cf000" d="m -1433.2,-115.47 c -11.7,0 -21.1,5.75 -21.1,12.87 v 830.03 c 73.7,-9.9 153.9,-15.06 237.2,-15.06 343.78,0 484.27,44.12 822.81,235.72 342.85,194.01 775.26,461.41 -891.41,464.31 -60.1,0.1 -116.5,-9.4 -168.6,-26 v 151 c 0,7.1 9.4,12.8 21.1,12.8 H 796.1 c 11.67,0 21.04,-5.7 21.04,-12.8 v -1640 c 0,-7.12 -9.37,-12.87 -21.03,-12.87 h -2229.3 z"/></clipPath><linearGradient id="linearGradient3355" x1="-242.86" x2="-242.86" y1="605.09" y2="1096.6" gradientUnits="userSpaceOnUse" xlink:href="#linearGradient4261"/><linearGradient id="linearGradient4261" x1="-242.86" x2="-242.86" y1="605.09" y2="1096.6" gradientUnits="userSpaceOnUse"><stop id="stop4182" offset="0" stop-color="#00a400"/><stop id="stop4184" offset="1" stop-color="#00a400" stop-opacity="0"/></linearGradient><clipPath id="clipPath4253" clipPathUnits="userSpaceOnUse"><path id="path4255" fill="url(#linearGradient4261)" d="m -458.95,-138.33 c -11.65,0 -21.06,5.75 -21.06,12.87 v 1640 c 0,7.2 9.41,12.9 21.06,12.9 h 2229.4 c 11.7,0 21,-5.7 21,-12.9 v -1640 c 0,-7.12 -9.3,-12.87 -21,-12.87 h -2229.4 z"/></clipPath><filter id="filter5183" width="1.261" height="1.596" x="-.13" y="-.298" color-interpolation-filters="sRGB"><feGaussianBlur id="feGaussianBlur5185" stdDeviation="24.826"/></filter><clipPath id="clipPath5677" clipPathUnits="userSpaceOnUse"><rect id="rect5679" width="3599.6" height="1625.5" x="-782.6" y="-231.6" fill="url(#linearGradient4261)" rx="33.341" ry="20.375"/></clipPath><filter id="filter4962" width="1.496" height="1.529" x="-.248" y="-.264" color-interpolation-filters="sRGB"><feGaussianBlur id="feGaussianBlur4964" stdDeviation="57.905"/></filter><radialGradient id="radialGradient3367" cx="-640" cy="-27.638" r="284.2" gradientTransform="matrix(1.3897,0.70717,-0.55543,1.0915,234.03,455.12)" gradientUnits="userSpaceOnUse" xlink:href="#radialGradient4647"/><radialGradient id="radialGradient4647" cx="-640" cy="-27.638" r="284.2" gradientTransform="matrix(1.3897,0.70717,-0.55543,1.0915,234.03,455.12)" gradientUnits="userSpaceOnUse"><stop id="stop4643" offset="0" stop-color="#fcaf3e"/><stop id="stop4645" offset="1" stop-color="#ffce86"/></radialGradient><clipPath id="clipPath5671" clipPathUnits="userSpaceOnUse"><rect id="rect5673" width="3815.5" height="1723" x="-791.16" y="-243.84" fill="url(#linearGradient4261)" rx="35.341" ry="21.597"/></clipPath><clipPath id="clipPath5495" clipPathUnits="userSpaceOnUse"><path id="path5497" fill="#fdfdfd" d="m 1101.1,-136.21 c -48.6,0 -90.3,11.93 -108.92,29.03 -4.27,-0.3 -8.61,-0.46 -13.02,-0.46 -57.89,0 -104.89,26.518 -104.89,59.187 0,28.591 36,52.464 83.79,57.98 14.85,30.919 81.24,54.263 160.94,54.263 90.5,0 164,-30.168 164,-67.344 l -0.1,-1.0821 c 29.3,-9.2319 48.5,-24.502 48.5,-41.775 l -0.4,-4.386 c -5.1,-26.509 -54,-46.62 -113.3,-46.64 -11.5,-22.433 -59.4,-38.773 -116.6,-38.773 z" opacity=".893"/></clipPath><filter id="filter5575" width="1.192" height="1.438" x="-.096" y="-.219" color-interpolation-filters="sRGB"><feGaussianBlur id="feGaussianBlur5577" stdDeviation="18.254"/></filter><clipPath id="clipPath5381" clipPathUnits="userSpaceOnUse"><path id="path5383" fill="#fdfdfd" d="m 66.775,-44.781 c -48.512,0 -90.277,11.93 -108.88,29.029 -4.273,-0.295 -8.614,-0.458 -13.024,-0.458 -57.891,0 -104.88,26.516 -104.88,59.185 0,28.592 35.99,52.465 83.783,57.985 14.848,30.91 81.28,54.26 160.92,54.26 90.557,0 164.05,-30.17 164.05,-67.345 l -0.12,-1.083 c 29.34,-9.232 48.52,-24.501 48.52,-41.774 l -0.42,-4.386 c -5.1,-26.51 -53.97,-46.621 -113.32,-46.641 -11.48,-22.433 -59.41,-38.772 -116.62,-38.772 z" opacity=".893"/></clipPath><filter id="filter5445" width="1.191" height="1.438" x="-.096" y="-.219" color-interpolation-filters="sRGB"><feGaussianBlur id="feGaussianBlur5447" stdDeviation="18.234"/></filter></defs><metadata id="metadata3374"/><g id="layer1" transform="translate(162.85715,-366.64789)"><g id="g3240" transform="matrix(0.48023635,0,0,0.47897726,188.4468,181.23453)"><g id="layer2" transform="matrix(0.73338136,0,0,0.66848576,-195.09857,493.75177)"><rect id="rect2160" width="2271.4" height="983.654" x="-731.43" y="-159.134" fill="url(#linearGradient3349)" rx="21.039" ry="12.33"/><path id="path4202" fill="url(#linearGradient3351)" d="m 480,603.78 c -215.17,0 -379.22,34.24 -506.19,86.41 -139.69,-48.93 -270.22,-63.53 -468.09,-63.53 -83.3,0 -163.48,5.15 -237.16,15.06 v 809.98 c 0,7.1 9.41,12.8 21.06,12.8 h 2229.4 c 11.6,0 21,-5.7 21,-12.8 V 744.28 c -167.7,0.93 -334.2,3.18 -499.1,6.72 C 872.85,687.12 736.86,603.78 480.02,603.78 z"/><path id="path4113" fill="url(#linearGradient3353)" d="m 505.71,890.93 c 273.66,51.38 3923.5,427.77 -745.71,375.67 -4661.1,-52.1 -787.9,-313.34 -700,-381.38 140,-108.33 353.33,-195.71 697.14,-195.71 343.82,0 471.08,149.32 748.57,201.42 z" clip-path="url(#clipPath4234)" transform="translate(722.86,-85.714)"/><path id="path4111" fill="url(#linearGradient3355)" d="m 580,925.22 c 342.86,194.08 775.2,461.38 -891.43,464.28 -343.82,0.6 -565.51,-312.7 -565.71,-464.28 -0.19,-148.02 290.47,-235.71 634.28,-235.71 343.82,0 484.32,44.11 822.86,235.71 z" clip-path="url(#clipPath4253)" transform="translate(-251.43,-62.857)"/></g><path id="path5189" d="m 66.775,-44.781 c -48.512,0 -90.277,11.93 -108.88,29.029 -4.273,-0.295 -8.614,-0.458 -13.024,-0.458 -57.891,0 -104.88,26.516 -104.88,59.185 0,28.592 35.99,52.465 83.783,57.985 14.848,30.91 81.28,54.26 160.92,54.26 90.557,0 164.05,-30.17 164.05,-67.345 l -0.12,-1.083 c 29.34,-9.232 48.52,-24.501 48.52,-41.774 l -0.42,-4.386 c -5.1,-26.51 -53.97,-46.621 -113.32,-46.641 -11.48,-22.433 -59.41,-38.772 -116.62,-38.772 z" filter="url(#filter5183)" opacity=".031" transform="matrix(-1.0267339,0,0,0.66848576,-66.038106,1089.66)"/><path id="path4649" fill="#f57900" d="m -360,-27.638 a 280,262.86 0 1 1 -1.04,-22.583" clip-path="url(#clipPath5677)" filter="url(#filter4962)" opacity=".289" transform="matrix(0.46278563,0,0,0.42183457,-369.34263,484.80008)"/><path id="path5187" fill="#fdfdfd" d="m 66.775,-44.781 c -48.512,0 -90.277,11.93 -108.88,29.029 -4.273,-0.295 -8.614,-0.458 -13.024,-0.458 -57.891,0 -104.88,26.516 -104.88,59.185 0,28.592 35.99,52.465 83.783,57.985 14.848,30.91 81.28,54.26 160.92,54.26 90.557,0 164.05,-30.17 164.05,-67.345 l -0.12,-1.083 c 29.34,-9.232 48.52,-24.501 48.52,-41.774 l -0.42,-4.386 c -5.1,-26.51 -53.97,-46.621 -113.32,-46.641 -11.48,-22.433 -59.41,-38.772 -116.62,-38.772 z" clip-path="url(#clipPath5381)" filter="url(#filter5445)" transform="matrix(-1.1092392,0,0,0.84035344,-2.9793583,440.49097)"/><path id="path7786" fill="#1e9e00" d="m -601.24515,1230.1557 c -3.07285,1.0027 -3.83557,3.1419 -6.41708,6.4174 -3.35155,5.6153 -10.13533,22.4611 -9.37261,25.2019 1.01207,5.0138 9.54129,-23.1296 15.78969,-31.6193 z m -57.59977,12.3001 c 7.28249,20.2551 7.96454,21.7259 13.64824,21.4584 -1.21008,-3.7435 -4.67164,-6.8185 -7.09913,-10.3615 -2.58884,-3.7435 -3.99693,-10.8294 -6.54911,-11.0969 z m 25.59502,0.7354 c -8.28721,13.2359 -9.1746,17.9822 -7.77384,19.453 2.55216,1.4706 1.9948,-2.273 7.77384,-19.453 z m 15.50369,2.8076 c -2.0388,-0.468 -3.52757,4.0778 -4.33429,7.8212 -2.07547,9.5595 -2.09747,8.2225 -0.70405,9.0246 1.9288,1.1364 1.91413,-8.6903 5.03834,-16.8458 z m 13.72156,-0.869 c -2.13414,0.067 -3.24156,3.944 -4.74498,7.5539 -1.50344,6.8185 -5.88171,11.03 -2.79418,11.2973 3.07286,0.2674 5.19233,-10.7625 7.53916,-18.8512 z m -22.88883,2.6071 c -6.73245,10.9631 -8.16987,14.3724 -5.46369,14.8404 1.7381,0.2673 1.87745,-2.4066 3.87225,-6.9524 1.27607,-2.8745 2.87485,-5.4146 1.59144,-7.888 z" opacity=".698"/><g id="g7640" transform="matrix(0.73338134,0,0,0.66848576,-210.81418,249.27984)"><path id="path4271" fill="#ad7fa8" d="m -485.71,1150.9 a 17.145,15.715833 0 1 1 -34.29,0 17.145,15.715833 0 1 1 34.29,0 z" transform="matrix(1.75,0,0,1.0364,432.13,492.03)"/><path id="path5606" fill="#ce5c00" d="m 1804.4,906.06 c -11.2,12.15 -38.7,1.03 -54.3,5.05 -16.2,4.14 -33.6,37.84 -50,32.92 -15.8,-4.77 -26,-42.31 -37.5,-54.1 -12,-12.19 -36.3,-9.74 -41.5,-26.09 -5,-15.82 16.5,-41.45 20.8,-57.46 4.5,-16.54 -7,-44.39 5,-56.19 11.7,-11.42 37.4,4.45 52.9,0.03 15.9,-4.56 32.9,-31.99 49.4,-27.93 16,3.93 26.5,32.07 38.2,43.39 12.1,11.7 44.7,15.14 50.2,31.07 5.4,15.42 -27.4,33.47 -30.7,49.65 -3.4,16.73 9,47.1 -2.5,59.66 z" transform="matrix(0.15395,0,0,0.095273,-814.71,1439.1)"/><path id="path5604" fill="#f57900" d="m 1804.4,906.06 c -11.3,12.04 -32.9,14.23 -48.9,18.45 -16.1,4.22 -39.6,24.46 -55.4,19.52 -15.8,-4.95 -30.2,-29.31 -41.7,-40.91 -11.5,-11.6 -32.4,-23.39 -37.3,-39.28 -4.8,-15.88 10.8,-40.35 14.6,-56.03 3.9,-15.68 -0.5,-46.32 11.2,-57.62 11.8,-11.31 40.9,-4.36 56.2,-9.41 15.3,-5.06 30.2,-22.6 46.1,-18.49 15.9,4.1 30.3,28.79 41.7,40.9 11.5,12.11 41.5,18.07 46.7,33.56 5.2,15.49 -11,40.99 -15.3,56.45 -4.3,15.46 -6.6,40.82 -17.9,52.86 z" transform="matrix(0.19069,0,0,0.097899,-929.81,1473.2)"/><path id="path5600" fill="#fcc916" d="m 1819.2,912.6 c -11,12.75 -42.6,-6.28 -57.7,0.52 -15.2,6.79 -46.4,43.29 -63.1,39.06 -16.6,-4.22 -25,-37.74 -39,-48.3 -14,-10.56 -38.8,-9.13 -45.3,-24.9 -6.5,-15.77 8.6,-52.67 12.5,-69.1 3.9,-16.42 -7.4,-46.45 3.4,-60.05 10.9,-13.59 43.9,-10.84 60.1,-15.36 16.2,-4.53 34.4,-26.18 51.3,-23.38 17,2.8 33.5,29.99 47.6,39.92 14.1,9.92 41,20.93 48.4,36.56 7.5,15.64 -11.2,33.59 -13,50.61 -1.9,17.03 5.8,61.67 -5.2,74.42 z" transform="matrix(0.15563,0,0,0.071967,-784.81,1467.4)"/><path id="path5598" fill="#ad7fa8" d="m 1818.1,909.68 c -11,12.93 -42,-0.39 -57.5,6.12 -15.5,6.52 -42.5,37.82 -59.3,34.13 -16.7,-3.69 -26.4,-35.15 -40.1,-45.84 -13.7,-10.69 -40.4,-12.07 -46.7,-27.95 -6.3,-15.88 10,-47.94 13.5,-64.56 3.5,-16.62 -7.2,-46.18 3.7,-59.65 10.9,-13.46 42.8,-10.26 58.9,-15.35 16.2,-5.09 35.1,-27.18 52,-24.38 17,2.8 31.7,30.33 45.4,40.63 13.8,10.29 41.8,19.39 48.7,35.2 7,15.8 -11.7,36.08 -13.9,53.07 -2.2,16.99 6.2,55.64 -4.7,68.58 z" transform="matrix(0.17538,0,0,0.10368,-869.2,1451.5)"/><path id="path5594" fill="#ce5c00" d="m 1804.4,906.06 c -11.2,12.15 -38.7,1.03 -54.3,5.05 -16.2,4.14 -33.6,37.84 -50,32.92 -15.8,-4.77 -26,-42.31 -37.5,-54.1 -12,-12.19 -36.3,-9.74 -41.5,-26.09 -5,-15.82 16.5,-41.45 20.8,-57.46 4.5,-16.54 -7,-44.39 5,-56.19 11.7,-11.42 37.4,4.45 52.9,0.03 15.9,-4.56 32.9,-31.99 49.4,-27.93 16,3.93 26.5,32.07 38.2,43.39 12.1,11.7 44.7,15.14 50.2,31.07 5.4,15.42 -27.4,33.47 -30.7,49.65 -3.4,16.73 9,47.1 -2.5,59.66 z" transform="matrix(0.24577,0,0,0.14019,-999.92,1454.5)"/><path id="path5592" fill="#3465a4" d="m 1818.1,909.68 c -11,12.93 -42,-0.39 -57.5,6.12 -15.5,6.52 -42.5,37.82 -59.3,34.13 -16.7,-3.69 -26.4,-35.15 -40.1,-45.84 -13.7,-10.69 -40.4,-12.07 -46.7,-27.95 -6.3,-15.88 10,-47.94 13.5,-64.56 3.5,-16.62 -7.2,-46.18 3.7,-59.65 10.9,-13.46 42.8,-10.26 58.9,-15.35 16.2,-5.09 35.1,-27.18 52,-24.38 17,2.8 31.7,30.33 45.4,40.63 13.8,10.29 41.8,19.39 48.7,35.2 7,15.8 -11.7,36.08 -13.9,53.07 -2.2,16.99 6.2,55.64 -4.7,68.58 z" transform="matrix(0.20706,0,0,0.10368,-901.02,1475.8)"/><path id="path5590" fill="#fcaf3e" d="m 1819.2,912.6 c -11,12.75 -42.6,-6.28 -57.7,0.52 -15.2,6.79 -46.4,43.29 -63.1,39.06 -16.6,-4.22 -25,-37.74 -39,-48.3 -14,-10.56 -38.8,-9.13 -45.3,-24.9 -6.5,-15.77 8.6,-52.67 12.5,-69.1 3.9,-16.42 -7.4,-46.45 3.4,-60.05 10.9,-13.59 43.9,-10.84 60.1,-15.36 16.2,-4.53 34.4,-26.18 51.3,-23.38 17,2.8 33.5,29.99 47.6,39.92 14.1,9.92 41,20.93 48.4,36.56 7.5,15.64 -11.2,33.59 -13,50.61 -1.9,17.03 5.8,61.67 -5.2,74.42 z" transform="matrix(0.247,0,0,0.1163,-950.71,1510.2)"/><path id="path5586" fill="#c00" d="m 1804.4,906.06 c -11.2,12.15 -38.7,1.03 -54.3,5.05 -16.2,4.14 -33.6,37.84 -50,32.92 -15.8,-4.77 -26,-42.31 -37.5,-54.1 -12,-12.19 -36.3,-9.74 -41.5,-26.09 -5,-15.82 16.5,-41.45 20.8,-57.46 4.5,-16.54 -7,-44.39 5,-56.19 11.7,-11.42 37.4,4.45 52.9,0.03 15.9,-4.56 32.9,-31.99 49.4,-27.93 16,3.93 26.5,32.07 38.2,43.39 12.1,11.7 44.7,15.14 50.2,31.07 5.4,15.42 -27.4,33.47 -30.7,49.65 -3.4,16.73 9,47.1 -2.5,59.66 z" transform="matrix(0.29168,0,0,0.17227,-979.31,1483.5)"/><path id="path5582" fill="#fcaf3e" d="m 1819.2,912.6 c -11,12.75 -42.6,-6.28 -57.7,0.52 -15.2,6.79 -46.4,43.29 -63.1,39.06 -16.6,-4.22 -25,-37.74 -39,-48.3 -14,-10.56 -38.8,-9.13 -45.3,-24.9 -6.5,-15.77 8.6,-52.67 12.5,-69.1 3.9,-16.42 -7.4,-46.45 3.4,-60.05 10.9,-13.59 43.9,-10.84 60.1,-15.36 16.2,-4.53 34.4,-26.18 51.3,-23.38 17,2.8 33.5,29.99 47.6,39.92 14.1,9.92 41,20.93 48.4,36.56 7.5,15.64 -11.2,33.59 -13,50.61 -1.9,17.03 5.8,61.67 -5.2,74.42 z" transform="matrix(0.28796,0,0,0.13699,-1023.2,1551.2)"/><path id="path5576" fill="#ad7fa8" d="m 1818.1,909.68 c -11,12.93 -42,-0.39 -57.5,6.12 -15.5,6.52 -42.5,37.82 -59.3,34.13 -16.7,-3.69 -26.4,-35.15 -40.1,-45.84 -13.7,-10.69 -40.4,-12.07 -46.7,-27.95 -6.3,-15.88 10,-47.94 13.5,-64.56 3.5,-16.62 -7.2,-46.18 3.7,-59.65 10.9,-13.46 42.8,-10.26 58.9,-15.35 16.2,-5.09 35.1,-27.18 52,-24.38 17,2.8 31.7,30.33 45.4,40.63 13.8,10.29 41.8,19.39 48.7,35.2 7,15.8 -11.7,36.08 -13.9,53.07 -2.2,16.99 6.2,55.64 -4.7,68.58 z" transform="matrix(0.27367,0,0,0.14565,-917.03,1561.6)"/><path id="path5574" fill="#f57900" d="m 1804.4,906.06 c -11.3,12.04 -32.9,14.23 -48.9,18.45 -16.1,4.22 -39.6,24.46 -55.4,19.52 -15.8,-4.95 -30.2,-29.31 -41.7,-40.91 -11.5,-11.6 -32.4,-23.39 -37.3,-39.28 -4.8,-15.88 10.8,-40.35 14.6,-56.03 3.9,-15.68 -0.5,-46.32 11.2,-57.62 11.8,-11.31 40.9,-4.36 56.2,-9.41 15.3,-5.06 30.2,-22.6 46.1,-18.49 15.9,4.1 30.3,28.79 41.7,40.9 11.5,12.11 41.5,18.07 46.7,33.56 5.2,15.49 -11,40.99 -15.3,56.45 -4.3,15.46 -6.6,40.82 -17.9,52.86 z" transform="matrix(0.32477,0,0,0.17153,-1043.5,1544.4)"/><path id="path5578" fill="#fcc916" d="m 1819.2,912.6 c -11,12.75 -42.6,-6.28 -57.7,0.52 -15.2,6.79 -46.4,43.29 -63.1,39.06 -16.6,-4.22 -25,-37.74 -39,-48.3 -14,-10.56 -38.8,-9.13 -45.3,-24.9 -6.5,-15.77 8.6,-52.67 12.5,-69.1 3.9,-16.42 -7.4,-46.45 3.4,-60.05 10.9,-13.59 43.9,-10.84 60.1,-15.36 16.2,-4.53 34.4,-26.18 51.3,-23.38 17,2.8 33.5,29.99 47.6,39.92 14.1,9.92 41,20.93 48.4,36.56 7.5,15.64 -11.2,33.59 -13,50.61 -1.9,17.03 5.8,61.67 -5.2,74.42 z" transform="matrix(0.24385,0,0,0.11334,-919.69,1483)"/><path id="path5580" fill="#ce5c00" d="m 1804.4,906.06 c -11.2,12.15 -38.7,1.03 -54.3,5.05 -16.2,4.14 -33.6,37.84 -50,32.92 -15.8,-4.77 -26,-42.31 -37.5,-54.1 -12,-12.19 -36.3,-9.74 -41.5,-26.09 -5,-15.82 16.5,-41.45 20.8,-57.46 4.5,-16.54 -7,-44.39 5,-56.19 11.7,-11.42 37.4,4.45 52.9,0.03 15.9,-4.56 32.9,-31.99 49.4,-27.93 16,3.93 26.5,32.07 38.2,43.39 12.1,11.7 44.7,15.14 50.2,31.07 5.4,15.42 -27.4,33.47 -30.7,49.65 -3.4,16.73 9,47.1 -2.5,59.66 z" transform="matrix(0.19658,0,0,0.098481,-965.21,1431.8)"/><path id="path5584" fill="#ce5c00" d="m 1804.4,906.06 c -11.2,12.15 -38.7,1.03 -54.3,5.05 -16.2,4.14 -33.6,37.84 -50,32.92 -15.8,-4.77 -26,-42.31 -37.5,-54.1 -12,-12.19 -36.3,-9.74 -41.5,-26.09 -5,-15.82 16.5,-41.45 20.8,-57.46 4.5,-16.54 -7,-44.39 5,-56.19 11.7,-11.42 37.4,4.45 52.9,0.03 15.9,-4.56 32.9,-31.99 49.4,-27.93 16,3.93 26.5,32.07 38.2,43.39 12.1,11.7 44.7,15.14 50.2,31.07 5.4,15.42 -27.4,33.47 -30.7,49.65 -3.4,16.73 9,47.1 -2.5,59.66 z" transform="matrix(0.30808,0,0,0.14981,-973.02,1521.1)"/><path id="path5588" fill="#f57900" d="m 1804.4,906.06 c -11.2,12.15 -38.7,1.03 -54.3,5.05 -16.2,4.14 -33.6,37.84 -50,32.92 -15.8,-4.77 -26,-42.31 -37.5,-54.1 -12,-12.19 -36.3,-9.74 -41.5,-26.09 -5,-15.82 16.5,-41.45 20.8,-57.46 4.5,-16.54 -7,-44.39 5,-56.19 11.7,-11.42 37.4,4.45 52.9,0.03 15.9,-4.56 32.9,-31.99 49.4,-27.93 16,3.93 26.5,32.07 38.2,43.39 12.1,11.7 44.7,15.14 50.2,31.07 5.4,15.42 -27.4,33.47 -30.7,49.65 -3.4,16.73 9,47.1 -2.5,59.66 z" transform="matrix(0.23593,0,0,0.1434,-944.57,1513.6)"/><path id="path5596" fill="#ad7fa8" d="m 1818.1,909.68 c -11,12.93 -42,-0.39 -57.5,6.12 -15.5,6.52 -42.5,37.82 -59.3,34.13 -16.7,-3.69 -26.4,-35.15 -40.1,-45.84 -13.7,-10.69 -40.4,-12.07 -46.7,-27.95 -6.3,-15.88 10,-47.94 13.5,-64.56 3.5,-16.62 -7.2,-46.18 3.7,-59.65 10.9,-13.46 42.8,-10.26 58.9,-15.35 16.2,-5.09 35.1,-27.18 52,-24.38 17,2.8 31.7,30.33 45.4,40.63 13.8,10.29 41.8,19.39 48.7,35.2 7,15.8 -11.7,36.08 -13.9,53.07 -2.2,16.99 6.2,55.64 -4.7,68.58 z" transform="matrix(0.22609,0,0,0.13366,-988.14,1488)"/><path id="path5602" fill="#f57900" d="m 1804.4,906.06 c -11.3,12.04 -32.9,14.23 -48.9,18.45 -16.1,4.22 -39.6,24.46 -55.4,19.52 -15.8,-4.95 -30.2,-29.31 -41.7,-40.91 -11.5,-11.6 -32.4,-23.39 -37.3,-39.28 -4.8,-15.88 10.8,-40.35 14.6,-56.03 3.9,-15.68 -0.5,-46.32 11.2,-57.62 11.8,-11.31 40.9,-4.36 56.2,-9.41 15.3,-5.06 30.2,-22.6 46.1,-18.49 15.9,4.1 30.3,28.79 41.7,40.9 11.5,12.11 41.5,18.07 46.7,33.56 5.2,15.49 -11,40.99 -15.3,56.45 -4.3,15.46 -6.6,40.82 -17.9,52.86 z" transform="matrix(0.19069,0,0,0.097899,-909.09,1431.8)"/><path id="path7636" fill="#fcaf3e" d="m 1819.2,912.6 c -11,12.75 -42.6,-6.28 -57.7,0.52 -15.2,6.79 -46.4,43.29 -63.1,39.06 -16.6,-4.22 -25,-37.74 -39,-48.3 -14,-10.56 -38.8,-9.13 -45.3,-24.9 -6.5,-15.77 8.6,-52.67 12.5,-69.1 3.9,-16.42 -7.4,-46.45 3.4,-60.05 10.9,-13.59 43.9,-10.84 60.1,-15.36 16.2,-4.53 34.4,-26.18 51.3,-23.38 17,2.8 33.5,29.99 47.6,39.92 14.1,9.92 41,20.93 48.4,36.56 7.5,15.64 -11.2,33.59 -13,50.61 -1.9,17.03 5.8,61.67 -5.2,74.42 z" transform="matrix(0.18017,0,0,0.10376,-807.59,1462.6)"/></g><path id="path4639" fill="url(#radialGradient3367)" stroke="#fcaf3e" stroke-linecap="round" stroke-linejoin="round" stroke-width="8.399" d="m -360,-27.638 a 280,262.86 0 1 1 -560,0 280,262.86 0 1 1 560,0 z" clip-path="url(#clipPath5671)" transform="matrix(0.43658924,0,0,0.39795626,-386.10039,484.14029)"/><path id="path4984" fill="#fdfdfd" d="m 1101.1,-136.21 c -48.6,0 -90.3,11.93 -108.92,29.03 -4.27,-0.3 -8.61,-0.46 -13.02,-0.46 -57.89,0 -104.89,26.518 -104.89,59.187 0,28.591 36,52.464 83.79,57.98 14.85,30.919 81.24,54.263 160.94,54.263 90.5,0 164,-30.168 164,-67.344 l -0.1,-1.0821 c 29.3,-9.2319 48.5,-24.502 48.5,-41.775 l -0.4,-4.386 c -5.1,-26.509 -54,-46.62 -113.3,-46.64 -11.5,-22.433 -59.4,-38.773 -116.6,-38.773 z" clip-path="url(#clipPath5495)" filter="url(#filter5575)" transform="matrix(0.73338134,0,0,0.66848576,-204.34935,513.42691)"/><g id="g5828" fill="#009800" opacity=".698" transform="matrix(-0.15446477,0,0,0.37183851,-445.42361,734.13925)"><path id="path5830" d="m 54.721,1730 c -12.956,-57.3 -65.419,-104.2 -110.76,-139.8 58.289,6 98.625,69.9 124.04,117.9 2.575,9 -2.443,22.2 -13.28,21.9 z"/><path id="path5832" d="m 129.3,1721.3 c 16.92,-30.1 -35.479,-114.8 -26.25,-150.7 29.29,54.5 47.24,92.4 42.01,140.9 -3.42,5.7 -10.5,6.6 -15.76,9.8 z"/><path id="path5834" d="m 203.81,1718.9 c 25.25,-47.2 55.26,-94.9 108.54,-113.3 -29.53,20.5 -63.09,41 -76.16,76.5 -6.84,14.8 -14.69,32.8 -32.38,36.8 z"/><path id="path5836" d="m 312.59,1727.9 c 20.26,-9.2 40.63,-61.1 69.03,-84.9 -31.31,78.4 -42.61,86.3 -69.03,84.9 z"/><path id="path5838" d="m 169.53,1710.4 c 12.68,-15.1 17.68,-39.6 39.27,-44.9 -11.71,15.9 -17.51,39.8 -39.27,44.9 z"/><path id="path5840" d="m 90.731,1685 c -10.25,-21.3 -21.088,-42.6 -36.166,-61 42.017,19 55.645,50.3 36.166,61 z"/><path id="path5842" d="m 284.12,1681.7 c 18.25,-21.3 39.84,-40.7 65.96,-51.8 -22.99,12 -42.08,44.9 -65.96,51.8 z"/></g><g id="g5844" fill="#008c00" opacity=".698" transform="matrix(-0.20863232,0,0,0.261652,397.61292,881.84786)"><path id="path5846" d="m 54.721,1730 c -12.956,-57.3 -65.419,-104.2 -110.76,-139.8 58.289,6 98.625,69.9 124.04,117.9 2.575,9 -2.443,22.2 -13.28,21.9 z"/><path id="path5848" d="m 129.3,1721.3 c 16.92,-30.1 -35.479,-114.8 -26.25,-150.7 29.29,54.5 47.24,92.4 42.01,140.9 -3.42,5.7 -10.5,6.6 -15.76,9.8 z"/><path id="path5850" d="m 203.81,1718.9 c 25.25,-47.2 55.26,-94.9 108.54,-113.3 -29.53,20.5 -63.09,41 -76.16,76.5 -6.84,14.8 -14.69,32.8 -32.38,36.8 z"/><path id="path5852" d="m 312.59,1727.9 c 20.26,-9.2 40.63,-61.1 69.03,-84.9 -31.31,78.4 -42.61,86.3 -69.03,84.9 z"/><path id="path5854" d="m 169.53,1710.4 c 12.68,-15.1 17.68,-39.6 39.27,-44.9 -11.71,15.9 -17.51,39.8 -39.27,44.9 z"/><path id="path5856" d="m 90.731,1685 c -10.25,-21.3 -21.088,-42.6 -36.166,-61 42.017,19 55.645,50.3 36.166,61 z"/><path id="path5858" d="m 284.12,1681.7 c 18.25,-21.3 39.84,-40.7 65.96,-51.8 -22.99,12 -42.08,44.9 -65.96,51.8 z"/></g><g id="g5860" fill="#008c00" opacity=".698" transform="matrix(0.23910432,0,0,0.32098012,783.01214,886.1128)"><path id="path5862" d="m 54.721,1730 c -12.956,-57.3 -65.419,-104.2 -110.76,-139.8 58.289,6 98.625,69.9 124.04,117.9 2.575,9 -2.443,22.2 -13.28,21.9 z"/><path id="path5864" d="m 129.3,1721.3 c 16.92,-30.1 -35.479,-114.8 -26.25,-150.7 29.29,54.5 47.24,92.4 42.01,140.9 -3.42,5.7 -10.5,6.6 -15.76,9.8 z"/><path id="path5866" d="m 203.81,1718.9 c 25.25,-47.2 55.26,-94.9 108.54,-113.3 -29.53,20.5 -63.09,41 -76.16,76.5 -6.84,14.8 -14.69,32.8 -32.38,36.8 z"/><path id="path5868" d="m 312.59,1727.9 c 20.26,-9.2 40.63,-61.1 69.03,-84.9 -31.31,78.4 -42.61,86.3 -69.03,84.9 z"/><path id="path5870" d="m 169.53,1710.4 c 12.68,-15.1 17.68,-39.6 39.27,-44.9 -11.71,15.9 -17.51,39.8 -39.27,44.9 z"/><path id="path5872" d="m 90.731,1685 c -10.25,-21.3 -21.088,-42.6 -36.166,-61 42.017,19 55.645,50.3 36.166,61 z"/><path id="path5874" d="m 284.12,1681.7 c 18.25,-21.3 39.84,-40.7 65.96,-51.8 -22.99,12 -42.08,44.9 -65.96,51.8 z"/></g><g id="g5876" fill="#008c00" opacity=".698" transform="matrix(-0.14092655,0,0,0.14299579,627.38862,990.55701)"><path id="path5878" d="m 54.721,1730 c -12.956,-57.3 -65.419,-104.2 -110.76,-139.8 58.289,6 98.625,69.9 124.04,117.9 2.575,9 -2.443,22.2 -13.28,21.9 z"/><path id="path5880" d="m 129.3,1721.3 c 16.92,-30.1 -35.479,-114.8 -26.25,-150.7 29.29,54.5 47.24,92.4 42.01,140.9 -3.42,5.7 -10.5,6.6 -15.76,9.8 z"/><path id="path5882" d="m 203.81,1718.9 c 25.25,-47.2 55.26,-94.9 108.54,-113.3 -29.53,20.5 -63.09,41 -76.16,76.5 -6.84,14.8 -14.69,32.8 -32.38,36.8 z"/><path id="path5884" d="m 312.59,1727.9 c 20.26,-9.2 40.63,-61.1 69.03,-84.9 -31.31,78.4 -42.61,86.3 -69.03,84.9 z"/><path id="path5886" d="m 169.53,1710.4 c 12.68,-15.1 17.68,-39.6 39.27,-44.9 -11.71,15.9 -17.51,39.8 -39.27,44.9 z"/><path id="path5888" d="m 90.731,1685 c -10.25,-21.3 -21.088,-42.6 -36.166,-61 42.017,19 55.645,50.3 36.166,61 z"/><path id="path5890" d="m 284.12,1681.7 c 18.25,-21.3 39.84,-40.7 65.96,-51.8 -22.99,12 -42.08,44.9 -65.96,51.8 z"/></g><g id="g5892" fill="#008c00" opacity=".698" transform="matrix(0.12400012,0,0,0.1090902,698.01324,867.77624)"><path id="path5894" d="m 54.721,1730 c -12.956,-57.3 -65.419,-104.2 -110.76,-139.8 58.289,6 98.625,69.9 124.04,117.9 2.575,9 -2.443,22.2 -13.28,21.9 z"/><path id="path5896" d="m 129.3,1721.3 c 16.92,-30.1 -35.479,-114.8 -26.25,-150.7 29.29,54.5 47.24,92.4 42.01,140.9 -3.42,5.7 -10.5,6.6 -15.76,9.8 z"/><path id="path5898" d="m 203.81,1718.9 c 25.25,-47.2 55.26,-94.9 108.54,-113.3 -29.53,20.5 -63.09,41 -76.16,76.5 -6.84,14.8 -14.69,32.8 -32.38,36.8 z"/><path id="path5900" d="m 312.59,1727.9 c 20.26,-9.2 40.63,-61.1 69.03,-84.9 -31.31,78.4 -42.61,86.3 -69.03,84.9 z"/><path id="path5902" d="m 169.53,1710.4 c 12.68,-15.1 17.68,-39.6 39.27,-44.9 -11.71,15.9 -17.51,39.8 -39.27,44.9 z"/><path id="path5904" d="m 90.731,1685 c -10.25,-21.3 -21.088,-42.6 -36.166,-61 42.017,19 55.645,50.3 36.166,61 z"/><path id="path5906" d="m 284.12,1681.7 c 18.25,-21.3 39.84,-40.7 65.96,-51.8 -22.99,12 -42.08,44.9 -65.96,51.8 z"/></g><g id="g5811" fill="#009800" transform="matrix(0.28311452,0,0,0.32945652,-351.45546,743.2975)"><path id="path5727" d="m 54.721,1730 c -12.956,-57.3 -65.419,-104.2 -110.76,-139.8 58.289,6 98.625,69.9 124.04,117.9 2.575,9 -2.443,22.2 -13.28,21.9 z"/><path id="path5729" d="m 129.3,1721.3 c 16.92,-30.1 -35.479,-114.8 -26.25,-150.7 29.29,54.5 47.24,92.4 42.01,140.9 -3.42,5.7 -10.5,6.6 -15.76,9.8 z"/><path id="path5731" d="m 203.81,1718.9 c 25.25,-47.2 55.26,-94.9 108.54,-113.3 -29.53,20.5 -63.09,41 -76.16,76.5 -6.84,14.8 -14.69,32.8 -32.38,36.8 z"/><path id="path5733" d="m 312.59,1727.9 c 20.26,-9.2 40.63,-61.1 69.03,-84.9 -31.31,78.4 -42.61,86.3 -69.03,84.9 z"/><path id="path5735" d="m 169.53,1710.4 c 12.68,-15.1 17.68,-39.6 39.27,-44.9 -11.71,15.9 -17.51,39.8 -39.27,44.9 z"/><path id="path5737" d="m 90.731,1685 c -10.25,-21.3 -21.088,-42.6 -36.166,-61 42.017,19 55.645,50.3 36.166,61 z"/><path id="path5753" d="m 284.12,1681.7 c 18.25,-21.3 39.84,-40.7 65.96,-51.8 -22.99,12 -42.08,44.9 -65.96,51.8 z"/></g><g id="g7741" transform="matrix(0.10064193,0.0135843,-0.00335691,0.04608073,-237.7754,867.29862)"><path id="path7685" fill="#ce5c00" d="m 1804.4,906.06 c -11.2,12.15 -38.7,1.03 -54.3,5.05 -16.2,4.14 -33.6,37.84 -50,32.92 -15.8,-4.77 -26,-42.31 -37.5,-54.1 -12,-12.19 -36.3,-9.74 -41.5,-26.09 -5,-15.82 16.5,-41.45 20.8,-57.46 4.5,-16.54 -7,-44.39 5,-56.19 11.7,-11.42 37.4,4.45 52.9,0.03 15.9,-4.56 32.9,-31.99 49.4,-27.93 16,3.93 26.5,32.07 38.2,43.39 12.1,11.7 44.7,15.14 50.2,31.07 5.4,15.42 -27.4,33.47 -30.7,49.65 -3.4,16.73 9,47.1 -2.5,59.66 z" transform="matrix(0.74978,0,0,0.38474,-171.52,2314.3)"/><path id="path7689" fill="#fcc916" d="m 1819.2,912.6 c -11,12.75 -42.6,-6.28 -57.7,0.52 -15.2,6.79 -46.4,43.29 -63.1,39.06 -16.6,-4.22 -25,-37.74 -39,-48.3 -14,-10.56 -38.8,-9.13 -45.3,-24.9 -6.5,-15.77 8.6,-52.67 12.5,-69.1 3.9,-16.42 -7.4,-46.45 3.4,-60.05 10.9,-13.59 43.9,-10.84 60.1,-15.36 16.2,-4.53 34.4,-26.18 51.3,-23.38 17,2.8 33.5,29.99 47.6,39.92 14.1,9.92 41,20.93 48.4,36.56 7.5,15.64 -11.2,33.59 -13,50.61 -1.9,17.03 5.8,61.67 -5.2,74.42 z" transform="matrix(0.77672,0,0,0.35917,-121.06,2269.2)"/><path id="path7691" fill="#ad7fa8" d="m 1818.1,909.68 c -11,12.93 -42,-0.39 -57.5,6.12 -15.5,6.52 -42.5,37.82 -59.3,34.13 -16.7,-3.69 -26.4,-35.15 -40.1,-45.84 -13.7,-10.69 -40.4,-12.07 -46.7,-27.95 -6.3,-15.88 10,-47.94 13.5,-64.56 3.5,-16.62 -7.2,-46.18 3.7,-59.65 10.9,-13.46 42.8,-10.26 58.9,-15.35 16.2,-5.09 35.1,-27.18 52,-24.38 17,2.8 31.7,30.33 45.4,40.63 13.8,10.29 41.8,19.39 48.7,35.2 7,15.8 -11.7,36.08 -13.9,53.07 -2.2,16.99 6.2,55.64 -4.7,68.58 z" transform="matrix(0.87529,0,0,0.51744,-695.79,2290.6)"/><path id="path7687" fill="#f57900" d="m 1804.4,906.06 c -11.3,12.04 -32.9,14.23 -48.9,18.45 -16.1,4.22 -39.6,24.46 -55.4,19.52 -15.8,-4.95 -30.2,-29.31 -41.7,-40.91 -11.5,-11.6 -32.4,-23.39 -37.3,-39.28 -4.8,-15.88 10.8,-40.35 14.6,-56.03 3.9,-15.68 -0.5,-46.32 11.2,-57.62 11.8,-11.31 40.9,-4.36 56.2,-9.41 15.3,-5.06 30.2,-22.6 46.1,-18.49 15.9,4.1 30.3,28.79 41.7,40.9 11.5,12.11 41.5,18.07 46.7,33.56 5.2,15.49 -11,40.99 -15.3,56.45 -4.3,15.46 -6.6,40.82 -17.9,52.86 z" transform="matrix(0.95167,0,0,0.48859,-622.47,2374.9)"/><path id="path7693" fill="#ce5c00" d="m 1804.4,906.06 c -11.2,12.15 -38.7,1.03 -54.3,5.05 -16.2,4.14 -33.6,37.84 -50,32.92 -15.8,-4.77 -26,-42.31 -37.5,-54.1 -12,-12.19 -36.3,-9.74 -41.5,-26.09 -5,-15.82 16.5,-41.45 20.8,-57.46 4.5,-16.54 -7,-44.39 5,-56.19 11.7,-11.42 37.4,4.45 52.9,0.03 15.9,-4.56 32.9,-31.99 49.4,-27.93 16,3.93 26.5,32.07 38.2,43.39 12.1,11.7 44.7,15.14 50.2,31.07 5.4,15.42 -27.4,33.47 -30.7,49.65 -3.4,16.73 9,47.1 -2.5,59.66 z" transform="matrix(1.2266,0,0,0.69964,-1279.5,2443)"/><path id="path7695" fill="#3465a4" d="m 1818.1,909.68 c -11,12.93 -42,-0.39 -57.5,6.12 -15.5,6.52 -42.5,37.82 -59.3,34.13 -16.7,-3.69 -26.4,-35.15 -40.1,-45.84 -13.7,-10.69 -40.4,-12.07 -46.7,-27.95 -6.3,-15.88 10,-47.94 13.5,-64.56 3.5,-16.62 -7.2,-46.18 3.7,-59.65 10.9,-13.46 42.8,-10.26 58.9,-15.35 16.2,-5.09 35.1,-27.18 52,-24.38 17,2.8 31.7,30.33 45.4,40.63 13.8,10.29 41.8,19.39 48.7,35.2 7,15.8 -11.7,36.08 -13.9,53.07 -2.2,16.99 6.2,55.64 -4.7,68.58 z" transform="matrix(1.0334,0,0,0.51744,-737.38,2484.5)"/><path id="path7697" fill="#fcaf3e" d="m 1819.2,912.6 c -11,12.75 -42.6,-6.28 -57.7,0.52 -15.2,6.79 -46.4,43.29 -63.1,39.06 -16.6,-4.22 -25,-37.74 -39,-48.3 -14,-10.56 -38.8,-9.13 -45.3,-24.9 -6.5,-15.77 8.6,-52.67 12.5,-69.1 3.9,-16.42 -7.4,-46.45 3.4,-60.05 10.9,-13.59 43.9,-10.84 60.1,-15.36 16.2,-4.53 34.4,-26.18 51.3,-23.38 17,2.8 33.5,29.99 47.6,39.92 14.1,9.92 41,20.93 48.4,36.56 7.5,15.64 -11.2,33.59 -13,50.61 -1.9,17.03 5.8,61.67 -5.2,74.42 z" transform="matrix(1.2327,0,0,0.58042,-908.63,2523.1)"/><path id="path7699" fill="#c00" d="m 1804.4,906.06 c -11.2,12.15 -38.7,1.03 -54.3,5.05 -16.2,4.14 -33.6,37.84 -50,32.92 -15.8,-4.77 -26,-42.31 -37.5,-54.1 -12,-12.19 -36.3,-9.74 -41.5,-26.09 -5,-15.82 16.5,-41.45 20.8,-57.46 4.5,-16.54 -7,-44.39 5,-56.19 11.7,-11.42 37.4,4.45 52.9,0.03 15.9,-4.56 32.9,-31.99 49.4,-27.93 16,3.93 26.5,32.07 38.2,43.39 12.1,11.7 44.7,15.14 50.2,31.07 5.4,15.42 -27.4,33.47 -30.7,49.65 -3.4,16.73 9,47.1 -2.5,59.66 z" transform="matrix(1.4557,0,0,0.85976,-1006.9,2260.4)"/><path id="path7701" fill="#fcaf3e" d="m 1819.2,912.6 c -11,12.75 -42.6,-6.28 -57.7,0.52 -15.2,6.79 -46.4,43.29 -63.1,39.06 -16.6,-4.22 -25,-37.74 -39,-48.3 -14,-10.56 -38.8,-9.13 -45.3,-24.9 -6.5,-15.77 8.6,-52.67 12.5,-69.1 3.9,-16.42 -7.4,-46.45 3.4,-60.05 10.9,-13.59 43.9,-10.84 60.1,-15.36 16.2,-4.53 34.4,-26.18 51.3,-23.38 17,2.8 33.5,29.99 47.6,39.92 14.1,9.92 41,20.93 48.4,36.56 7.5,15.64 -11.2,33.59 -13,50.61 -1.9,17.03 5.8,61.67 -5.2,74.42 z" transform="matrix(1.4371,0,0,0.68367,-1229.9,2707.6)"/><path id="path7703" fill="#ad7fa8" d="m 1818.1,909.68 c -11,12.93 -42,-0.39 -57.5,6.12 -15.5,6.52 -42.5,37.82 -59.3,34.13 -16.7,-3.69 -26.4,-35.15 -40.1,-45.84 -13.7,-10.69 -40.4,-12.07 -46.7,-27.95 -6.3,-15.88 10,-47.94 13.5,-64.56 3.5,-16.62 -7.2,-46.18 3.7,-59.65 10.9,-13.46 42.8,-10.26 58.9,-15.35 16.2,-5.09 35.1,-27.18 52,-24.38 17,2.8 31.7,30.33 45.4,40.63 13.8,10.29 41.8,19.39 48.7,35.2 7,15.8 -11.7,36.08 -13.9,53.07 -2.2,16.99 6.2,55.64 -4.7,68.58 z" transform="matrix(1.3658,0,0,0.72689,-562.73,2577.5)"/><path id="path7705" fill="#f57900" d="m 1804.4,906.06 c -11.3,12.04 -32.9,14.23 -48.9,18.45 -16.1,4.22 -39.6,24.46 -55.4,19.52 -15.8,-4.95 -30.2,-29.31 -41.7,-40.91 -11.5,-11.6 -32.4,-23.39 -37.3,-39.28 -4.8,-15.88 10.8,-40.35 14.6,-56.03 3.9,-15.68 -0.5,-46.32 11.2,-57.62 11.8,-11.31 40.9,-4.36 56.2,-9.41 15.3,-5.06 30.2,-22.6 46.1,-18.49 15.9,4.1 30.3,28.79 41.7,40.9 11.5,12.11 41.5,18.07 46.7,33.56 5.2,15.49 -11,40.99 -15.3,56.45 -4.3,15.46 -6.6,40.82 -17.9,52.86 z" transform="matrix(1.6208,0,0,0.85604,-1201.9,2592.7)"/><path id="path7707" fill="#fcc916" d="m 1819.2,912.6 c -11,12.75 -42.6,-6.28 -57.7,0.52 -15.2,6.79 -46.4,43.29 -63.1,39.06 -16.6,-4.22 -25,-37.74 -39,-48.3 -14,-10.56 -38.8,-9.13 -45.3,-24.9 -6.5,-15.77 8.6,-52.67 12.5,-69.1 3.9,-16.42 -7.4,-46.45 3.4,-60.05 10.9,-13.59 43.9,-10.84 60.1,-15.36 16.2,-4.53 34.4,-26.18 51.3,-23.38 17,2.8 33.5,29.99 47.6,39.92 14.1,9.92 41,20.93 48.4,36.56 7.5,15.64 -11.2,33.59 -13,50.61 -1.9,17.03 5.8,61.67 -5.2,74.42 z" transform="matrix(1.217,0,0,0.54895,-850.79,2257.9)"/><path id="path7709" fill="#ce5c00" d="m 1804.4,906.06 c -11.2,12.15 -38.7,1.03 -54.3,5.05 -16.2,4.14 -33.6,37.84 -50,32.92 -15.8,-4.77 -26,-42.31 -37.5,-54.1 -12,-12.19 -36.3,-9.74 -41.5,-26.09 -5,-15.82 16.5,-41.45 20.8,-57.46 4.5,-16.54 -7,-44.39 5,-56.19 11.7,-11.42 37.4,4.45 52.9,0.03 15.9,-4.56 32.9,-31.99 49.4,-27.93 16,3.93 26.5,32.07 38.2,43.39 12.1,11.7 44.7,15.14 50.2,31.07 5.4,15.42 -27.4,33.47 -30.7,49.65 -3.4,16.73 9,47.1 -2.5,59.66 z" transform="matrix(0.98109,0,0,0.49149,-928.47,2123.4)"/><path id="path7711" fill="#ce5c00" d="m 1804.4,906.06 c -11.2,12.15 -38.7,1.03 -54.3,5.05 -16.2,4.14 -33.6,37.84 -50,32.92 -15.8,-4.77 -26,-42.31 -37.5,-54.1 -12,-12.19 -36.3,-9.74 -41.5,-26.09 -5,-15.82 16.5,-41.45 20.8,-57.46 4.5,-16.54 -7,-44.39 5,-56.19 11.7,-11.42 37.4,4.45 52.9,0.03 15.9,-4.56 32.9,-31.99 49.4,-27.93 16,3.93 26.5,32.07 38.2,43.39 12.1,11.7 44.7,15.14 50.2,31.07 5.4,15.42 -27.4,33.47 -30.7,49.65 -3.4,16.73 9,47.1 -2.5,59.66 z" transform="matrix(1.5375,0,0,0.63879,-1201.8,2595.5)"/><path id="path7713" fill="#f57900" d="m 1804.4,906.06 c -11.2,12.15 -38.7,1.03 -54.3,5.05 -16.2,4.14 -33.6,37.84 -50,32.92 -15.8,-4.77 -26,-42.31 -37.5,-54.1 -12,-12.19 -36.3,-9.74 -41.5,-26.09 -5,-15.82 16.5,-41.45 20.8,-57.46 4.5,-16.54 -7,-44.39 5,-56.19 11.7,-11.42 37.4,4.45 52.9,0.03 15.9,-4.56 32.9,-31.99 49.4,-27.93 16,3.93 26.5,32.07 38.2,43.39 12.1,11.7 44.7,15.14 50.2,31.07 5.4,15.42 -27.4,33.47 -30.7,49.65 -3.4,16.73 9,47.1 -2.5,59.66 z" transform="matrix(1.1775,0,0,0.71566,-950.7,2511.8)"/><path id="path7715" fill="#ad7fa8" d="m 1818.1,909.68 c -11,12.93 -42,-0.39 -57.5,6.12 -15.5,6.52 -42.5,37.82 -59.3,34.13 -16.7,-3.69 -26.4,-35.15 -40.1,-45.84 -13.7,-10.69 -40.4,-12.07 -46.7,-27.95 -6.3,-15.88 10,-47.94 13.5,-64.56 3.5,-16.62 -7.2,-46.18 3.7,-59.65 10.9,-13.46 42.8,-10.26 58.9,-15.35 16.2,-5.09 35.1,-27.18 52,-24.38 17,2.8 31.7,30.33 45.4,40.63 13.8,10.29 41.8,19.39 48.7,35.2 7,15.8 -11.7,36.08 -13.9,53.07 -2.2,16.99 6.2,55.64 -4.7,68.58 z" transform="matrix(1.254,0,0,0.65009,-845.47,2319.2)"/><path id="path7717" fill="#f57900" d="m 1804.4,906.06 c -11.3,12.04 -32.9,14.23 -48.9,18.45 -16.1,4.22 -39.6,24.46 -55.4,19.52 -15.8,-4.95 -30.2,-29.31 -41.7,-40.91 -11.5,-11.6 -32.4,-23.39 -37.3,-39.28 -4.8,-15.88 10.8,-40.35 14.6,-56.03 3.9,-15.68 -0.5,-46.32 11.2,-57.62 11.8,-11.31 40.9,-4.36 56.2,-9.41 15.3,-5.06 30.2,-22.6 46.1,-18.49 15.9,4.1 30.3,28.79 41.7,40.9 11.5,12.11 41.5,18.07 46.7,33.56 5.2,15.49 -11,40.99 -15.3,56.45 -4.3,15.46 -6.6,40.82 -17.9,52.86 z" transform="matrix(0.95167,0,0,0.48859,-761.53,2216.7)"/><path id="path7719" fill="#fcaf3e" d="m 1819.2,912.6 c -11,12.75 -42.6,-6.28 -57.7,0.52 -15.2,6.79 -46.4,43.29 -63.1,39.06 -16.6,-4.22 -25,-37.74 -39,-48.3 -14,-10.56 -38.8,-9.13 -45.3,-24.9 -6.5,-15.77 8.6,-52.67 12.5,-69.1 3.9,-16.42 -7.4,-46.45 3.4,-60.05 10.9,-13.59 43.9,-10.84 60.1,-15.36 16.2,-4.53 34.4,-26.18 51.3,-23.38 17,2.8 33.5,29.99 47.6,39.92 14.1,9.92 41,20.93 48.4,36.56 7.5,15.64 -11.2,33.59 -13,50.61 -1.9,17.03 5.8,61.67 -5.2,74.42 z" transform="matrix(0.89916,0,0,0.51784,-711.52,2410.5)"/></g><path id="path7788" fill="#1e9e00" d="m 871.67795,1001.928 c 1.1734,0.2139 1.39341,0.7019 2.34681,1.4238 1.24674,1.2501 3.74024,4.9802 3.44689,5.5886 -0.36669,1.0963 -3.52023,-5.1273 -5.7937,-7.0124 z m 20.9747,2.7207 c -2.64017,4.4855 -2.86019,4.8265 -4.91365,4.7596 0.44002,-0.8289 1.68676,-1.5041 2.56682,-2.2929 0.9534,-0.8356 1.46677,-2.4065 2.34683,-2.4667 z m -9.31395,0.1604 c 3.00687,2.9347 3.37356,3.9909 2.86018,4.3251 -0.95338,0.3142 -0.73337,-0.5147 -2.86018,-4.3251 z m -5.64703,0.6284 c 0.73338,-0.107 1.32009,0.9091 1.61344,1.7381 0.73338,2.1191 0.73338,1.8183 0.22001,1.9921 -0.66005,0.254 -0.66005,-1.9119 -1.83345,-3.7302 z m -4.98699,-0.1939 c 0.80672,0.02 1.17341,0.8825 1.76011,1.6779 0.51336,1.5108 2.12681,2.4534 1.02674,2.5069 -1.17341,0.06 -1.9068,-2.3865 -2.78685,-4.1848 z m 8.36054,0.5816 c 2.42016,2.4333 2.93352,3.182 1.98013,3.2823 -0.66005,0.067 -0.66005,-0.5281 -1.39342,-1.5308 -0.51337,-0.6418 -1.10008,-1.21 -0.58671,-1.7515 z" opacity=".698"/></g></g></svg>