<svg xmlns="http://www.w3.org/2000/svg" xmlns:svg="http://www.w3.org/2000/svg" xmlns:xlink="http://www.w3.org/1999/xlink" id="svg3824" width="182.253" height="232.896" version="1.1"><defs id="defs3826"><linearGradient id="linearGradient3358" x1="122.86" x2="214.29" y1="349.51" y2="372.36" gradientTransform="translate(194.29,211.43)" gradientUnits="userSpaceOnUse"><stop id="stop3362" offset="0" stop-color="navy"/><stop id="stop3364" offset="1" stop-color="#fff"/></linearGradient><linearGradient id="linearGradient3331" x1="314.23" x2="390.81" y1="361.84" y2="431.83" gradientTransform="matrix(1.1462,-0.122,0.122,1.1462,-115.67,-52.252)" gradientUnits="userSpaceOnUse"><stop id="stop3324" offset="0" stop-color="#898989"/><stop id="stop3326" offset="1" stop-color="#fff"/></linearGradient><linearGradient id="linearGradient3184" x1="377.14" x2="418.57" y1="843.79" y2="869.5" gradientTransform="matrix(0.7943,0,0,0.7155,276.51,398.97)" gradientUnits="userSpaceOnUse" xlink:href="#linearGradient3160"/><linearGradient id="linearGradient3160"><stop id="stop3162" offset="0"/><stop id="stop3164" offset="1" stop-color="#f2f2f2"/></linearGradient><linearGradient id="linearGradient3229" x1="573.18" x2="521.11" y1="1087" y2="1064.9" gradientTransform="translate(149.38,-48.715)" gradientUnits="userSpaceOnUse" xlink:href="#linearGradient3160"/><linearGradient id="linearGradient3714"><stop id="stop3716" offset="0"/><stop id="stop3718" offset="1" stop-color="#f2f2f2"/></linearGradient><linearGradient id="linearGradient3246" x1="521.11" x2="573.18" y1="1075.9" y2="1075.9" gradientTransform="translate(149.38,-48.715)" gradientUnits="userSpaceOnUse" xlink:href="#linearGradient3160"/><linearGradient id="linearGradient3721"><stop id="stop3723" offset="0"/><stop id="stop3725" offset="1" stop-color="#f2f2f2"/></linearGradient><linearGradient id="linearGradient3414" x1="304.08" x2="357.35" y1="901.65" y2="901.65" gradientUnits="userSpaceOnUse" xlink:href="#linearGradient3226"/><linearGradient id="linearGradient3226" x1="304.08" x2="357.35" y1="901.65" y2="901.65" gradientUnits="userSpaceOnUse"><stop id="stop3218" offset="0"/><stop id="stop3220" offset="1" stop-color="#bebebe"/></linearGradient><linearGradient id="linearGradient3220" x1="377.14" x2="418.57" y1="843.79" y2="869.5" gradientTransform="matrix(0.7943,0,0,0.7155,243.46,399.25)" gradientUnits="userSpaceOnUse" xlink:href="#linearGradient3160"/><linearGradient id="linearGradient3732"><stop id="stop3734" offset="0"/><stop id="stop3736" offset="1" stop-color="#f2f2f2"/></linearGradient><linearGradient id="linearGradient3416" x1="304.08" x2="357.35" y1="901.65" y2="901.65" gradientUnits="userSpaceOnUse" xlink:href="#linearGradient3226"/><linearGradient id="linearGradient3739" x1="304.08" x2="357.35" y1="901.65" y2="901.65" gradientUnits="userSpaceOnUse"><stop id="stop3741" offset="0"/><stop id="stop3743" offset="1" stop-color="#bebebe"/></linearGradient><linearGradient id="linearGradient3238" x1="318.5" x2="294" y1="1079.3" y2="1061.1" gradientTransform="translate(149.38,-48.715)" gradientUnits="userSpaceOnUse" xlink:href="#linearGradient3160"/><linearGradient id="linearGradient3746"><stop id="stop3748" offset="0"/><stop id="stop3750" offset="1" stop-color="#f2f2f2"/></linearGradient><linearGradient id="linearGradient3213" x1="294" x2="318.5" y1="1061.1" y2="1079.3" gradientTransform="translate(149.38,-48.715)" gradientUnits="userSpaceOnUse" xlink:href="#linearGradient3160"/><linearGradient id="linearGradient3753"><stop id="stop3755" offset="0"/><stop id="stop3757" offset="1" stop-color="#f2f2f2"/></linearGradient><linearGradient id="linearGradient3242" x1="350.52" x2="350.52" y1="821.03" y2="793.77" gradientTransform="translate(160.3,106.24)" gradientUnits="userSpaceOnUse"><stop id="stop3235" offset="0" stop-color="#ff0"/><stop id="stop3237" offset="1" stop-color="#ff0" stop-opacity="0"/></linearGradient><linearGradient id="linearGradient4719" x1="427.57" x2="459.57" y1="1240.9" y2="1240.9" gradientTransform="matrix(1.2255,0,0,1.152,68.62,-466.66)" gradientUnits="userSpaceOnUse" xlink:href="#linearGradient4713"/><linearGradient id="linearGradient4713"><stop id="stop4715" offset="0" stop-color="red"/><stop id="stop4717" offset="1" stop-color="red" stop-opacity="0"/></linearGradient><linearGradient id="linearGradient4727" x1="443.29" x2="475.29" y1="1009.5" y2="1009.5" gradientTransform="matrix(1.2255,0,0,1.152,49.362,-200.04)" gradientUnits="userSpaceOnUse" xlink:href="#linearGradient4721"/><linearGradient id="linearGradient4721"><stop id="stop4723" offset="0" stop-color="#fff"/><stop id="stop4725" offset="1" stop-color="#fff" stop-opacity="0"/></linearGradient><linearGradient id="linearGradient4731" x1="427.57" x2="459.57" y1="1240.9" y2="1240.9" gradientTransform="matrix(1.2255,0,0,1.152,118.62,-467.37)" gradientUnits="userSpaceOnUse" xlink:href="#linearGradient4713"/><linearGradient id="linearGradient3771"><stop id="stop3773" offset="0" stop-color="red"/><stop id="stop3775" offset="1" stop-color="red" stop-opacity="0"/></linearGradient><linearGradient id="linearGradient4733" x1="443.29" x2="475.29" y1="1009.5" y2="1009.5" gradientTransform="matrix(1.2255,0,0,1.152,99.361,-200.76)" gradientUnits="userSpaceOnUse" xlink:href="#linearGradient4721"/><linearGradient id="linearGradient3778"><stop id="stop3780" offset="0" stop-color="#fff"/><stop id="stop3782" offset="1" stop-color="#fff" stop-opacity="0"/></linearGradient><linearGradient id="linearGradient4751" x1="334.71" x2="376.71" y1="1002.4" y2="1002.4" gradientTransform="translate(149.38,-48.715)" gradientUnits="userSpaceOnUse"><stop id="stop4747" offset="0" stop-color="#0ff"/><stop id="stop4749" offset="1" stop-color="#fff"/></linearGradient></defs><metadata id="metadata3829"/><g id="layer1" transform="translate(-286.0174,-684.48093)"><g id="layer1-9" transform="matrix(-0.65279853,0,0,0.65279853,757.70514,231.576)"><path id="rect3403" fill="#999" d="m 445.54,752.13 69.5,22.14 -5.15,13.32 -65.92,-28.56 1.57,-6.9 z"/><g id="g3369" transform="matrix(0.36601,0,0,0.36601,385.56,589.74)"><path id="rect3350" fill="url(#linearGradient3358)" d="m 298.57,436.65 c 0,0 58.21,-23.51 72.86,-7.14 47.4,52.94 33.24,198.63 33.24,198.63 0,0 -84.76,-37.92 -121.81,-35.78 -3.29,-48.77 15.71,-155.71 15.71,-155.71 z"/><path id="path3287" fill="#ffd5d5" stroke="#000" stroke-linejoin="round" d="m 406.08,396.77 a 61.62,65.661066 0 1 1 -123.24,0 61.62,65.661066 0 1 1 123.24,0 z" transform="matrix(1.1527,0,0,1.1527,-71.057,-89.568)"/><path id="rect3347" d="m 274.16,419.04 c 14.15,-2.72 23.93,-12.58 29.64,-25.44 1.64,0.16 3.75,2.47 3.61,4.09 -5.49,10.44 -17.12,24.37 -31.3,25.14 -1.29,0.07 -3.23,-3.54 -1.95,-3.79 z"/><path id="path3320" fill="url(#linearGradient3331)" stroke="#000" stroke-linejoin="round" stroke-width="1.153" d="m 398.19,352.99 c 4.42,41.54 -3.63,52.91 -42.62,57.06 -19.49,2.08 -15.09,-1.4 -39.96,0.51 3.36,-19.28 -4.76,-44.3 -20.11,-53.96 -9.18,-7.86 -38.75,-9.07 -63.94,-9.74 19.97,-8.36 34.74,-26.75 40.4,-34.25 11.34,-14.98 28.1,-25.29 47.59,-27.36 38.99,-4.15 74.22,26.2 78.64,67.74 z"/><path id="rect3333" d="m 275.19,308.67 8.23,2.85 c 3.41,0 -5.99,7.03 -5.99,10.44 l 15.71,15.56 c -6.42,4.83 -2.02,6.86 -5.43,6.86 0,0 -32.07,-10.6 -32.07,-14.01 0,0 17.39,-18.13 19.55,-21.7 z"/><path id="path3337" stroke="#000" stroke-linejoin="round" d="m 315.71,281.65 a 6.4286,6.4286 0 1 1 -12.85,0 6.4286,6.4286 0 1 1 12.85,0 z" transform="translate(20.287,61.305)"/><path id="path3339" stroke="#000" stroke-linejoin="round" d="m 315.71,281.65 a 6.4286,6.4286 0 1 1 -12.85,0 6.4286,6.4286 0 1 1 12.85,0 z" transform="translate(13.859,110.59)"/><path id="rect3342" d="m 316.22,409.97 80.86,-20 c 0,0 26.51,51.43 15.72,70.07 -8.35,14.41 -37.34,22.06 -53.01,16.43 -22.45,-8.07 -43.57,-66.5 -43.57,-66.5 z"/><path id="path3345" fill="maroon" d="m 86.873,304.34 a 8.5863,6.566 0 1 1 -17.172,0 8.5863,6.566 0 1 1 17.172,0 z" transform="translate(195.3,63.946)"/></g><rect id="rect3401" width="47.964" height="19.006" x="988.35" y="612.91" transform="matrix(0.93661,0.35037,-0.61795,0.78622,0,0)"/><rect id="rect4705" width="255.36" height="16.791" x="875.57" y="303.72" fill="#b3b3b3" stroke="#000" stroke-width="1.494" transform="matrix(0.77897694,0.62705257,-0.62705257,0.77897694,0,0)"/><path id="path4753" fill="#ffa400" stroke="#fff" stroke-linejoin="round" stroke-width="2" d="m 505.71,1267.4 a 27.857,27.857 0 1 1 -55.71,0 27.857,27.857 0 1 1 55.71,0 z" transform="matrix(0.85149,0,0,0.85149,256.06,-143.35)"/><rect id="rect4755" width="27.143" height="38.571" x="690.81" y="981.65" fill="#ffa400" stroke="#fff" stroke-linejoin="round" stroke-width="2"/><path id="rect3190" fill="#d40000" stroke="#000" stroke-linejoin="round" stroke-width="1.034" d="m 479.02,930.69 c 2.13,-2.12 6.24,-3.03 6.24,-3.03 h 52.97 c 0,0 4.84,0.91 6.94,3.03 2.03,2.05 2.9,6.57 2.9,6.57 l -0.13,29.8 35.23,0.51 -0.13,-27.78 108.88,-0.51 c 0,0 2.9,0.23 4.23,1.46 1.21,1.12 1.79,3.53 1.79,3.53 v 84.83 h -241.4 v -38.34 c 0,0 0.45,-2.6 0.89,-3.49 0.5,-1 2.07,-2.08 2.07,-2.08 l 17.24,-12.98 V 936.8 c 0,0 0.34,-4.17 2.28,-6.11 z"/><rect id="rect3198" width="30" height="29.03" x="1748.2" y="1612" transform="matrix(1,0,-0.78737,0.61648,0,0)"/><rect id="rect3200" width="30" height="29.03" x="1778.1" y="1612" fill="#fff" transform="matrix(1,0,-0.78737,0.61648,0,0)"/><rect id="rect3206" width="30" height="29.03" x="1808.1" y="1612" transform="matrix(1,0,-0.78737,0.61648,0,0)"/><rect id="rect3208" width="30" height="29.03" x="1838.1" y="1612" fill="#fff" transform="matrix(1,0,-0.78737,0.61648,0,0)"/><rect id="rect3212" width="30" height="29.03" x="1897.9" y="1612" fill="#fff" transform="matrix(1,0,-0.78737,0.61648,0,0)"/><rect id="rect3210" width="30" height="29.03" x="1868.1" y="1612" transform="matrix(1,0,-0.78737,0.61648,0,0)"/><rect id="rect3182" width="32.907" height="36.797" x="576.07" y="1002.7" fill="url(#linearGradient3184)" stroke="#000" stroke-linejoin="round" stroke-width=".951" ry="10.732"/><rect id="rect3196" width="51.071" height="21.084" x="670.99" y="1016.7" fill="url(#linearGradient3229)" stroke="url(#linearGradient3246)" stroke-linejoin="round" ry="6.149"/><rect id="rect3214" width="30" height="29.03" x="1927.9" y="1612" transform="matrix(1,0,-0.78737,0.61648,0,0)"/><path id="rect3216" fill="#fff" d="m 688.68,993.75 h 8.79 l -0.07,16.45 -1.58,1.4 h -30 l 22.86,-17.85 z"/><path id="path3224" fill="#b3b3b3" stroke="url(#linearGradient3414)" stroke-linejoin="round" stroke-width="8.005" d="m 350,901.65 a 19.286,19.286 0 1 1 -38.57,0 19.286,19.286 0 1 1 38.57,0 z" transform="translate(316.38,125.43)"/><rect id="rect3218" width="32.907" height="36.797" x="543.03" y="1003" fill="url(#linearGradient3220)" stroke="#000" stroke-linejoin="round" stroke-width=".951" ry="10.732"/><path id="path3223" fill="#b3b3b3" stroke="url(#linearGradient3416)" stroke-linejoin="round" stroke-width="8.005" d="m 350,901.65 a 19.286,19.286 0 1 1 -38.57,0 19.286,19.286 0 1 1 38.57,0 z" transform="translate(160.24,125.29)"/><path id="rect3227" fill="#fff" d="m 457.04,993.79 h 21.97 l -20.72,17.71 h -1.43 l 0.18,-17.71 z"/><rect id="rect3192" width="22.5" height="27.931" x="444.38" y="1007.5" fill="url(#linearGradient3238)" stroke="url(#linearGradient3213)" stroke-linejoin="round" stroke-width="2" ry="8.147"/><path id="rect3231" fill="url(#linearGradient3242)" stroke="#ec4500" stroke-linejoin="round" stroke-width="2" d="m 510.74,901.64 c 13.91,-0.11 13.22,24.63 13.22,24.63 H 497.7 c 0,0 -0.87,-24.52 13.04,-24.63 z"/><rect id="rect4711" width="36.766" height="29.624" x="593.85" y="948.12" fill="url(#linearGradient4719)" stroke="url(#linearGradient4727)" stroke-linejoin="round" stroke-width="2.376"/><rect id="rect4729" width="36.766" height="29.624" x="643.85" y="947.41" fill="url(#linearGradient4731)" stroke="url(#linearGradient4733)" stroke-linejoin="round" stroke-width="2.376"/><rect id="rect4735" width="40.329" height="34.615" x="484.93" y="936.34" fill="url(#linearGradient4751)" stroke="#fff" stroke-linejoin="round" stroke-width="1.671"/><path id="path3406" fill="#ffd5d5" d="m 459.29,740.58 a 8.93,6.786764 0 1 1 -17.86,0 8.93,6.786764 0 1 1 17.86,0 z" transform="translate(39.286,26.429)"/></g></g></svg>