<svg xmlns="http://www.w3.org/2000/svg" xmlns:svg="http://www.w3.org/2000/svg" xmlns:xlink="http://www.w3.org/1999/xlink" id="svg3824" width="126.089" height="175.068" version="1.1"><defs id="defs3826"><linearGradient id="linearGradient3358" x1="122.86" x2="214.29" y1="349.51" y2="372.36" gradientTransform="translate(194.29,211.43)" gradientUnits="userSpaceOnUse"><stop id="stop3362" offset="0" stop-color="navy"/><stop id="stop3364" offset="1" stop-color="#fff"/></linearGradient><linearGradient id="linearGradient3331" x1="314.23" x2="390.81" y1="361.84" y2="431.83" gradientTransform="matrix(1.1462,-0.122,0.122,1.1462,-115.67,-52.252)" gradientUnits="userSpaceOnUse"><stop id="stop3324" offset="0" stop-color="#898989"/><stop id="stop3326" offset="1" stop-color="#fff"/></linearGradient><linearGradient id="linearGradient3184" x1="377.14" x2="418.57" y1="843.79" y2="869.5" gradientTransform="matrix(0.7943,0,0,0.7155,276.51,398.97)" gradientUnits="userSpaceOnUse" xlink:href="#linearGradient3160"/><linearGradient id="linearGradient3160"><stop id="stop3162" offset="0"/><stop id="stop3164" offset="1" stop-color="#f2f2f2"/></linearGradient><linearGradient id="linearGradient3229" x1="573.18" x2="521.11" y1="1087" y2="1064.9" gradientTransform="translate(149.38,-48.715)" gradientUnits="userSpaceOnUse" xlink:href="#linearGradient3160"/><linearGradient id="linearGradient3714"><stop id="stop3716" offset="0"/><stop id="stop3718" offset="1" stop-color="#f2f2f2"/></linearGradient><linearGradient id="linearGradient3246" x1="521.11" x2="573.18" y1="1075.9" y2="1075.9" gradientTransform="translate(149.38,-48.715)" gradientUnits="userSpaceOnUse" xlink:href="#linearGradient3160"/><linearGradient id="linearGradient3721"><stop id="stop3723" offset="0"/><stop id="stop3725" offset="1" stop-color="#f2f2f2"/></linearGradient><linearGradient id="linearGradient3226" x1="304.08" x2="357.35" y1="901.65" y2="901.65" gradientUnits="userSpaceOnUse"><stop id="stop3218" offset="0"/><stop id="stop3220" offset="1" stop-color="#bebebe"/></linearGradient><linearGradient id="linearGradient3220" x1="377.14" x2="418.57" y1="843.79" y2="869.5" gradientTransform="matrix(0.7943,0,0,0.7155,243.46,399.25)" gradientUnits="userSpaceOnUse" xlink:href="#linearGradient3160"/><linearGradient id="linearGradient3732"><stop id="stop3734" offset="0"/><stop id="stop3736" offset="1" stop-color="#f2f2f2"/></linearGradient><linearGradient id="linearGradient3739" x1="304.08" x2="357.35" y1="901.65" y2="901.65" gradientUnits="userSpaceOnUse"><stop id="stop3741" offset="0"/><stop id="stop3743" offset="1" stop-color="#bebebe"/></linearGradient><linearGradient id="linearGradient3238" x1="318.5" x2="294" y1="1079.3" y2="1061.1" gradientTransform="translate(149.38,-48.715)" gradientUnits="userSpaceOnUse" xlink:href="#linearGradient3160"/><linearGradient id="linearGradient3746"><stop id="stop3748" offset="0"/><stop id="stop3750" offset="1" stop-color="#f2f2f2"/></linearGradient><linearGradient id="linearGradient3213" x1="294" x2="318.5" y1="1061.1" y2="1079.3" gradientTransform="translate(149.38,-48.715)" gradientUnits="userSpaceOnUse" xlink:href="#linearGradient3160"/><linearGradient id="linearGradient3753"><stop id="stop3755" offset="0"/><stop id="stop3757" offset="1" stop-color="#f2f2f2"/></linearGradient><linearGradient id="linearGradient3242" x1="350.52" x2="350.52" y1="821.03" y2="793.77" gradientTransform="translate(160.3,106.24)" gradientUnits="userSpaceOnUse"><stop id="stop3235" offset="0" stop-color="#ff0"/><stop id="stop3237" offset="1" stop-color="#ff0" stop-opacity="0"/></linearGradient><linearGradient id="linearGradient4719" x1="427.57" x2="459.57" y1="1240.9" y2="1240.9" gradientTransform="matrix(1.2255,0,0,1.152,68.62,-466.66)" gradientUnits="userSpaceOnUse" xlink:href="#linearGradient4713"/><linearGradient id="linearGradient4713"><stop id="stop4715" offset="0" stop-color="red"/><stop id="stop4717" offset="1" stop-color="red" stop-opacity="0"/></linearGradient><linearGradient id="linearGradient4727" x1="443.29" x2="475.29" y1="1009.5" y2="1009.5" gradientTransform="matrix(1.2255,0,0,1.152,49.362,-200.04)" gradientUnits="userSpaceOnUse" xlink:href="#linearGradient4721"/><linearGradient id="linearGradient4721"><stop id="stop4723" offset="0" stop-color="#fff"/><stop id="stop4725" offset="1" stop-color="#fff" stop-opacity="0"/></linearGradient><linearGradient id="linearGradient4731" x1="427.57" x2="459.57" y1="1240.9" y2="1240.9" gradientTransform="matrix(1.2255,0,0,1.152,118.62,-467.37)" gradientUnits="userSpaceOnUse" xlink:href="#linearGradient4713"/><linearGradient id="linearGradient3771"><stop id="stop3773" offset="0" stop-color="red"/><stop id="stop3775" offset="1" stop-color="red" stop-opacity="0"/></linearGradient><linearGradient id="linearGradient4733" x1="443.29" x2="475.29" y1="1009.5" y2="1009.5" gradientTransform="matrix(1.2255,0,0,1.152,99.361,-200.76)" gradientUnits="userSpaceOnUse" xlink:href="#linearGradient4721"/><linearGradient id="linearGradient3778"><stop id="stop3780" offset="0" stop-color="#fff"/><stop id="stop3782" offset="1" stop-color="#fff" stop-opacity="0"/></linearGradient><linearGradient id="linearGradient4751" x1="334.71" x2="376.71" y1="1002.4" y2="1002.4" gradientTransform="translate(149.38,-48.715)" gradientUnits="userSpaceOnUse"><stop id="stop4747" offset="0" stop-color="#0ff"/><stop id="stop4749" offset="1" stop-color="#fff"/></linearGradient><linearGradient id="linearGradient3563" x1="494.24" x2="507.63" y1="347.1" y2="76.294" gradientTransform="translate(-313.09,42.247)" gradientUnits="userSpaceOnUse"><stop id="stop3559" offset="0"/><stop id="stop3561" offset="1" stop-opacity="0"/></linearGradient><filter id="filter4458" color-interpolation-filters="sRGB"><feGaussianBlur id="feGaussianBlur4460" stdDeviation="8.845"/></filter><linearGradient id="linearGradient4573" x1="82.56" x2="94.621" y1="1126.7" y2="1102.5" gradientTransform="matrix(-1.2948,-1.0517,-0.37798,0.46531,867.81,-33.651)" gradientUnits="userSpaceOnUse" xlink:href="#linearGradient14630"/><linearGradient id="linearGradient14630"><stop id="stop14631" offset="0" stop-color="#fff"/><stop id="stop14632" offset="1" stop-color="#fff" stop-opacity="0"/></linearGradient><linearGradient id="linearGradient4570" x1="-960.98" x2="-928.93" y1="563.05" y2="563.05" gradientTransform="matrix(-0.51746,-0.4067,0.36243,-0.74685,-331.74,418.2)" gradientUnits="userSpaceOnUse" xlink:href="#linearGradient26051"/><linearGradient id="linearGradient26051"><stop id="stop26052" offset="0" stop-color="#fff" stop-opacity=".449"/><stop id="stop26053" offset="1" stop-color="#fff" stop-opacity="0"/></linearGradient><filter id="filter6454" width="1.136" height="1.378" x="-.068" y="-.189" color-interpolation-filters="sRGB"><feGaussianBlur id="feGaussianBlur6456" stdDeviation="7.284"/></filter><linearGradient id="linearGradient4551" x1="82.56" x2="94.621" y1="1126.7" y2="1102.5" gradientTransform="matrix(1.6681,0,0,0.59948,24.837,-275.56)" gradientUnits="userSpaceOnUse" xlink:href="#linearGradient14630"/><linearGradient id="linearGradient4076"><stop id="stop4078" offset="0" stop-color="#fff"/><stop id="stop4080" offset="1" stop-color="#fff" stop-opacity="0"/></linearGradient><linearGradient id="linearGradient4548" x1="96.398" x2="142.51" y1="789.25" y2="733.95" gradientTransform="matrix(1.156,0,0,0.86508,22.442,-276.15)" gradientUnits="userSpaceOnUse" xlink:href="#linearGradient14630"/><linearGradient id="linearGradient4083"><stop id="stop4085" offset="0" stop-color="#fff"/><stop id="stop4087" offset="1" stop-color="#fff" stop-opacity="0"/></linearGradient><linearGradient id="linearGradient4545" x1="82.56" x2="94.621" y1="1126.7" y2="1102.5" gradientTransform="matrix(1.5531,0.60876,-0.21878,0.55814,242.02,-319.14)" gradientUnits="userSpaceOnUse" xlink:href="#linearGradient14630"/><linearGradient id="linearGradient4090"><stop id="stop4092" offset="0" stop-color="#fff"/><stop id="stop4094" offset="1" stop-color="#fff" stop-opacity="0"/></linearGradient><linearGradient id="linearGradient4542" x1="82.56" x2="94.621" y1="1126.7" y2="1102.5" gradientTransform="matrix(1.1701,-1.1889,0.42727,0.4205,-456.67,35.746)" gradientUnits="userSpaceOnUse" xlink:href="#linearGradient14630"/><linearGradient id="linearGradient4097"><stop id="stop4099" offset="0" stop-color="#fff"/><stop id="stop4101" offset="1" stop-color="#fff" stop-opacity="0"/></linearGradient><linearGradient id="linearGradient4539" x1="82.56" x2="94.621" y1="1126.7" y2="1102.5" gradientTransform="matrix(0.69089,-1.5183,0.54565,0.24829,-495.04,283.93)" gradientUnits="userSpaceOnUse" xlink:href="#linearGradient14630"/><linearGradient id="linearGradient4104"><stop id="stop4106" offset="0" stop-color="#fff"/><stop id="stop4108" offset="1" stop-color="#fff" stop-opacity="0"/></linearGradient><linearGradient id="linearGradient4536" x1="82.56" x2="94.621" y1="1126.7" y2="1102.5" gradientTransform="matrix(-0.70286,-1.5128,0.54367,-0.2526,-290.4,830.24)" gradientUnits="userSpaceOnUse" xlink:href="#linearGradient14630"/><linearGradient id="linearGradient4111"><stop id="stop4113" offset="0" stop-color="#fff"/><stop id="stop4115" offset="1" stop-color="#fff" stop-opacity="0"/></linearGradient><linearGradient id="linearGradient4533" x1="82.56" x2="94.621" y1="1126.7" y2="1102.5" gradientTransform="matrix(0.25641,-1.6483,-0.59236,-0.092149,851,668.48)" gradientUnits="userSpaceOnUse" xlink:href="#linearGradient14630"/><linearGradient id="linearGradient4118"><stop id="stop4120" offset="0" stop-color="#fff"/><stop id="stop4122" offset="1" stop-color="#fff" stop-opacity="0"/></linearGradient><linearGradient id="linearGradient4530" x1="82.56" x2="94.621" y1="1126.7" y2="1102.5" gradientTransform="matrix(-0.74876,-1.4906,-0.5357,0.26909,944.83,255.49)" gradientUnits="userSpaceOnUse" xlink:href="#linearGradient14630"/><linearGradient id="linearGradient4125"><stop id="stop4127" offset="0" stop-color="#fff"/><stop id="stop4129" offset="1" stop-color="#fff" stop-opacity="0"/></linearGradient><linearGradient id="linearGradient4527" x1="-961.27" x2="-929.41" y1="562.82" y2="562.82" gradientTransform="matrix(0.5769,-0.25828,0.2613,1.0001,490.26,-420.38)" gradientUnits="userSpaceOnUse" xlink:href="#linearGradient26051"/><linearGradient id="linearGradient4132"><stop id="stop4134" offset="0" stop-color="#fff" stop-opacity=".449"/><stop id="stop4136" offset="1" stop-color="#fff" stop-opacity="0"/></linearGradient><linearGradient id="linearGradient4524" x1="-961.12" x2="-929.16" y1="562.94" y2="562.94" gradientTransform="matrix(0.42511,-0.53051,0.57538,0.68663,219.53,-461.45)" gradientUnits="userSpaceOnUse" xlink:href="#linearGradient26051"/><linearGradient id="linearGradient4139"><stop id="stop4141" offset="0" stop-color="#fff" stop-opacity=".449"/><stop id="stop4143" offset="1" stop-color="#fff" stop-opacity="0"/></linearGradient><linearGradient id="linearGradient4521" x1="-961.33" x2="-929.51" y1="562.77" y2="562.77" gradientTransform="matrix(-0.019583,-0.86239,1.1799,-0.025248,-445.95,-360.55)" gradientUnits="userSpaceOnUse" xlink:href="#linearGradient26051"/><linearGradient id="linearGradient4146"><stop id="stop4148" offset="0" stop-color="#fff" stop-opacity=".449"/><stop id="stop4150" offset="1" stop-color="#fff" stop-opacity="0"/></linearGradient><linearGradient id="linearGradient4518" x1="-961.05" x2="-929.04" y1="562.99" y2="562.99" gradientTransform="matrix(-0.5802,-0.42153,0.40645,-0.77422,-466.27,461.47)" gradientUnits="userSpaceOnUse" xlink:href="#linearGradient26051"/><linearGradient id="linearGradient4153"><stop id="stop4155" offset="0" stop-color="#fff" stop-opacity=".449"/><stop id="stop4157" offset="1" stop-color="#fff" stop-opacity="0"/></linearGradient><linearGradient id="linearGradient4515" x1="-1006.6" x2="-953.88" y1="448.68" y2="299.89" gradientTransform="matrix(0.93941,0,0,1.4462,1410.7087,-332.72518)" gradientUnits="userSpaceOnUse" xlink:href="#linearGradient17250"/><linearGradient id="linearGradient17250"><stop id="stop17251" offset="0" stop-color="#dc0000"/><stop id="stop17252" offset="1" stop-color="#ffb200"/></linearGradient><linearGradient id="linearGradient4498" x1="9.655" x2="323.1" y1="256.78" y2="500.8" gradientTransform="matrix(0.80596,0,0,1.2407,303.20972,-281.20518)" gradientUnits="userSpaceOnUse"><stop id="stop29187" offset="0" stop-color="#fff"/><stop id="stop29188" offset="1" stop-color="#fff" stop-opacity="0"/></linearGradient><linearGradient id="linearGradient4512" x1="-1308.2" x2="-1335" y1="330.2" y2="272.82" gradientTransform="matrix(0.70158,0,0,1.9364,1410.7087,-332.72518)" gradientUnits="userSpaceOnUse" xlink:href="#linearGradient17250"/><linearGradient id="linearGradient4167"><stop id="stop4169" offset="0" stop-color="#dc0000"/><stop id="stop4171" offset="1" stop-color="#ffb200"/></linearGradient><linearGradient id="linearGradient4507" x1="78.646" x2="122.42" y1="743.14" y2="713.55" gradientTransform="matrix(1.156,0,0,0.86508,307.95072,-293.39518)" gradientUnits="userSpaceOnUse" xlink:href="#linearGradient14630"/><linearGradient id="linearGradient4174"><stop id="stop4176" offset="0" stop-color="#fff"/><stop id="stop4178" offset="1" stop-color="#fff" stop-opacity="0"/></linearGradient><linearGradient id="linearGradient4501" x1="468.41" x2="502.45" y1="232.9" y2="232.9" gradientTransform="matrix(0.60694,0,0,1.6476,285.60132,-267.66518)" gradientUnits="userSpaceOnUse" xlink:href="#linearGradient26051"/><linearGradient id="linearGradient4181"><stop id="stop4183" offset="0" stop-color="#fff" stop-opacity=".449"/><stop id="stop4185" offset="1" stop-color="#fff" stop-opacity="0"/></linearGradient><linearGradient id="linearGradient4493" x1="230.94" x2="163.66" y1="927.57" y2="832.44" gradientTransform="matrix(1.3185,0,0,0.75843,23.041,-277.35)" gradientUnits="userSpaceOnUse" xlink:href="#linearGradient14630"/><linearGradient id="linearGradient4188"><stop id="stop4190" offset="0" stop-color="#fff"/><stop id="stop4192" offset="1" stop-color="#fff" stop-opacity="0"/></linearGradient><linearGradient id="linearGradient4489" x1="124.57" x2="153.34" y1="931.46" y2="853.1" gradientTransform="matrix(1.3317,0,0,0.75092,22.742,-276.15)" gradientUnits="userSpaceOnUse"><stop id="stop13378" offset="0" stop-color="#fdffff"/><stop id="stop13379" offset="1" stop-color="#fdffff" stop-opacity="0"/></linearGradient><filter id="filter8363" width="1.252" height="1.682" x="-.126" y="-.341" color-interpolation-filters="sRGB"><feGaussianBlur id="feGaussianBlur8365" stdDeviation="5.463"/></filter><linearGradient id="linearGradient9274" x1="82.56" x2="94.621" y1="1126.7" y2="1102.5" gradientTransform="matrix(1.1002,-1.2538,0.4506,0.39539,-311.02,864.05)" gradientUnits="userSpaceOnUse" xlink:href="#linearGradient14630"/><linearGradient id="linearGradient4200"><stop id="stop4202" offset="0" stop-color="#fff"/><stop id="stop4204" offset="1" stop-color="#fff" stop-opacity="0"/></linearGradient><linearGradient id="linearGradient9276" x1="78.646" x2="122.42" y1="743.14" y2="713.55" gradientTransform="matrix(-0.34546,-1.1031,0.82555,-0.25853,-265.09,1483.1)" gradientUnits="userSpaceOnUse" xlink:href="#linearGradient14630"/><linearGradient id="linearGradient4207"><stop id="stop4209" offset="0" stop-color="#fff"/><stop id="stop4211" offset="1" stop-color="#fff" stop-opacity="0"/></linearGradient><linearGradient id="linearGradient4479" x1="-916.9" x2="-857.96" y1="438.47" y2="362.16" gradientTransform="matrix(0.92675,0,0,1.4659,1410.7087,-332.72518)" gradientUnits="userSpaceOnUse" xlink:href="#linearGradient17250"/><linearGradient id="linearGradient4214"><stop id="stop4216" offset="0" stop-color="#dc0000"/><stop id="stop4218" offset="1" stop-color="#ffb200"/></linearGradient><linearGradient id="linearGradient4476" x1="501.4" x2="317.14" y1="384.4" y2="485.78" gradientTransform="matrix(0.7951,0,0,1.2577,309.30472,-296.10518)" gradientUnits="userSpaceOnUse" xlink:href="#linearGradient14630"/><linearGradient id="linearGradient4221"><stop id="stop4223" offset="0" stop-color="#fff"/><stop id="stop4225" offset="1" stop-color="#fff" stop-opacity="0"/></linearGradient><linearGradient id="linearGradient4473" x1="533.78" x2="572.41" y1="294.87" y2="294.87" gradientTransform="matrix(0.60253,0,0,1.6597,285.60132,-269.69518)" gradientUnits="userSpaceOnUse" xlink:href="#linearGradient26051"/><linearGradient id="linearGradient4228"><stop id="stop4230" offset="0" stop-color="#fff" stop-opacity=".449"/><stop id="stop4232" offset="1" stop-color="#fff" stop-opacity="0"/></linearGradient><linearGradient id="linearGradient4470" x1="-1131" x2="-1102.7" y1="404.58" y2="306.76" gradientTransform="matrix(0.79621,0,0,1.7063,1410.7087,-332.72518)" gradientUnits="userSpaceOnUse" xlink:href="#linearGradient17250"/><linearGradient id="linearGradient4235"><stop id="stop4237" offset="0" stop-color="#dc0000"/><stop id="stop4239" offset="1" stop-color="#ffb200"/></linearGradient><linearGradient id="linearGradient4466" x1="349.43" x2="390.32" y1="179.97" y2="179.97" gradientTransform="matrix(0.54412,0,0,1.8378,285.60132,-267.66518)" gradientUnits="userSpaceOnUse" xlink:href="#linearGradient26051"/><linearGradient id="linearGradient4242"><stop id="stop4244" offset="0" stop-color="#fff" stop-opacity=".449"/><stop id="stop4246" offset="1" stop-color="#fff" stop-opacity="0"/></linearGradient><linearGradient id="linearGradient4463" x1="198.88" x2="342.54" y1="246.21" y2="403.09" gradientTransform="matrix(0.68311,0,0,1.4639,307.95072,-300.84518)" gradientUnits="userSpaceOnUse" xlink:href="#linearGradient14630"/><linearGradient id="linearGradient4249"><stop id="stop4251" offset="0" stop-color="#fff"/><stop id="stop4253" offset="1" stop-color="#fff" stop-opacity="0"/></linearGradient><linearGradient id="linearGradient4504" x1="110.45" x2="239.46" y1="244.05" y2="376.9" gradientTransform="matrix(0.60192,0,0,1.6614,311.50872,-286.69518)" gradientUnits="userSpaceOnUse" xlink:href="#linearGradient14630"/><linearGradient id="linearGradient4256"><stop id="stop4258" offset="0" stop-color="#fff"/><stop id="stop4260" offset="1" stop-color="#fff" stop-opacity="0"/></linearGradient></defs><metadata id="metadata3829"/><g id="layer1" transform="translate(-245.83002,-772.69978)"><g id="layer1-5" transform="matrix(0.38074362,0,0,0.38074362,222.62345,766.6728)"><g id="g9278"><g id="g5457" transform="translate(-289.18837,9.2858648)"><path id="path15991" fill="url(#linearGradient4515)" fill-rule="evenodd" stroke="#ff0" stroke-opacity=".504" stroke-width="2.156" d="m 420.51872,247.77482 c 19.34,57.18 49.95,87.5 104.82,90.97 60.35,19.34 116.38,-20.22 100.49,-82.3 -7.22,13.28 -11.84,20.5 -24.25,24.25 4.91,-34.36 -26.57,-40.14 -11.27,-77.1 10.69,-22.81 17.04,-50.82 -1.73,-73.64 -7.79,25.99 -17.32,43.32 -36.38,62.38 2.02,-31.77 18.77,-57.47 8.66,-87.5 1.44,-20.209998 -31.77,-19.639998 -32.05,-81.434998 -21.08,26.568 -30.04,47.07 -26.86,87.494998 -7.8,32.64 -26.86,44.47 -23.39,79.71 -2.89,-19.64 -4.91,-36.68 -0.87,-51.12 -2.31,-17.9 -4.62,-33.21 -22.52,-45.909998 5.49,22.229998 11.84,55.729998 -6.93,64.099998 -5.2,10.69 -31.19,47.36 -2.6,104.83 -8.37,-4.91 -16.75,-6.35 -25.12,-14.73 z"/><path id="path29198" fill="url(#linearGradient4498)" fill-rule="evenodd" d="m 522.51872,35.841822 c -14.99,19.685 -21.35,44.824 -19.44,69.332998 1.43,11.99 -4.94,23.15 -9.48,33.86 -8.34,15.96 -15.89,33.39 -13.61,51.83 -0.65,10.63 -5.37,-0.08 -4.88,-5.43 -2.26,-15.03 -3.23,-30.63 -0.14,-45.52 -1.56,-14.49 -5.23,-30.2 -17.2,-39.73 3.56,17.2 8.18,36.59 -0.4,53.03 -3.08,5.51 -9.96,7.01 -11.4,13.63 -14.45,25.3 -15.53,56.84 -4.57,83.63 2.28,6.1 5.26,11.92 7.84,17.9 -8.04,-4.6 -16.88,-7.72 -24.65,-12.75 10.77,31.54 31.26,62.58 63.6,74.86 12.71,5.41 26.58,6.42 40.02,8.55 29.45,9.2 66,3.16 85.43,-22.47 11.41,-14.83 14.58,-34.84 10.7,-52.91 -5.15,10.4 -14.06,18.83 -25.57,21.5 2.65,-13.35 -1.38,-26.72 -8.28,-38.14 -7.44,-12.18 -9.2,-27.59 -3.25,-40.76 9.01,-19.76 15.83,-43.68 5.33,-64.25 -3.25,-9.5 -5.54,-3.67 -7.19,3.06 -6.86,21.12 -20.73,39.09 -36.42,54.5 1.09,-21.55 8.61,-41.94 11.8,-63.12 1.83,-10.79 -0.27,-21.62 -2.53,-32.07 -1.54,-11.739998 -13.77,-17.769998 -18.94,-27.820998 -9.2,-13.374 -12.26,-29.996 -12.8,-45.962 -1.32,1.75 -2.64,3.5 -3.97,5.25 z"/><path id="path15990" fill="url(#linearGradient4512)" fill-rule="evenodd" stroke="#ff0" stroke-opacity=".504" stroke-width="2.156" d="m 519.27872,330.07482 c -45.92,-48.51 -53.72,-82.3 -23.39,-114.35 34.07,-60.64 25.7,-98.76 0.86,-135.149998 23.39,80.569998 -27.72,132.549998 -44.18,155.939998 -9.82,-30.32 -1.44,-43.32 12.13,-80.57 -26.57,28.88 -42.74,63.82 -32.92,97.03 17.9,49.96 60.06,60.93 87.5,77.1 z"/><path id="path15994" fill="gold" fill-rule="evenodd" stroke="#ff0" stroke-opacity=".504" stroke-width="2.156" d="m 574.99872,146.77482 c -6.16,-17.9 -1.13,-21.73 4.26,-29.55 5.56,-2.17 3.85,-9.72 6.89,-26.539998 4.59,18.769998 16.93,27.309998 -11.15,56.089998 z"/><path id="path20387" fill="none" stroke="#000" stroke-opacity=".179" stroke-width="1.448" d="m 453.37872,343.15482 13.06,-5.94"/><path id="path24159" fill="url(#linearGradient4507)" fill-rule="evenodd" d="m 422.62872,324.43482 26.98,-14.9 22.08,17.69 -5.39,9.14 -13.84,5.94 -29.83,-17.87 z"/><path id="path28563" fill="url(#linearGradient4501)" fill-rule="evenodd" d="m 581.91872,87.744822 c -1.88,7.98 -1.03,16.769998 -4.5,24.219998 -8.15,6.22 -11.7,17.77 -8.13,27.58 1.11,8.22 3.68,9.64 8.24,2.13 9.73,-10.01 18.84,-24.36 13.3,-38.71 -2.5,-7.319998 -4.69,-14.749998 -7.48,-21.972998 -0.48,2.253 -0.96,4.503 -1.43,6.753 z"/><path id="path15993" fill="gold" fill-rule="evenodd" stroke="#ff0" stroke-opacity=".504" stroke-width="2.156" d="m 614.56872,256.44482 c 15.88,-15.31 12.71,-21.95 11.26,-32.92 -4.62,-5.2 1.16,-12.13 6.93,-31.19 -14.72,17.04 -32.05,19.35 -18.19,64.11 z"/><path id="path15992" fill="url(#linearGradient4479)" fill-rule="evenodd" stroke="#ff0" stroke-opacity=".504" stroke-width="2.156" d="m 540.06872,330.07482 c 17.9,-10.1 22.81,-41.87 25.12,-77.1 4.33,-34.08 13,-68.15 70.17,-73.64 -23.39,18.77 -42.45,41.87 -33.78,84.9 -2.31,62.67 -48.81,60.36 -61.51,65.84 z"/><path id="path26056" fill="url(#linearGradient4476)" fill-rule="evenodd" d="m 628.76872,174.35482 c -24.38,3.46 -49.51,18.11 -56.66,42.99 -11.49,31.1 -5.14,66.49 -20.8,96.36 -5.95,2.58 -4.5,13.67 2.85,11.5 21.51,-3.9 41.94,-18.85 47.39,-40.78 5.25,-15.24 2.27,-31.35 1.71,-47 0.72,-22.69 13.86,-43.16 31.11,-57.16 3.02,-4.35 -2.02,-5.81 -5.6,-5.91 z"/><path id="path28562" fill="url(#linearGradient4473)" fill-rule="evenodd" d="m 629.06872,186.24482 c -9.82,10.4 -24.08,20.13 -23.73,36.12 -0.73,11.46 3.35,22.38 5.89,33.38 8.53,-8.14 18.22,-18.74 15.1,-31.58 -0.03,-5.65 -4.29,-10.6 -0.94,-16.11 3.21,-8.73 6.57,-17.41 8.81,-26.47 -1.71,1.55 -3.42,3.1 -5.13,4.66 z"/><path id="path15989" fill="url(#linearGradient4470)" fill-rule="evenodd" stroke="#ff0" stroke-opacity=".504" stroke-width="2.156" d="m 508.87872,306.68482 c -2.31,-27.72 -5.49,-47.65 29.46,-72.77 59.19,-41.29 30.03,-65.26 -6.93,-108.29 10.97,42.74 -6.65,76.81 -21.66,99.63 -9.82,14.15 -43.9,43.02 -0.87,81.43 z"/><path id="path15995" fill="gold" fill-rule="evenodd" stroke="#ff0" stroke-opacity=".504" stroke-width="2.156" d="m 486.29872,103.33482 c 15.99,-18.409998 11.88,-25.986998 9.27,-38.662998 -5.55,-5.843 0.13,-14.122 4.68,-36.476 -14.56,20.374 -33.35,23.763 -13.95,75.138998 z"/><path id="path28564" fill="url(#linearGradient4466)" fill-rule="evenodd" d="m 496.41872,24.272822 c -9.31,12.174 -23.43,23.408 -22.69,40.281 -0.1,14.03 5.43,27.121 9.56,40.280998 8.44,-9.629998 17.42,-21.869998 13.66,-35.444998 0.03,-5.372 -3.73,-9.542 -3.84,-14.616 2.06,-11.975 6.31,-23.543 7.99,-35.626 -1.56,1.708 -3.12,3.417 -4.68,5.125 z"/><path id="path26055" fill="url(#linearGradient4463)" fill-rule="evenodd" d="m 530.50872,118.46482 c 6.41,29.13 -0.19,59.83 -14.93,85.42 -9.15,17.6 -27.2,31.08 -28.92,52.01 -2.76,18.25 10.39,33.46 22.57,45.24 4.96,6.24 0.71,-8.51 1.38,-11.96 -1.98,-17.95 1.1,-38.09 15.58,-50.4 16.13,-15.69 39.13,-26.56 46.85,-49.11 5.23,-19.91 -8.7,-37.76 -20.84,-51.9 -7.32,-8.88 -15.04,-17.41 -22.72,-25.99 0.35,2.23 0.69,4.46 1.03,6.69 z"/><path id="path26054" fill="url(#linearGradient4504)" fill-rule="evenodd" d="m 501.41872,92.614822 c 0.63,13.779998 4.55,27.419998 2.75,41.329998 -1.58,32.46 -15.84,63 -35.54,88.41 -3.65,5.19 -7.54,10.21 -11.31,15.32 -5.03,-16.77 -2.76,-34.86 4.02,-50.77 3.57,-8.51 6.08,-17.34 7.39,-26.48 -18.82,17.17 -32.11,40.57 -36.78,65.63 -3.79,23.17 4.36,46.99 19.73,64.4 19.32,22.8 47.11,35.61 74.05,47.06 -15.26,-21.46 -36.51,-40.83 -41.02,-67.96 -3.1,-15.75 3.1,-31.55 13.45,-43.33 11.84,-16.27 19.21,-35.61 23.59,-55.15 5.69,-25.43 1.13,-52.94 -12.77,-74.989998 -3.43,-2.51 -9.56,-15.687 -7.56,-3.47 z"/></g></g></g></g></svg>