<svg xmlns="http://www.w3.org/2000/svg" xmlns:svg="http://www.w3.org/2000/svg" xmlns:xlink="http://www.w3.org/1999/xlink" id="svg3906" width="70" height="82" version="1.1"><defs id="defs3908"><linearGradient id="linearGradient1556" x1="-226.28" x2="-163.16" y1="-31.806" y2="33.194" gradientTransform="matrix(0.66813,0,0,0.66813,172.36,31.338)" gradientUnits="userSpaceOnUse" xlink:href="#linearGradient3960"/><linearGradient id="linearGradient3960"><stop id="stop3962" offset="0" stop-color="#fff"/><stop id="stop3964" offset="1" stop-color="#fff" stop-opacity="0"/></linearGradient><linearGradient id="linearGradient1614" x1="-186.22" x2="-144.16" y1="23.194" y2="71.344" gradientTransform="matrix(0.66813,0,0,0.66813,172.36,31.338)" gradientUnits="userSpaceOnUse" xlink:href="#linearGradient3057"/><linearGradient id="linearGradient3057"><stop id="stop3059" offset="0" stop-color="#fff" stop-opacity="0"/><stop id="stop3061" offset="1" stop-color="#000" stop-opacity=".336"/></linearGradient><linearGradient id="linearGradient4217" x1="-186.22" x2="-144.16" y1="23.194" y2="71.344" gradientTransform="matrix(0.66813,0,0,0.66813,172.36,31.338)" gradientUnits="userSpaceOnUse" xlink:href="#linearGradient3057"/></defs><metadata id="metadata3911"/><g id="layer1"><g id="g2525" transform="translate(-14.381824,-2.6864258)"><path id="path2507" fill="#000" fill-opacity=".376" d="M 52.299,30.912 V 82.591 H 70.943 V 7.662 l -12.385,-2e-4 c -2.93,8.8772 -12.651,13.422 -28.898,13.422 v 9.828 h 22.639"/><path id="path1616" fill="#000" fill-opacity=".376" d="M 51.402,30.015 V 81.693 H 70.046 V 6.764 l -12.385,4e-4 c -2.93,8.8776 -12.651,13.422 -28.898,13.422 v 9.829 h 22.639"/><path id="text1403" fill="#0200ff" d="M 50.056,28.668 V 80.347 H 68.699 V 5.418 l -12.384,3e-4 c -2.93,8.8777 -12.652,13.422 -28.898,13.422 v 9.828 h 22.639"/><path id="path1502" fill="url(#linearGradient1556)" d="m 59.985,6.7215 c -2.277,-0.3843 -3.487,0.7317 -4.134,2.7978 -5.693,8.8457 -17.302,10.313 -26.872,10.753 -1.169,2.114 0.302,4.742 -0.083,7.057 h 22.486 v 51.676 h 15.973 v -72.2 C 64.898,6.9 62.441,6.6292 59.985,6.7218 z"/><path id="path1612" fill="url(#linearGradient4217)" stroke="#000" stroke-dasharray="none" stroke-miterlimit="4" stroke-opacity="1" stroke-width="2" d="m 58.219875,5.8809643 c -2.024839,0.035968 -2.058089,1.9925036 -2.705089,3.386175 -5.693,8.8456997 -17.470107,9.8927317 -27.040107,10.3327317 -1.169,2.114 -0.03421,5.91875 -0.419215,8.23375 l 22.822215,0.840536 0,51.171679 17.14975,0.168107 0.336214,-73.5448573 C 64.777921,6.5308781 61.137228,5.5223552 58.219875,5.8809643 z"/></g></g></svg>