<svg xmlns="http://www.w3.org/2000/svg" xmlns:svg="http://www.w3.org/2000/svg" xmlns:xlink="http://www.w3.org/1999/xlink" id="svg3906" width="70" height="82" version="1.1"><defs id="defs3908"><linearGradient id="linearGradient1562" x1="-224.91" x2="-153.91" y1="104.94" y2="177.94" gradientTransform="matrix(0.66813,0,0,0.66813,172.36,31.338)" gradientUnits="userSpaceOnUse" xlink:href="#linearGradient3960"/><linearGradient id="linearGradient3960"><stop id="stop3962" offset="0" stop-color="#fff"/><stop id="stop3964" offset="1" stop-color="#fff" stop-opacity="0"/></linearGradient><linearGradient id="linearGradient1602" x1="-177.07" x2="-129.24" y1="167.94" y2="219.94" gradientTransform="matrix(0.66813,0,0,0.66813,172.36,31.338)" gradientUnits="userSpaceOnUse" xlink:href="#linearGradient3057"/><linearGradient id="linearGradient3057"><stop id="stop3059" offset="0" stop-color="#fff" stop-opacity="0"/><stop id="stop3061" offset="1" stop-color="#000" stop-opacity=".336"/></linearGradient><linearGradient id="linearGradient4113" x1="-177.07" x2="-129.24" y1="167.94" y2="219.94" gradientTransform="matrix(0.66813,0,0,0.66813,172.36,31.338)" gradientUnits="userSpaceOnUse" xlink:href="#linearGradient3057"/></defs><metadata id="metadata3911"/><g id="layer1"><g id="g2546" transform="translate(-20.648631,-97.188227)"><path id="path2513" fill="#000" fill-opacity=".376" d="m 57.614,102.36 -34.471,45.85 v 12.48 h 37.812 v 16.58 H 79.6 v -16.58 h 9.855 V 148.42 H 79.6 V 102.36 H 57.614 z m 3.341,14.05 v 32.01 H 36.317 l 24.638,-32.01 z"/><path id="path1622" fill="#000" fill-opacity=".376" d="m 56.716,101.46 -34.471,45.85 v 12.49 h 37.812 v 16.57 H 78.702 V 159.8 h 9.855 V 147.52 H 78.702 V 101.46 H 56.716 z m 3.341,14.05 v 32.01 H 35.42 l 24.637,-32.01 z"/><path id="path1432" fill="#ffb300" d="m 55.37,100.11 -34.471,45.85 v 12.49 h 37.812 v 16.58 h 18.645 v -16.58 h 9.855 V 146.17 H 77.356 V 100.11 H 55.37 z m 3.341,14.06 v 32 H 34.074 l 24.637,-32 z"/><path id="path1508" fill="url(#linearGradient1562)" d="m 22.277,146.38 c 0.417,3.56 -0.872,7.3 0.355,10.73 h 37.415 v 16.58 H 76.02 v -16.43 c 3.101,-1.3 7.054,1.31 9.771,-0.63 -0.041,-2.85 0.625,-6.08 -0.188,-8.89 -2.11,-1.74 -5.287,1.34 -7.704,-0.31 -4.013,-2.56 -1.056,-8.22 -1.879,-11.95 V 101.45 H 56.038 C 44.785,116.43 33.531,131.4 22.277,146.38 z m 37.77,-34.18 v 35.31 H 31.359 c 9.562,-12.42 19.125,-24.85 28.688,-37.27 v 1.96 z"/><path id="path1600" fill="url(#linearGradient4113)" stroke="#000" stroke-dasharray="none" stroke-miterlimit="4" stroke-opacity="1" stroke-width="2" d="m 21.82064,145.98068 c -0.03936,3.50296 -0.130415,8.4409 0.12682,11.58568 l 37.52909,0 0.11409,16.80818 17.227989,0 0.22818,-16.08773 c 3.101,-1.3 6.82582,1.65227 9.54282,-0.28773 -0.041,-2.85 1.19545,-8.01953 0.38245,-10.82953 -2.11,-1.74 -6.656079,1.11182 -9.073079,-0.53818 -2.758011,-1.76137 -0.48555,-6.85092 -1.30855,-10.58092 l 0.11409,-35.05681 -20.78063,-0.11409 c -11.253,14.98 -22.84927,30.12113 -34.10327,45.10113 z m 37.54182,0.38842 -26.520291,0.57045 c 9.562,-12.42 17.071381,-21.88366 26.634381,-34.30366 0.198471,12.03906 0.18419,21.6958 -0.11409,33.73321 z"/></g></g></svg>