<svg xmlns="http://www.w3.org/2000/svg" xmlns:svg="http://www.w3.org/2000/svg" xmlns:xlink="http://www.w3.org/1999/xlink" id="svg3906" width="70" height="82" version="1.1"><defs id="defs3908"><linearGradient id="linearGradient1570" x1="-124.94" x2="-56.431" y1="87.857" y2="170.86" gradientTransform="matrix(0.66813,0,0,0.66813,182.36,32.338)" gradientUnits="userSpaceOnUse" xlink:href="#linearGradient3960"/><linearGradient id="linearGradient3960"><stop id="stop3962" offset="0" stop-color="#fff"/><stop id="stop3964" offset="1" stop-color="#fff" stop-opacity="0"/></linearGradient><linearGradient id="linearGradient1598" x1="-83.938" x2="-19.431" y1="149.86" y2="222.86" gradientTransform="matrix(0.66813,0,0,0.66813,182.36,32.338)" gradientUnits="userSpaceOnUse" xlink:href="#linearGradient3057"/><linearGradient id="linearGradient3057"><stop id="stop3059" offset="0" stop-color="#fff" stop-opacity="0"/><stop id="stop3061" offset="1" stop-color="#000" stop-opacity=".336"/></linearGradient><linearGradient id="linearGradient4139" x1="-83.938" x2="-19.431" y1="149.86" y2="222.86" gradientTransform="matrix(0.66813,0,0,0.66813,182.36,32.338)" gradientUnits="userSpaceOnUse" xlink:href="#linearGradient3057"/></defs><metadata id="metadata3911"/><g id="layer1"><g id="g2585" transform="translate(-104.63663,-99.408227)"><path id="path2515" fill="#000" fill-opacity=".376" d="m 169.18,103.35 h -50.47 l -8.39,41.74 h 16.78 c 2,-3.7 6.26,-5.7 11.99,-5.7 9.45,0 15.18,5.39 15.18,14.48 0,8.77 -5.86,14.16 -15.18,14.16 -8.13,0 -12.65,-3.28 -13.05,-9.3 h -18.38 c 0.27,13.1 12.78,21.98 31.16,21.98 20.24,0 34.09,-10.99 34.09,-27.16 0,-15.33 -11.98,-25.89 -29.43,-25.89 -6.26,0 -10.92,1.26 -16.38,4.54 l 3.07,-15.64 h 39.01 v -13.21"/><path id="path1624" fill="#000" fill-opacity=".376" d="m 168.29,102.45 h -50.47 l -8.39,41.75 h 16.78 c 1.99,-3.7 6.25,-5.71 11.98,-5.71 9.46,0 15.18,5.39 15.18,14.48 0,8.77 -5.86,14.16 -15.18,14.16 -8.12,0 -12.65,-3.28 -13.05,-9.3 h -18.38 c 0.27,13.1 12.79,21.98 31.16,21.98 20.25,0 34.1,-10.99 34.1,-27.16 0,-15.32 -11.99,-25.89 -29.43,-25.89 -6.26,0 -10.92,1.27 -16.38,4.54 l 3.06,-15.64 h 39.02 v -13.21"/><path id="path1428" fill="#0f0" d="m 166.94,101.11 h -50.47 l -8.39,41.74 h 16.78 c 2,-3.7 6.26,-5.71 11.98,-5.71 9.46,0 15.19,5.39 15.19,14.48 0,8.77 -5.86,14.16 -15.19,14.16 -8.12,0 -12.65,-3.27 -13.05,-9.3 h -18.37 c 0.26,13.11 12.78,21.99 31.16,21.99 20.24,0 34.09,-11 34.09,-27.17 0,-15.32 -11.99,-25.89 -29.43,-25.89 -6.26,0 -10.92,1.27 -16.38,4.55 l 3.06,-15.64 h 39.02 v -13.21"/><path id="path1510" fill="url(#linearGradient1570)" d="m 109.72,141.47 c 4.87,-0.25 10.03,0.7 14.72,-0.41 6.39,-7.84 20.72,-6.9 26.39,1.31 5.79,8.41 1.64,22.77 -9.25,24.2 -6.94,1.77 -16.97,0 -18.77,-8 -1.21,-2.24 -4.45,0.17 -6.31,-0.75 -2.77,0.67 -8.41,-1.27 -9.6,0.84 1.71,11.63 14.19,17.7 24.9,18.23 13.28,1.49 29.28,-2.78 35.46,-15.56 5.78,-12.31 -0.74,-28.92 -14.18,-32.61 -9.93,-3.59 -21.65,-2.39 -30.15,4 1.35,-6.57 2.6,-13.16 3.91,-19.75 h 38.71 c -0.32,-3.49 0.81,-7.17 -0.34,-10.52 h -47.66 c -2.61,13.01 -5.22,26.02 -7.83,39.02 z"/><path id="path1596" fill="url(#linearGradient4139)" stroke="#000" stroke-dasharray="none" stroke-miterlimit="4" stroke-opacity="1" stroke-width="2" d="m 109.07461,142.11539 c 4.87,-0.25 10.51404,1.18404 15.20404,0.074 6.39,-7.84 20.07461,-7.70673 25.74461,0.50327 5.79,8.41 1.80135,21.64056 -9.08865,23.07056 -6.94,1.77 -15.69712,-0.27711 -17.49712,-8.27711 -1.21,-2.24 -6.67475,-0.4575 -8.4777,-0.75 -3.16932,0.27068 -8.01069,-1.66932 -9.20069,0.44068 1.82409,13.68362 15.0082,20.15126 25.7182,20.68126 13.28,1.49 30.40944,-2.78 36.58944,-15.56 5.78,-12.31 -1.22404,-30.53348 -14.66404,-34.22348 -9.93,-3.59 -21.00461,-2.7127 -29.50461,3.6773 1.35,-6.57 2.2773,-11.06248 3.5873,-17.65248 l 39.19404,0 c -0.32,-3.49 0.81,-8.78347 -0.34,-12.13347 l -49.27347,0.16134 c -2.61,13.01 -5.38135,26.98809 -7.99135,39.98809 z"/></g></g></svg>