<svg xmlns="http://www.w3.org/2000/svg" xmlns:svg="http://www.w3.org/2000/svg" xmlns:xlink="http://www.w3.org/1999/xlink" id="svg3906" width="70" height="82" version="1.1"><defs id="defs3908"><linearGradient id="linearGradient1578" x1="-25.177" x2="66.38" y1="237.45" y2="321.45" gradientTransform="matrix(0.66813,0,0,0.66813,196.36,31.338)" gradientUnits="userSpaceOnUse" xlink:href="#linearGradient3960"/><linearGradient id="linearGradient3960"><stop id="stop3962" offset="0" stop-color="#fff"/><stop id="stop3964" offset="1" stop-color="#fff" stop-opacity="0"/></linearGradient><linearGradient id="linearGradient1582" x1="36.823" x2="94.38" y1="300.45" y2="367.45" gradientTransform="matrix(0.66813,0,0,0.66813,196.36,31.338)" gradientUnits="userSpaceOnUse" xlink:href="#linearGradient3057"/><linearGradient id="linearGradient3057"><stop id="stop3059" offset="0" stop-color="#fff" stop-opacity="0"/><stop id="stop3061" offset="1" stop-color="#000" stop-opacity=".336"/></linearGradient><linearGradient id="linearGradient3983" x1="36.823" x2="94.38" y1="300.45" y2="367.45" gradientTransform="matrix(0.66813,0,0,0.66813,196.36,31.338)" gradientUnits="userSpaceOnUse" xlink:href="#linearGradient3057"/></defs><metadata id="metadata3911"/><g id="layer1"><g id="g2560" transform="translate(-194.77163,-191.69101)"><path id="path2523" fill="#000" fill-opacity=".376" d="m 228.64,194.79 c -18.3,0.41 -30.71,11.08 -30.71,26.41 0,15.43 11.45,26 28.23,26 4.79,0 9.33,-1.05 12.26,-2.74 1.73,-0.95 2.78,-1.91 5.84,-4.66 0,14.27 -5.05,21.34 -15.57,21.34 -6.53,0 -11.05,-2.85 -11.45,-7.28 h -17.99 c 0.4,11.52 12.67,19.98 28.91,19.98 12.12,0 21.3,-4.02 26.9,-11.63 4.92,-6.66 7.85,-17.96 7.85,-30.01 0,-10.88 -2.26,-19.55 -6.52,-25.15 -5.99,-8.04 -15.32,-12.26 -26.64,-12.26 -0.37,0 -0.74,-0.01 -1.11,0 z m -0.1,12.05 c 0.22,-0.01 0.46,0 0.69,0 9.05,0 14.64,5.59 14.64,14.36 0,8.24 -5.87,13.74 -14.39,13.74 -8.52,0 -13.84,-5.39 -13.84,-13.95 0,-8.43 5.03,-13.86 12.9,-14.15 z"/><path id="path1632" fill="#000" fill-opacity=".376" d="m 227.75,193.89 c -18.31,0.41 -30.72,11.08 -30.72,26.41 0,15.43 11.45,26 28.23,26 4.8,0 9.33,-1.05 12.26,-2.74 1.73,-0.95 2.78,-1.91 5.84,-4.65 0,14.26 -5.05,21.34 -15.57,21.34 -6.53,0 -11.04,-2.85 -11.44,-7.29 h -18 c 0.4,11.52 12.67,19.98 28.92,19.98 12.12,0 21.3,-4.02 26.89,-11.63 4.93,-6.66 7.85,-17.96 7.85,-30 0,-10.89 -2.25,-19.56 -6.51,-25.16 -6,-8.03 -15.33,-12.26 -26.65,-12.26 -0.37,0 -0.74,-0.01 -1.1,0 z m -0.11,12.05 c 0.22,-0.01 0.47,0 0.69,0 9.06,0 14.64,5.59 14.64,14.36 0,8.25 -5.86,13.74 -14.39,13.74 -8.52,0 -13.84,-5.38 -13.84,-13.95 0,-8.42 5.03,-13.86 12.9,-14.15 z"/><path id="path1414" fill="#00fff9" d="m 226.4,192.55 c -18.31,0.41 -30.71,11.07 -30.71,26.41 0,15.43 11.45,25.99 28.23,25.99 4.79,0 9.32,-1.04 12.25,-2.73 1.73,-0.95 2.79,-1.91 5.85,-4.66 0,14.27 -5.06,21.34 -15.58,21.34 -6.52,0 -11.04,-2.85 -11.44,-7.29 h -18 c 0.4,11.52 12.67,19.98 28.92,19.98 12.12,0 21.3,-4.02 26.89,-11.63 4.93,-6.65 7.85,-17.95 7.85,-30 0,-10.88 -2.25,-19.56 -6.51,-25.16 -5.99,-8.03 -15.32,-12.25 -26.64,-12.25 -0.37,0 -0.74,-0.01 -1.11,0 z m -0.1,12.04 c 0.22,-0.01 0.46,0 0.69,0 9.05,0 14.63,5.6 14.63,14.37 0,8.24 -5.86,13.74 -14.38,13.74 -8.53,0 -13.85,-5.39 -13.85,-13.95 0,-8.43 5.03,-13.87 12.91,-14.16 z"/><path id="path1518" fill="url(#linearGradient1578)" d="m 226.92,193.84 c -12.33,-0.29 -26.32,6.48 -29.25,19.31 -3.4,12.58 4.88,27.13 17.98,29.46 8.96,2.38 20.02,0.94 26.12,-6.68 2.84,0.1 1.3,4.25 1.38,5.95 0.1,8.33 -5.26,17.81 -14.29,18.25 -5.66,0.74 -13.22,-0.99 -14.97,-7.16 -5.13,0.18 -10.29,-0.43 -15.4,0.23 1.89,11.03 14.07,16.46 24.23,16.95 12.6,1.31 27.47,-3.87 32.11,-16.61 5.74,-13.68 6.16,-29.8 0.89,-43.64 -5.06,-10.72 -17.3,-16.52 -28.8,-16.06 z m 0.8,9.35 c 8.32,-0.19 15.75,7.1 15.32,15.48 0.43,8.41 -7.14,15.83 -15.47,15.45 -7.75,0.44 -15.37,-5.69 -15.51,-13.6 -1.09,-8.16 4.75,-17.2 13.42,-17.22 0.75,-0.04 1.49,-0.1 2.24,-0.11 z"/><path id="path1580" fill="url(#linearGradient3983)" stroke="#000" stroke-dasharray="none" stroke-miterlimit="4" stroke-opacity="1" stroke-width="2" d="m 226.83933,193.43663 c -12.33,-0.29 -26.72337,6.56067 -29.65337,19.39067 -3.4,12.58 5.12202,28.66281 18.22202,30.99281 8.96,2.38 20.26202,0.77865 26.36202,-6.84135 1.95259,1.14876 0.73528,3.03989 0.81528,4.73989 0.1,8.33 -4.53393,17.16461 -13.56393,17.60461 -5.66,0.74 -12.81663,-0.82865 -14.56663,-6.99865 -5.13,0.18 -11.66146,-0.7527 -16.77146,-0.0927 1.89,11.03 14.55404,18.39618 24.71404,18.88618 12.6,1.31 28.92213,-4.51539 33.56213,-17.25539 5.74,-13.68 5.67596,-30.20337 0.40596,-44.04337 -5.06,-10.72 -18.02606,-16.8427 -29.52606,-16.3827 z m 15.31326,25.31404 c 0.43,8.41 -6.25259,15.02327 -14.58259,14.64327 -7.75,0.44 -14.64394,-5.20596 -14.78394,-13.11596 -1.09,-8.16 5.23405,-16.15124 13.90405,-16.17124 9.35756,-0.26155 15.58506,7.2904 15.46248,14.64393 z"/></g></g></svg>