<svg xmlns="http://www.w3.org/2000/svg" xmlns:svg="http://www.w3.org/2000/svg" xmlns:xlink="http://www.w3.org/1999/xlink" id="svg8495" width="134.729" height="136.416" version="1.1"><defs id="defs8497"><linearGradient id="linearGradient10354"><stop id="stop10356" offset="0" stop-color="#fff" stop-opacity="1"/><stop id="stop10358" offset="1" stop-color="#fff" stop-opacity="0"/></linearGradient><linearGradient id="linearGradient10369" x1="60.377" x2="64.426" y1="-27.764" y2="122.07" gradientTransform="matrix(2.1590603,0,0,1.4740295,-930.95446,420.12271)" gradientUnits="userSpaceOnUse" xlink:href="#linearGradient10354"/></defs><metadata id="metadata8500"/><g id="layer1" transform="translate(0.86388243,0.87299985)"><g id="layer1-3" transform="translate(-626.39978,53.460916)"><g id="g6681" transform="matrix(0.98492,0,0,0.98492,3.1957,4.9379)"><g id="g5567" transform="matrix(0.34478,0,0,0.34478,972.14509,-201.71151)"><path id="path10334" fill="#ff0005" fill-opacity="1" fill-rule="evenodd" stroke="#000" stroke-dasharray="none" stroke-dashoffset="0" stroke-linecap="round" stroke-linejoin="round" stroke-miterlimit="4" stroke-opacity="1" stroke-width="2" d="m 133.57143,67.844513 a 66.785713,67.14286 0 1 1 -133.57143,0 66.785713,67.14286 0 1 1 133.57143,0 z" transform="matrix(2.9171757,0,0,2.9450127,-983.44492,411.82398)"/><path id="path10334-2" fill="url(#linearGradient10369)" fill-opacity="1" fill-rule="evenodd" stroke="#000" stroke-dashoffset="0" stroke-linecap="round" stroke-linejoin="round" stroke-miterlimit="4" stroke-opacity="1" stroke-width="0" d="m -641.07833,515.66547 c 10.79759,52.39725 -77.94422,76.04418 -157.58057,76.04418 -79.63636,0 -158.43537,-21.50151 -144.19438,-73.06948 11.89882,-43.08677 76.45684,-95.37977 156.0932,-95.37977 79.63635,0 135.27028,41.88153 145.68175,92.40507 z"/></g></g></g></g></svg>