<svg xmlns="http://www.w3.org/2000/svg" xmlns:svg="http://www.w3.org/2000/svg" xmlns:xlink="http://www.w3.org/1999/xlink" id="svg8495" width="134.729" height="136.416" version="1.1"><defs id="defs8497"><filter id="filter5506-6" color-interpolation-filters="sRGB"><feGaussianBlur id="feGaussianBlur5508-4" stdDeviation="8.389"/></filter><linearGradient id="linearGradient5512-9"><stop id="stop5514-7" offset="0" stop-color="#0033d4" stop-opacity="1"/><stop id="stop5516-5" offset="1" stop-color="#7800d4" stop-opacity="0"/></linearGradient><radialGradient id="radialGradient9480-2" cx="505.96" cy="892.1" r="290.49" gradientTransform="matrix(0.36477581,0.25553174,-0.23168858,0.33073503,-105.91744,349.06912)" gradientUnits="userSpaceOnUse" xlink:href="#linearGradient5512-9"/><linearGradient id="linearGradient9482-4" x1="517.41" x2="486.88" y1="876.72" y2="1204.9" gradientTransform="matrix(0.66434,0,0,0.66434,-878.55264,-231.4481)" gradientUnits="userSpaceOnUse" xlink:href="#linearGradient5512-9"/><linearGradient id="linearGradient5547-9"><stop id="stop5549-5" offset="0" stop-color="#fff"/><stop id="stop5551-5" offset="1" stop-color="#fff" stop-opacity="0"/></linearGradient><linearGradient id="linearGradient9744" x1="-327.05" x2="-456.35" y1="383.05" y2="760.8" gradientTransform="translate(-370.20442,-60.999594)" gradientUnits="userSpaceOnUse" xlink:href="#linearGradient5547-9"/></defs><metadata id="metadata8500"/><g id="layer1" transform="translate(0.86388243,0.87299985)"><g id="layer1-3" transform="translate(-626.39978,53.460916)"><g id="g6681" transform="matrix(0.98492,0,0,0.98492,3.1957,4.9379)"><g id="g5567" transform="matrix(0.34478,0,0,0.34478,972.14509,-201.71151)"><path id="path5470" fill="#ff9300" fill-opacity="1" stroke="#000" stroke-dasharray="none" stroke-miterlimit="4" stroke-opacity="1" stroke-width="5.89" d="m -686.74144,674.62489 6.54375,103.17863 -95.16669,-40.3919 -76.5984,69.4236 -27.72956,-99.5846 -102.06255,-16.6085 60.59445,-83.77991 -50.67585,-90.13765 103.29158,-4.86962 38.87718,-95.81111 68.20113,77.71449 99.15274,-29.3439 -18.24277,101.78353 84.76314,59.22592 z"/><path id="path5542" fill="url(#linearGradient9744)" d="m -861.51442,510.56041 c -5.6206,8.0971 -16.56,3.8726 -24.624,5.5466 -7.4795,0.34904 -14.959,0.69809 -22.439,1.0471 39.051,39.442 90.699,66.546 145.72999,74.77 39.553,7.108 80.068,8.3107 120.17,5.8237 -15.406,-10.76 -30.812,-21.522 -46.219,-32.281 5.6276,-31.491 11.272,-62.979 16.906,-94.469 -30.669,9.0844 -61.339,18.169 -92,27.281 -21.05199,-24.07 -42.13499,-48.081 -63.24999,-72.094 -11.427,28.125 -22.854,56.25 -34.281,84.375 z"/></g></g></g></g></svg>