<svg xmlns="http://www.w3.org/2000/svg" xmlns:svg="http://www.w3.org/2000/svg" xmlns:xlink="http://www.w3.org/1999/xlink" id="svg8495" width="134.729" height="136.416" version="1.1"><defs id="defs8497"><linearGradient id="linearGradient10354"><stop id="stop10356" offset="0" stop-color="#fff" stop-opacity="1"/><stop id="stop10358" offset="1" stop-color="#fff" stop-opacity="0"/></linearGradient><filter id="filter5506-6" color-interpolation-filters="sRGB"><feGaussianBlur id="feGaussianBlur5508-4" stdDeviation="8.389"/></filter><linearGradient id="linearGradient5512-9"><stop id="stop5514-7" offset="0" stop-color="#0033d4" stop-opacity="1"/><stop id="stop5516-5" offset="1" stop-color="#7800d4" stop-opacity="0"/></linearGradient><linearGradient id="linearGradient5547-9"><stop id="stop5549-5" offset="0" stop-color="#fff"/><stop id="stop5551-5" offset="1" stop-color="#fff" stop-opacity="0"/></linearGradient><linearGradient id="linearGradient10369" x1="60.377" x2="64.426" y1="-27.764" y2="122.07" gradientTransform="matrix(0.85207299,0,0,1.4740295,-846.74635,424.40432)" gradientUnits="userSpaceOnUse" xlink:href="#linearGradient10354"/></defs><metadata id="metadata8500"/><g id="layer1" transform="translate(0.86388243,0.87299985)"><g id="layer1-3" transform="translate(-626.39978,53.460916)"><g id="g6681" transform="matrix(0.98492,0,0,0.98492,3.1957,4.9379)"><g id="g5567" transform="matrix(0.34478,0,0,0.34271946,972.14509,-200.86471)"><path id="path10334" fill="#ffef00" fill-opacity="1" fill-rule="evenodd" stroke="#000" stroke-dashoffset="0" stroke-linecap="round" stroke-linejoin="round" stroke-miterlimit="4" stroke-opacity="1" stroke-width="2" d="M 132.50001,135.60268 0.35714286,135.72523 C 3.2772643,120.68802 58.161337,13.933435 66.785713,0.70165253 73.279622,6.1674764 123.27066,116.03431 132.50001,135.60268 z" transform="matrix(2.944808,0,0,2.944808,-983.43117,411.83787)"/><path id="path10334-2" fill="url(#linearGradient10369)" fill-opacity="1" fill-rule="evenodd" stroke="#000" stroke-dashoffset="0" stroke-linecap="round" stroke-linejoin="round" stroke-miterlimit="4" stroke-opacity="1" stroke-width="0" d="m -723.93303,546.24001 c 56.79705,105.67715 -39.17441,49.75125 -70.60289,49.75125 -31.42847,0 -80.48254,8.70687 -61.11316,-39.41453 13.1096,-32.5696 57.96491,-118.81465 69.58026,-131.1491 10.6084,14.39953 41.74944,82.88132 62.13579,120.81238 z"/></g></g></g></g></svg>