<svg xmlns="http://www.w3.org/2000/svg" xmlns:svg="http://www.w3.org/2000/svg" xmlns:xlink="http://www.w3.org/1999/xlink" id="svg2" width="100%" height="100%" version="1.1" viewBox="0 0 799.88 399.941"><defs id="defs6"><linearGradient id="linearGradient5105"><stop id="stop5107" offset="0" stop-color="#ffffb0"/><stop id="stop5109" offset="1" stop-color="#ffff94" stop-opacity="0"/></linearGradient><linearGradient id="linearGradient5067"><stop id="stop5069" offset="0" stop-color="#222"/><stop id="stop5071" offset="1" stop-color="#444"/></linearGradient><linearGradient id="linearGradient5051"><stop id="stop5053" offset="0" stop-color="#e6e6e6"/><stop id="stop5055" offset="1" stop-color="#e6e6e6" stop-opacity="0"/></linearGradient><linearGradient id="linearGradient4986"><stop id="stop4988" offset="0" stop-color="#777"/><stop id="stop4990" offset="1" stop-color="#ccc"/></linearGradient><linearGradient id="linearGradient4972"><stop id="stop4974" offset="0" stop-color="#ff0"/><stop id="stop4976" offset="1" stop-color="#ffff9d"/></linearGradient><radialGradient id="radialGradient4961" cx="880.57" cy="143.43" r="25.024" gradientTransform="matrix(1.775,0,0,4.1672,-1532.2,-525.84)" gradientUnits="userSpaceOnUse"><stop id="stop4957" offset="0" stop-color="#26eab3"/><stop id="stop4959" offset="1" stop-color="#2699b3"/></radialGradient><radialGradient id="radialGradient4978" cx="861.29" cy="99.247" r="3.748" gradientTransform="matrix(0.13329,-0.58453,0.76946,0.17545,-179.7,504.51)" gradientUnits="userSpaceOnUse" xlink:href="#linearGradient4972"/><radialGradient id="radialGradient4982" cx="861.29" cy="99.247" r="3.748" gradientTransform="matrix(-0.13329,-0.58453,-0.76946,0.17545,241,504.51)" gradientUnits="userSpaceOnUse" xlink:href="#linearGradient4972"/><linearGradient id="linearGradient4992" x1="880.93" x2="881.08" y1="96.135" y2="101.26" gradientTransform="translate(-849.83,-80.401)" gradientUnits="userSpaceOnUse" xlink:href="#linearGradient4986"/><radialGradient id="radialGradient5057" cx="941.07" cy="94.305" r="20.058" gradientTransform="matrix(1.6598,0.025518,-0.010304,0.67022,-1530.3,-68.442)" gradientUnits="userSpaceOnUse" xlink:href="#linearGradient5051"/><linearGradient id="linearGradient5073" x1="535.64" x2="535.64" y1="127.25" y2="119.79" gradientTransform="translate(-529.83,-88.401)" gradientUnits="userSpaceOnUse" spreadMethod="reflect" xlink:href="#linearGradient5067"/><linearGradient id="linearGradient5077" x1="535.64" x2="535.64" y1="127.25" y2="119.79" gradientTransform="translate(-529.83,-18.401)" gradientUnits="userSpaceOnUse" spreadMethod="reflect" xlink:href="#linearGradient5067"/><linearGradient id="linearGradient5081" x1="535.64" x2="535.64" y1="127.25" y2="119.79" gradientTransform="translate(-529.83,-6.4008)" gradientUnits="userSpaceOnUse" spreadMethod="reflect" xlink:href="#linearGradient5067"/><radialGradient id="radialGradient5113" cx="460.07" cy="70.065" r="8.93" gradientTransform="matrix(1,0,0,1.0665,-449.83,-65.059)" gradientUnits="userSpaceOnUse" xlink:href="#linearGradient5105"/><radialGradient id="radialGradient5117" cx="460.07" cy="70.065" r="8.93" gradientTransform="matrix(-1,0,0,1.0665,510.31,-65.059)" gradientUnits="userSpaceOnUse" xlink:href="#linearGradient5105"/><radialGradient id="radialGradient5210" cx="480.32" cy="128.39" r="20.074" gradientTransform="matrix(1.5187,0,0,2.7115,-698.96,-271.87)" gradientUnits="userSpaceOnUse"><stop id="stop5204" offset="0" stop-color="#fff"/><stop id="stop5206" offset="1" stop-color="#fff" stop-opacity="0"/></radialGradient><linearGradient id="linearGradient5260" x1="481.48" x2="481.54" y1="167.29" y2="163.42" gradientTransform="translate(0,2)" gradientUnits="userSpaceOnUse" xlink:href="#linearGradient4986"/><radialGradient id="radialGradient5263" cx="520.53" cy="182.99" r="20.058" gradientTransform="matrix(0.86407,0.01482,-0.0098807,0.57607,32.563,55.632)" gradientUnits="userSpaceOnUse" xlink:href="#linearGradient5051"/><linearGradient id="linearGradient5411" x1="454.47" x2="506.69" y1="76.312" y2="76.312" gradientTransform="matrix(1,0,0,0.79792,-449.91,-44.088)" gradientUnits="userSpaceOnUse"><stop id="stop4896" offset="0" stop-color="#ececec"/><stop id="stop4898" offset="1" stop-color="#efefef"/></linearGradient><linearGradient id="linearGradient5543" x1="484.21" x2="480.4" y1="158.63" y2="158.35" gradientTransform="translate(-429.83,-60.401)" gradientUnits="userSpaceOnUse" xlink:href="#linearGradient5051"/><linearGradient id="linearGradient5553" x1="484.42" x2="480.72" y1="106.92" y2="106.92" gradientTransform="translate(-429.83,-60.401)" gradientUnits="userSpaceOnUse" xlink:href="#linearGradient5051"/><filter id="filter5579" color-interpolation-filters="sRGB"><feGaussianBlur id="feGaussianBlur5581" stdDeviation="1.415"/></filter><filter id="filter5595" width="1.095" height="1.486" x="-.048" y="-.243" color-interpolation-filters="sRGB"><feGaussianBlur id="feGaussianBlur5597" stdDeviation="1.12"/></filter><filter id="filter5599" width="1.095" height="1.486" x="-.048" y="-.243" color-interpolation-filters="sRGB"><feGaussianBlur id="feGaussianBlur5601" stdDeviation="1.12"/></filter><filter id="filter5603" width="1.095" height="1.486" x="-.048" y="-.243" color-interpolation-filters="sRGB"><feGaussianBlur id="feGaussianBlur5605" stdDeviation="1.12"/></filter><linearGradient id="linearGradient5612" x1="395.25" x2="399.78" y1="136.1" y2="135.93" gradientTransform="translate(-389.84,-36.867)" gradientUnits="userSpaceOnUse" xlink:href="#linearGradient5051"/><linearGradient id="linearGradient5614" x1="395.25" x2="399.78" y1="136.1" y2="135.93" gradientTransform="translate(-389.84,-48.325)" gradientUnits="userSpaceOnUse" xlink:href="#linearGradient5051"/><linearGradient id="linearGradient5616" x1="395.25" x2="399.78" y1="136.1" y2="135.93" gradientTransform="translate(-389.84,-60.325)" gradientUnits="userSpaceOnUse" xlink:href="#linearGradient5051"/><linearGradient id="linearGradient5618" x1="395.25" x2="399.78" y1="136.1" y2="135.93" gradientTransform="translate(-389.84,-72.054)" gradientUnits="userSpaceOnUse" xlink:href="#linearGradient5051"/><linearGradient id="linearGradient5620" x1="395.25" x2="399.78" y1="136.1" y2="135.93" gradientTransform="translate(-389.84,-95.105)" gradientUnits="userSpaceOnUse" xlink:href="#linearGradient5051"/><linearGradient id="linearGradient5622" x1="395.25" x2="399.78" y1="136.1" y2="135.93" gradientTransform="translate(-389.84,-83.479)" gradientUnits="userSpaceOnUse" xlink:href="#linearGradient5051"/><linearGradient id="linearGradient5624" x1="395.25" x2="399.78" y1="136.1" y2="135.93" gradientTransform="matrix(-1,0,0,1,451.11,-83.479)" gradientUnits="userSpaceOnUse" xlink:href="#linearGradient5051"/><linearGradient id="linearGradient5626" x1="395.25" x2="399.78" y1="136.1" y2="135.93" gradientTransform="matrix(-1,0,0,1,451.11,-60.401)" gradientUnits="userSpaceOnUse" xlink:href="#linearGradient5051"/><linearGradient id="linearGradient7008" x1="535.64" x2="535.64" y1="127.25" y2="119.79" gradientTransform="translate(-529.83,-18.401)" gradientUnits="userSpaceOnUse" spreadMethod="reflect" xlink:href="#linearGradient5067"/><linearGradient id="linearGradient7010" x1="535.64" x2="535.64" y1="127.25" y2="119.79" gradientTransform="translate(-529.83,-6.4008)" gradientUnits="userSpaceOnUse" spreadMethod="reflect" xlink:href="#linearGradient5067"/><linearGradient id="linearGradient7012" x1="535.64" x2="535.64" y1="127.25" y2="119.79" gradientTransform="translate(-529.83,-88.401)" gradientUnits="userSpaceOnUse" spreadMethod="reflect" xlink:href="#linearGradient5067"/><radialGradient id="radialGradient7014" cx="880.57" cy="143.43" r="25.024" gradientTransform="matrix(1.775,0,0,4.1672,-1532.2,-525.84)" gradientUnits="userSpaceOnUse" xlink:href="#radialGradient4961"/><linearGradient id="linearGradient7016" x1="454.47" x2="506.69" y1="76.312" y2="76.312" gradientTransform="matrix(1,0,0,0.79792,-449.91,-44.088)" gradientUnits="userSpaceOnUse" xlink:href="#linearGradient5411"/><linearGradient id="linearGradient7018" x1="880.93" x2="881.08" y1="96.135" y2="101.26" gradientTransform="translate(-849.83,-80.401)" gradientUnits="userSpaceOnUse" xlink:href="#linearGradient4986"/><radialGradient id="radialGradient7020" cx="861.29" cy="99.247" r="3.748" gradientTransform="matrix(0.13329,-0.58453,0.76946,0.17545,-179.7,504.51)" gradientUnits="userSpaceOnUse" xlink:href="#linearGradient4972"/><radialGradient id="radialGradient7022" cx="861.29" cy="99.247" r="3.748" gradientTransform="matrix(-0.13329,-0.58453,-0.76946,0.17545,241,504.51)" gradientUnits="userSpaceOnUse" xlink:href="#linearGradient4972"/><radialGradient id="radialGradient7024" cx="941.07" cy="94.305" r="20.058" gradientTransform="matrix(1.6598,0.025518,-0.010304,0.67022,-1530.3,-68.442)" gradientUnits="userSpaceOnUse" xlink:href="#linearGradient5051"/><linearGradient id="linearGradient7026" x1="481.48" x2="481.54" y1="167.29" y2="163.42" gradientTransform="translate(0,2)" gradientUnits="userSpaceOnUse" xlink:href="#linearGradient4986"/><radialGradient id="radialGradient7028" cx="520.53" cy="182.99" r="20.058" gradientTransform="matrix(0.86407,0.01482,-0.0098807,0.57607,32.563,55.632)" gradientUnits="userSpaceOnUse" xlink:href="#linearGradient5051"/><radialGradient id="radialGradient7030" cx="460.07" cy="70.065" r="8.93" gradientTransform="matrix(1,0,0,1.0665,-449.83,-65.059)" gradientUnits="userSpaceOnUse" xlink:href="#linearGradient5105"/><radialGradient id="radialGradient7032" cx="460.07" cy="70.065" r="8.93" gradientTransform="matrix(-1,0,0,1.0665,510.31,-65.059)" gradientUnits="userSpaceOnUse" xlink:href="#linearGradient5105"/><radialGradient id="radialGradient7034" cx="480.32" cy="128.39" r="20.074" gradientTransform="matrix(1.5187,0,0,2.7115,-698.96,-271.87)" gradientUnits="userSpaceOnUse" xlink:href="#radialGradient5210"/><linearGradient id="linearGradient7036" x1="395.25" x2="399.78" y1="136.1" y2="135.93" gradientTransform="matrix(-1,0,0,1,451.11,-60.401)" gradientUnits="userSpaceOnUse" xlink:href="#linearGradient5051"/><linearGradient id="linearGradient7038" x1="395.25" x2="399.78" y1="136.1" y2="135.93" gradientTransform="matrix(-1,0,0,1,451.11,-83.479)" gradientUnits="userSpaceOnUse" xlink:href="#linearGradient5051"/><linearGradient id="linearGradient7040" x1="395.25" x2="399.78" y1="136.1" y2="135.93" gradientTransform="translate(-389.84,-83.479)" gradientUnits="userSpaceOnUse" xlink:href="#linearGradient5051"/><linearGradient id="linearGradient7042" x1="395.25" x2="399.78" y1="136.1" y2="135.93" gradientTransform="translate(-389.84,-95.105)" gradientUnits="userSpaceOnUse" xlink:href="#linearGradient5051"/><linearGradient id="linearGradient7044" x1="395.25" x2="399.78" y1="136.1" y2="135.93" gradientTransform="translate(-389.84,-72.054)" gradientUnits="userSpaceOnUse" xlink:href="#linearGradient5051"/><linearGradient id="linearGradient7046" x1="395.25" x2="399.78" y1="136.1" y2="135.93" gradientTransform="translate(-389.84,-60.325)" gradientUnits="userSpaceOnUse" xlink:href="#linearGradient5051"/><linearGradient id="linearGradient7048" x1="395.25" x2="399.78" y1="136.1" y2="135.93" gradientTransform="translate(-389.84,-48.325)" gradientUnits="userSpaceOnUse" xlink:href="#linearGradient5051"/><linearGradient id="linearGradient7050" x1="395.25" x2="399.78" y1="136.1" y2="135.93" gradientTransform="translate(-389.84,-36.867)" gradientUnits="userSpaceOnUse" xlink:href="#linearGradient5051"/><linearGradient id="linearGradient7052" x1="484.21" x2="480.4" y1="158.63" y2="158.35" gradientTransform="translate(-429.83,-60.401)" gradientUnits="userSpaceOnUse" xlink:href="#linearGradient5051"/><linearGradient id="linearGradient7054" x1="484.42" x2="480.72" y1="106.92" y2="106.92" gradientTransform="translate(-429.83,-60.401)" gradientUnits="userSpaceOnUse" xlink:href="#linearGradient5051"/></defs><g id="g6957" transform="matrix(0,6.5339562,-5.9840468,0,803.71377,-1.4797607)"><g id="g5607" transform="translate(-369.83,-60.401)"><path id="path5583" fill="gray" d="m 373.58,158.86 c -1.3814,3.5275 -1.4487,7.5477 0,11.067 h 3.3323 37.977 12.615 c 1.7739,-3.5195 1.6914,-7.5397 0,-11.067 h -12.615 -37.977 -3.3323 z" filter="url(#filter5595)"/><path id="path5585" fill="gray" d="m 373.58,170.86 c -1.3814,3.5275 -1.4487,7.5477 0,11.067 h 3.3323 37.977 12.615 c 1.7739,-3.5195 1.6914,-7.5397 0,-11.067 h -12.615 -37.977 -3.3323 z" filter="url(#filter5599)"/><path id="path5587" fill="gray" d="m 373.58,88.856 c -1.3814,3.5275 -1.4487,7.5477 0,11.067 h 3.3323 37.977 12.615 c 1.7739,-3.5195 1.6914,-7.5397 0,-11.067 h -12.615 -37.977 -3.3323 z" filter="url(#filter5603)"/></g><rect id="rect5555" width="50.048" height="117.5" x="5.718" y="13.101" fill="gray" filter="url(#filter5579)" ry="7.912"/><path id="path5075" fill="url(#linearGradient7008)" d="m 3.7498,98.455 c -1.3814,3.5275 -1.4487,7.5477 0,11.067 h 3.3323 37.977 12.615 c 1.7739,-3.5195 1.6914,-7.5397 0,-11.067 H 45.0591 7.0821 3.7498 z"/><path id="path5079" fill="url(#linearGradient7010)" d="m 3.7498,110.46 c -1.3814,3.5275 -1.4487,7.5477 0,11.067 h 3.3323 37.977 12.615 c 1.7739,-3.5195 1.6914,-7.5397 0,-11.067 H 45.0591 7.0821 3.7498 z"/><path id="rect4934" fill="url(#linearGradient7012)" d="m 3.7498,28.455 c -1.3814,3.5275 -1.4487,7.5477 0,11.067 h 3.3323 37.977 12.615 c 1.7739,-3.5195 1.6914,-7.5397 0,-11.067 H 45.0591 7.0821 3.7498 z"/><rect id="rect4951" width="50.048" height="117.5" x="5.718" y="13.101" fill="url(#radialGradient7014)" ry="7.912"/><path id="path5455" fill="#fff" d="m 54.196,75.614 c -3.4652,-0.36346 -4.823,10.343 0,10.894 0,-1.8273 -0.12371,-8.7202 0,-10.894 z"/><path id="rect5392" fill="url(#linearGradient7016)" d="m 12.81,10.919 c -4.5746,0 -8.25,2.9327 -8.25,6.5829 v 5.1865 h 1.0938 v -1.8203 c 0,-3.4973 3.5232,-6.3086 7.9062,-6.3086 h 34.219 c 4.383,0 7.9062,2.8112 7.9062,6.3086 v 1.8203 h 1.0938 v -5.1865 c 0,-3.6502 -3.6754,-6.5829 -8.25,-6.5829 H 12.81 z"/><path id="rect4927" fill="url(#linearGradient7018)" d="m 10.698,21.81 c 10.78,-2.6829 21.221,-5.7177 40.088,0 0.0851,5.1505 -0.0638,10.134 0,14.946 -13.363,-2.066 -26.726,-2.717 -40.088,0 0.11462,-3.73 0.0509,-6.8525 0,-14.946 z"/><path id="path4963" fill="url(#radialGradient7020)" d="m 11.81,14.728 c -2.3716,0 -4.2863,1.5525 -4.2863,3.4698 0,0.74558 0.2845,1.4382 0.77932,2.004 l 6.717,-4.3048 c -0.78651,-0.71404 -1.9343,-1.169 -3.2101,-1.169 z"/><path id="path4980" fill="url(#radialGradient7022)" d="m 49.489,14.728 c 2.3716,0 4.2863,1.5525 4.2863,3.4698 0,0.74558 -0.2845,1.4382 -0.77932,2.004 l -6.717,-4.305 c 0.78651,-0.71405 1.9343,-1.169 3.2101,-1.169 z"/><path id="path4984" fill="#fff" d="m 10.698,22.869 c 10.78,-2.6829 21.221,-5.7177 40.088,0 0.0851,5.1505 -0.0638,10.134 0,14.946 -13.363,-2.066 -26.726,-2.717 -40.088,0 0.11462,-3.73 0.0509,-6.8525 0,-14.946 z"/><path id="path5049" fill="url(#radialGradient7024)" d="m 10.698,22.869 c 10.78,-2.6829 21.221,-5.7177 40.088,0 0.0851,5.1505 -0.0638,10.134 0,14.946 -13.363,-2.066 -26.726,-2.717 -40.088,0 0.11462,-3.73 0.0509,-6.8525 0,-14.946 z"/><g id="g5255" transform="translate(-449.83,-44.401)"><path id="path4953" fill="url(#linearGradient7026)" d="m 460.53,167.77 c 10.78,1.359 21.221,2.8962 40.088,0 0.0851,-2.6089 -0.0638,-5.1333 0,-7.5706 -13.363,1.0465 -26.726,1.3762 -40.088,0 0.11462,1.8894 0.0509,3.4711 0,7.5706 z"/><path id="path5083" fill="#fff" d="m 460.53,166.89 c 10.78,1.359 21.221,2.8962 40.088,0 0.0851,-2.6089 -0.0638,-5.1333 0,-7.5706 -13.363,1.0465 -26.726,1.3762 -40.088,0 0.11462,1.8894 0.0509,3.4711 0,7.5706 z"/><path id="path5093" fill="url(#radialGradient7028)" d="m 460.53,166.89 c 10.78,1.359 21.221,2.8962 40.088,0 0.0851,-2.6089 -0.0638,-5.1333 0,-7.5706 -13.363,2.6811 -26.726,2.2187 -40.088,0 0.11462,1.8894 0.0509,3.4711 0,7.5706 z"/></g><path id="path5103" fill="url(#radialGradient7030)" d="M 8.6958,18.687 1.8096,1.59 l 16.859,-0.94939 -5.224,17.809 z"/><path id="path5115" fill="url(#radialGradient7032)" d="M 51.783,18.687 58.669,1.59 41.81,0.64061 l 5.224,17.809 z"/><path id="rect5199" fill="url(#radialGradient7034)" d="m 10.411,40.346 c 11.902,-2.9432 25.025,-3.4598 40.147,0 -4.0949,27.053 -2.2217,50.752 0,73.034 -13.382,1.4088 -26.765,1.7876 -40.147,0 2.3672,-20.668 3.9918,-42.125 0,-73.034 z" opacity=".884"/><path id="path5313" fill="#ececec" d="m 3.5742,122.66 v 2.113 c 0,3.5079 3.817,6.3391 8.5625,6.3391 h 37.062 c 4.7455,0 8.5312,-2.8313 8.5312,-6.3391 v -2.113 h -1.9688 v 0.0233 c 0,1.7779 -1.0521,3.3599 -2.7188,4.4351 -0.26088,-0.30616 -0.75547,-0.51084 -1.2812,-0.51084 H 9.7921 c -0.5462,0 -0.99525,0.23102 -1.25,0.55728 -1.7161,-1.0756 -2.8125,-2.6734 -2.8125,-4.4815 v -0.0233 H 3.5734 z"/><rect id="rect5333" width="14.279" height="2.767" x="23.513" y="127.85" fill="#ccc" ry="0"/><path id="path5339" fill="red" d="m 14.745,127.43 c 0.16814,2.2433 -3.6003,2.9937 -4.3518,0.89748 -0.90101,-1.7731 1.5373,-4.0072 3.1943,-2.8313 0.68677,0.37197 1.2489,1.1204 1.1575,1.9338 z"/><path id="path5341" fill="red" d="m 52.12,127.43 c 0.1641,2.2199 -3.4293,3.1323 -4.4113,1.1722 -1.2602,-1.7909 1.3152,-4.5001 3.143,-3.224 0.74539,0.38076 1.3662,1.1778 1.2683,2.0518 z"/><path id="path5418" fill="#fff" d="m 7.0675,75.614 c 3.4652,-0.36346 4.823,10.343 0,10.894 0,-1.8273 0.12371,-8.7202 0,-10.894 z"/><path id="path5420" fill="#fff" d="m 7.0675,64.101 c 3.4652,-0.36347 4.823,10.343 0,10.894 0,-1.8273 0.12371,-8.7202 0,-10.894 z"/><path id="path5422" fill="#fff" d="m 7.0675,52.587 c 3.4652,-0.36346 4.823,10.343 0,10.894 0,-1.8273 0.12371,-8.7202 0,-10.894 z"/><path id="path5424" fill="#fff" d="m 7.0675,41.074 c 3.4652,-0.36346 4.823,10.343 0,10.894 0,-1.8273 0.12371,-8.7202 0,-10.894 z"/><path id="path5426" fill="#fff" d="m 7.0675,99.102 c 3.4652,-0.36346 4.823,10.343 0,10.894 0,-1.8273 0.12371,-8.7202 0,-10.894 z"/><path id="path5428" fill="#fff" d="m 7.0675,87.333 c 3.4652,-0.36347 4.823,10.343 0,10.894 0,-1.8273 0.12371,-8.7202 0,-10.894 z"/><path id="path5457" fill="#fff" d="m 54.196,64.101 c -3.4652,-0.36347 -4.823,10.343 0,10.894 0,-1.8273 -0.12371,-8.7202 0,-10.894 z"/><path id="path5434" fill="url(#linearGradient7036)" d="m 53.887,64.099 c -3.2255,0.29873 -4.3598,10.372 0.3125,10.906 0,-1.8273 -0.12371,-8.732 0,-10.906 -0.10829,-0.0114 -0.20845,-0.01 -0.3125,0 z m 0,11.5 c -3.2255,0.29873 -4.3598,10.372 0.3125,10.906 0,-1.8273 -0.12371,-8.732 0,-10.906 -0.10829,-0.0114 -0.20845,-0.01 -0.3125,0 z m 0,11.719 c -0.0557,0.005 -0.10178,0.0204 -0.15625,0.0313 h 0.46875 c 4e-4,-0.007 -4.1e-4,-0.0241 0,-0.0313 -0.10829,-0.0114 -0.20845,-0.01 -0.3125,0 z"/><path id="rect5469" fill="#fff" d="m 52.89,87.224 c -1.0519,0 -1.8995,1.757 -1.8995,3.9375 v 12.5 c 0,2.1805 0.84763,3.9375 1.8995,3.9375 h 0.39197 V 87.224 H 52.89 z"/><path id="path5474" fill="#fff" d="m 53.637,87.287 v 20.375 h 0.6875 V 87.287 H 53.637 z"/><path id="path5493" fill="#fff" d="m 53.33,41.074 c -2.5056,-0.36346 -3.4875,10.343 0,10.894 0,-1.8273 -0.0895,-8.7202 0,-10.894 z"/><path id="path5495" fill="#fff" d="m 54.196,52.604 c -3.4652,-0.36346 -4.823,10.343 0,10.894 0,-1.8273 -0.12371,-8.7202 0,-10.894 z"/><path id="path5502" fill="#fff" d="m 53.637,41.071 v 10.91 h 0.6875 V 41.071 H 53.637 z"/><path id="path5504" fill="url(#linearGradient7038)" d="m 53.887,52.537 c -3.2255,0.29873 -4.3598,10.372 0.3125,10.906 0,-1.8273 -0.12371,-8.732 0,-10.906 -0.10829,-0.0114 -0.20845,-0.01 -0.3125,0 z m 0,11.719 c -0.0557,0.005 -0.10178,0.0203 -0.15625,0.0313 h 0.46875 c 4e-4,-0.007 -4.1e-4,-0.0241 0,-0.0313 -0.10829,-0.0114 -0.20845,-0.01 -0.3125,0 z"/><path id="path5511" fill="url(#linearGradient7040)" d="m 7.3859,52.537 c 3.2255,0.29873 4.3598,10.372 -0.3125,10.906 0,-1.8273 0.12371,-8.732 0,-10.906 0.10829,-0.0114 0.20845,-0.01 0.3125,0 z m 0,11.719 c 0.0557,0.005 0.10178,0.0203 0.15625,0.0313 H 7.0734 c -4e-4,-0.007 4.1e-4,-0.0241 0,-0.0313 0.10829,-0.0114 0.20845,-0.01 0.3125,0 z"/><path id="path5515" fill="url(#linearGradient7042)" d="m 7.3859,40.91 c 3.2255,0.29873 4.3598,10.372 -0.3125,10.906 0,-1.8273 0.12371,-8.732 0,-10.906 0.10829,-0.0114 0.20845,-0.01 0.3125,0 z m 0,11.719 c 0.0557,0.005 0.10178,0.0203 0.15625,0.0313 H 7.0734 c -4e-4,-0.007 4.1e-4,-0.0241 0,-0.0313 0.10829,-0.0114 0.20845,-0.01 0.3125,0 z"/><path id="path5519" fill="url(#linearGradient7044)" d="m 7.3859,63.961 c 3.2255,0.29873 4.3598,10.372 -0.3125,10.906 0,-1.8273 0.12371,-8.732 0,-10.906 0.10829,-0.0114 0.20845,-0.01 0.3125,0 z m 0,11.719 c 0.0557,0.005 0.10178,0.0203 0.15625,0.0313 H 7.0734 c -4e-4,-0.007 4.1e-4,-0.0241 0,-0.0313 0.10829,-0.0114 0.20845,-0.01 0.3125,0 z"/><path id="path5523" fill="url(#linearGradient7046)" d="m 7.3859,75.69 c 3.2255,0.29873 4.3598,10.372 -0.3125,10.906 0,-1.8273 0.12371,-8.732 0,-10.906 0.10829,-0.0114 0.20845,-0.01 0.3125,0 z m 0,11.719 c 0.0557,0.005 0.10178,0.0203 0.15625,0.0313 H 7.0734 c -4e-4,-0.007 4.1e-4,-0.0241 0,-0.0313 0.10829,-0.0114 0.20845,-0.01 0.3125,0 z"/><path id="path5527" fill="url(#linearGradient7048)" d="m 7.3859,87.69 c 3.2255,0.29873 4.3598,10.372 -0.3125,10.906 0,-1.8273 0.12371,-8.732 0,-10.906 0.10829,-0.0114 0.20845,-0.01 0.3125,0 z m 0,11.719 c 0.0557,0.005 0.10178,0.0203 0.15625,0.0313 H 7.0734 c -4e-4,-0.007 4.1e-4,-0.0241 0,-0.0313 0.10829,-0.0114 0.20845,-0.01 0.3125,0 z"/><path id="path5531" fill="url(#linearGradient7050)" d="m 7.3859,99.148 c 3.2255,0.29873 4.3598,10.372 -0.3125,10.906 0,-1.8273 0.12371,-8.732 0,-10.906 0.10829,-0.0114 0.20845,-0.01 0.3125,0 z m 0,11.719 c 0.0557,0.005 0.10178,0.0203 0.15625,0.0313 H 7.0734 c -4e-4,-0.007 4.1e-4,-0.0241 0,-0.0313 0.10829,-0.0114 0.20845,-0.01 0.3125,0 z"/><path id="path5535" fill="url(#linearGradient7052)" d="m 52.89,87.224 c -1.0519,0 -1.8995,1.757 -1.8995,3.9375 v 12.5 c 0,2.1805 0.84763,3.9375 1.8995,3.9375 h 0.39197 V 87.224 H 52.89 z"/><path id="path5545" fill="url(#linearGradient7054)" d="m 53.33,41.074 c -2.5056,-0.36346 -3.4875,10.343 0,10.894 0,-1.8273 -0.0895,-8.7202 0,-10.894 z"/></g><metadata id="metadata5425"/></svg>