<svg xmlns="http://www.w3.org/2000/svg" xmlns:svg="http://www.w3.org/2000/svg" id="svg2" width="100%" height="100%" version="1.0" viewBox="0 0 800.194 400.006"><g id="layer2" transform="translate(-13.894671,145.13591)"><g id="g3094" transform="matrix(2.375027,0,0,1.7837508,-6.8868157,-178.69272)"><g id="g4462" transform="matrix(-1,0,0,-1,354.48127,261.8748)"><rect id="rect3253" width="206.178" height="123.878" x="125.706" y="70.544" fill="#ffbd0f" stroke="#000" stroke-width="2.254" rx="0" ry="6.083"/><g id="g3297" transform="matrix(0.95861231,0,0,1.2150877,-135.79425,-265.29818)"><rect id="rect3255" width="15.449" height="27.571" x="450.63" y="378.45" fill="#3d4248" stroke="#000" stroke-width="1.208" rx="0" ry="6.211"/><rect id="rect3257" width="15.449" height="27.571" x="435.48" y="378.45" fill="#3d4248" stroke="#000" stroke-width="1.208" rx="0" ry="6.211"/><rect id="rect3261" width="15.449" height="27.571" x="420.33" y="378.45" fill="#3d4248" stroke="#000" stroke-width="1.208" rx="0" ry="6.211"/><rect id="rect3263" width="15.449" height="27.571" x="405.18" y="378.45" fill="#3d4248" stroke="#000" stroke-width="1.208" rx="0" ry="6.211"/><rect id="rect3265" width="15.449" height="27.571" x="389.77" y="378.45" fill="#3d4248" stroke="#000" stroke-width="1.208" rx="0" ry="6.211"/><rect id="rect3267" width="15.449" height="27.571" x="374.62" y="378.45" fill="#3d4248" stroke="#000" stroke-width="1.208" rx="0" ry="6.211"/><rect id="rect3269" width="15.449" height="27.571" x="358.71" y="378.45" fill="#3d4248" stroke="#000" stroke-width="1.208" rx="0" ry="6.211"/><rect id="rect3271" width="15.449" height="27.571" x="343.56" y="378.45" fill="#3d4248" stroke="#000" stroke-width="1.208" rx="0" ry="6.211"/><rect id="rect3273" width="15.449" height="27.571" x="327.9" y="378.45" fill="#3d4248" stroke="#000" stroke-width="1.208" rx="0" ry="6.211"/><rect id="rect3275" width="15.449" height="27.571" x="312.75" y="378.45" fill="#3d4248" stroke="#000" stroke-width="1.208" rx="0" ry="6.211"/><rect id="rect3277" width="15.449" height="27.571" x="297.59" y="378.45" fill="#3d4248" stroke="#000" stroke-width="1.208" rx="0" ry="6.211"/><rect id="rect3279" width="9.638" height="27.821" x="272.97" y="378.33" fill="#3d4248" stroke="#000" stroke-width=".959" rx="0" ry="6.267"/><rect id="rect3281" width="9.638" height="27.821" x="481.82" y="378.33" fill="#3d4248" stroke="#000" stroke-width=".959" rx="0" ry="6.267"/><rect id="rect3283" width="5.571" height="28.047" x="267.3" y="378.21" fill="#3d4248" stroke="#000" stroke-width=".732" rx="0" ry="6.318"/><rect id="rect3285" width="5.571" height="28.047" x="492.19" y="378.21" fill="#3d4248" stroke="#000" stroke-width=".732" rx="0" ry="6.318"/><rect id="rect3287" width="2.988" height="28.241" x="264.05" y="378.12" fill="#3d4248" stroke="#000" stroke-width=".538" rx="0" ry="6.362"/><rect id="rect3291" width="2.988" height="28.241" x="498.03" y="378.12" fill="#3d4248" stroke="#000" stroke-width=".538" rx="0" ry="6.362"/><rect id="rect3293" width="15.449" height="27.571" x="466.54" y="378.45" fill="#3d4248" stroke="#000" stroke-width="1.208" rx="0" ry="6.211"/><rect id="rect3295" width="15.449" height="27.571" x="282.19" y="378.45" fill="#3d4248" stroke="#000" stroke-width="1.208" rx="0" ry="6.211"/></g><g id="g3318" transform="matrix(0.95861231,0,0,1.2150877,-134.86441,-423.72131)"><rect id="rect3320" width="15.449" height="27.571" x="450.63" y="378.45" fill="#3d4248" stroke="#000" stroke-width="1.208" rx="0" ry="6.211"/><rect id="rect3322" width="15.449" height="27.571" x="435.48" y="378.45" fill="#3d4248" stroke="#000" stroke-width="1.208" rx="0" ry="6.211"/><rect id="rect3324" width="15.449" height="27.571" x="420.33" y="378.45" fill="#3d4248" stroke="#000" stroke-width="1.208" rx="0" ry="6.211"/><rect id="rect3326" width="15.449" height="27.571" x="405.18" y="378.45" fill="#3d4248" stroke="#000" stroke-width="1.208" rx="0" ry="6.211"/><rect id="rect3328" width="15.449" height="27.571" x="389.77" y="378.45" fill="#3d4248" stroke="#000" stroke-width="1.208" rx="0" ry="6.211"/><rect id="rect3330" width="15.449" height="27.571" x="374.62" y="378.45" fill="#3d4248" stroke="#000" stroke-width="1.208" rx="0" ry="6.211"/><rect id="rect3332" width="15.449" height="27.571" x="358.71" y="378.45" fill="#3d4248" stroke="#000" stroke-width="1.208" rx="0" ry="6.211"/><rect id="rect3334" width="15.449" height="27.571" x="343.56" y="378.45" fill="#3d4248" stroke="#000" stroke-width="1.208" rx="0" ry="6.211"/><rect id="rect3336" width="15.449" height="27.571" x="327.9" y="378.45" fill="#3d4248" stroke="#000" stroke-width="1.208" rx="0" ry="6.211"/><rect id="rect3338" width="15.449" height="27.571" x="312.75" y="378.45" fill="#3d4248" stroke="#000" stroke-width="1.208" rx="0" ry="6.211"/><rect id="rect3340" width="15.449" height="27.571" x="297.59" y="378.45" fill="#3d4248" stroke="#000" stroke-width="1.208" rx="0" ry="6.211"/><rect id="rect3342" width="9.638" height="27.821" x="272.97" y="378.33" fill="#3d4248" stroke="#000" stroke-width=".959" rx="0" ry="6.267"/><rect id="rect3344" width="9.638" height="27.821" x="481.82" y="378.33" fill="#3d4248" stroke="#000" stroke-width=".959" rx="0" ry="6.267"/><rect id="rect3346" width="5.571" height="28.047" x="267.3" y="378.21" fill="#3d4248" stroke="#000" stroke-width=".732" rx="0" ry="6.318"/><rect id="rect3348" width="5.571" height="28.047" x="492.19" y="378.21" fill="#3d4248" stroke="#000" stroke-width=".732" rx="0" ry="6.318"/><rect id="rect3350" width="2.988" height="28.241" x="264.05" y="378.12" fill="#3d4248" stroke="#000" stroke-width=".538" rx="0" ry="6.362"/><rect id="rect3352" width="2.988" height="28.241" x="498.03" y="378.12" fill="#3d4248" stroke="#000" stroke-width=".538" rx="0" ry="6.362"/><rect id="rect3354" width="15.449" height="27.571" x="466.54" y="378.45" fill="#3d4248" stroke="#000" stroke-width="1.208" rx="0" ry="6.211"/><rect id="rect3356" width="15.449" height="27.571" x="282.19" y="378.45" fill="#3d4248" stroke="#000" stroke-width="1.208" rx="0" ry="6.211"/></g><rect id="rect3359" width="128.914" height="102.038" x="130.47" y="82.368" fill="#adb2b6" stroke="#000" stroke-width="1.644" ry="8.542"/><rect id="rect3361" width="5.272" height="19.441" x="259.633" y="91.77" fill="#adb2b6" stroke="#000" stroke-width="1.079" ry="3.341"/><rect id="rect3363" width="5.272" height="19.441" x="259.394" y="123.967" fill="#adb2b6" stroke="#000" stroke-width="1.079" ry="3.341"/><rect id="rect3365" width="5.272" height="19.441" x="260.352" y="156.775" fill="#adb2b6" stroke="#000" stroke-width="1.079" ry="3.341"/><path id="path3367" fill="#ffbd0f" stroke="#000" d="m 267.5,332.11218 c 0,4.28021 -3.58172,7.75 -8,7.75 -4.41828,0 -8,-3.46979 -8,-7.75 0,-4.2802 3.58172,-7.75 8,-7.75 4.41828,0 8,3.4698 8,7.75 z" transform="matrix(0.61881299,0,0,0.84887239,109.59612,-172.83)"/><path id="path3369" fill="#ffbd0f" stroke="#000" d="m 267.5,332.11218 c 0,4.28021 -3.58172,7.75 -8,7.75 -4.41828,0 -8,-3.46979 -8,-7.75 0,-4.2802 3.58172,-7.75 8,-7.75 4.41828,0 8,3.4698 8,7.75 z" transform="matrix(0.61881299,0,0,0.84887239,109.11681,-149.43958)"/><path id="path3371" fill="#ffbd0f" stroke="#000" d="m 267.5,332.11218 c 0,4.28021 -3.58172,7.75 -8,7.75 -4.41828,0 -8,-3.46979 -8,-7.75 0,-4.2802 3.58172,-7.75 8,-7.75 4.41828,0 8,3.4698 8,7.75 z" transform="matrix(0.61881299,0,0,0.84887239,109.11681,-126.35898)"/><rect id="rect3373" width="36.427" height="8.506" x="291.747" y="91.162" fill="#ffbd0f" stroke="#000" stroke-width="1.079" rx="0" ry="3.341"/><rect id="rect3375" width="36.427" height="8.506" x="291.747" y="164.673" fill="#ffbd0f" stroke="#000" stroke-width="1.079" rx="0" ry="3.341"/><rect id="rect3377" width="5.755" height="81.415" x="326.736" y="91.16" fill="#ffbd0f" stroke="#000" stroke-width="1.076" rx="0" ry="3.317"/><rect id="rect3379" width="27.32" height="64.4" x="298.936" y="100.276" fill="#ffbd0f" stroke="#000" stroke-width="1.079" rx="0" ry="3.341"/><rect id="rect2454" width="25.46" height="223.166" x="9.273" y="19.353" fill="#ffbd0f" stroke="#000" stroke-width="1.063" rx="0" ry="10.959"/><rect id="rect3226" width="34.529" height="223.006" x="35.398" y="19.435" fill="#ffbd0f" stroke="#000" stroke-width="1.237" rx="0" ry="10.951"/><rect id="rect3228" width="169.012" height="28.361" x="69.643" y="56.674" fill="#ffbd0f" stroke="#000" stroke-width=".976" rx="0" ry="1.393"/><rect id="rect3230" width="169.012" height="28.361" x="69.965" y="176.836" fill="#ffbd0f" stroke="#000" stroke-width=".976" rx="0" ry="1.393"/></g></g></g><metadata id="metadata63"/></svg>