<svg xmlns="http://www.w3.org/2000/svg" xmlns:svg="http://www.w3.org/2000/svg" xmlns:xlink="http://www.w3.org/1999/xlink" id="svg6151" width="53.116" height="18.718" version="1.1"><defs id="defs6153"><linearGradient id="linearGradient4734-3" x1="265.49" x2="259" y1="453.36" y2="464.99" gradientTransform="matrix(1.0451689,-0.34482317,0.62420775,0.5773694,-309.10879,179.69496)" gradientUnits="userSpaceOnUse" xlink:href="#linearGradient4455-5-9"/><linearGradient id="linearGradient4455-5-9" x1="265.49" x2="259" y1="453.36" y2="464.99" gradientTransform="translate(50.847,-30.05)" gradientUnits="userSpaceOnUse"><stop id="stop4354-4-7" offset="0" stop-color="#eeeeec"/><stop id="stop4356-6-2" offset="1" stop-color="#888a85"/></linearGradient><radialGradient id="radialGradient5130-9-5" cx="351.028" cy="29.894" r="5.93" fx="351.028" fy="29.894" gradientTransform="matrix(2.1731471,0.25650679,-0.06797254,0.49259255,-503.75426,257.34173)" gradientUnits="userSpaceOnUse" xlink:href="#linearGradient4455-5-6"/><radialGradient id="radialGradient5164-8-1" cx="351.028" cy="29.894" r="5.93" fx="351.028" fy="29.894" gradientTransform="matrix(2.1731471,0.25650679,-0.06797254,0.49259255,-503.75427,242.5348)" gradientUnits="userSpaceOnUse" xlink:href="#linearGradient4455-5-6"/><radialGradient id="radialGradient4409-6-45-9" cx="351.028" cy="29.894" r="5.93" fx="351.028" fy="29.894" gradientTransform="matrix(2.1731471,0.25650679,-0.06797254,0.49259255,-512.69267,257.34172)" gradientUnits="userSpaceOnUse" xlink:href="#linearGradient4455-5-6"/><radialGradient id="radialGradient4409-4-4-3" cx="351.028" cy="29.894" r="5.93" fx="351.028" fy="29.894" gradientTransform="matrix(2.1731471,0.25650679,-0.06797254,0.49259255,-512.69264,242.53479)" gradientUnits="userSpaceOnUse" xlink:href="#linearGradient4455-5-6"/><radialGradient id="radialGradient4409-8-3" cx="351.028" cy="29.894" r="5.93" fx="351.028" fy="29.894" gradientTransform="matrix(2.1731471,0.25650679,-0.06797254,0.49259255,-472.22595,242.5348)" gradientUnits="userSpaceOnUse" xlink:href="#linearGradient4455-5-6"/><radialGradient id="radialGradient4340-3-6" cx="351.028" cy="29.894" r="5.93" fx="351.028" fy="29.894" gradientTransform="matrix(2.1731471,0.25650679,-0.06797254,0.49259255,-472.22588,257.34171)" gradientUnits="userSpaceOnUse" xlink:href="#linearGradient4455-5-6"/><linearGradient id="linearGradient5766" x1="6.522" x2="5.303" y1="428.96" y2="430.68" gradientTransform="matrix(0.89350237,-0.42924416,0.47804507,0.80228979,64.813688,19.302449)" gradientUnits="userSpaceOnUse" spreadMethod="reflect" xlink:href="#linearGradient6633-1-0"/><linearGradient id="linearGradient6633-1-0"><stop id="stop6635-0-3" offset="0" stop-color="#d3d7cf"/><stop id="stop6637-3-2" offset="1" stop-color="#888a85"/></linearGradient><linearGradient id="linearGradient5948" x1="265.49" x2="259" y1="453.36" y2="464.99" gradientTransform="matrix(0.67682501,-0.29002553,0.40422119,0.48561662,-2.4561457,324.38585)" gradientUnits="userSpaceOnUse" xlink:href="#linearGradient4455-5-6"/><linearGradient id="linearGradient4455-5-6" x1="265.49" x2="259" y1="453.36" y2="464.99" gradientTransform="translate(50.847,-30.05)" gradientUnits="userSpaceOnUse"><stop id="stop4354-4-3" offset="0" stop-color="#eeeeec"/><stop id="stop4356-6-5" offset="1" stop-color="#888a85"/></linearGradient><linearGradient id="linearGradient6149" x1="265.49" x2="259" y1="453.36" y2="464.99" gradientTransform="matrix(0.67682501,-0.29002553,0.40422119,0.48561662,-100.66855,207.24792)" gradientUnits="userSpaceOnUse" xlink:href="#linearGradient4455-5-6"/></defs><metadata id="metadata6156"/><g id="layer1" transform="translate(-242.01324,-345.86034)"><path id="path3658-8-3" fill="url(#linearGradient6149)" stroke="#000" stroke-linejoin="bevel" stroke-width=".334" d="m 252.4383,349.79107 c -1.87349,0.816 -3.20663,2.74444 -3.2523,5.01721 -0.0652,3.03227 2.20294,5.52571 5.04881,5.55801 0.25823,7.4e-4 0.51382,-0.0225 0.76133,-0.0561 l 27.89367,-0.034 -0.0556,-10.93267 -28.02599,0.0514 -0.11222,0.009 c -0.0783,-0.006 -0.14459,-0.0302 -0.22572,-0.0285 -0.71516,-0.01 -1.41324,0.1444 -2.03188,0.41609 z"/><path id="path4461-7-9" fill="url(#linearGradient5766)" stroke="#000" stroke-linecap="round" stroke-linejoin="round" stroke-width=".48" d="m 272.92512,359.75222 c -0.19658,0.0945 -0.38235,0.24559 -0.56684,0.43742 -0.75237,0.74326 -1.00927,1.97086 -0.56469,2.71699 0.28204,0.47335 0.76748,0.63229 1.27639,0.52196 l 6.4386,0.17812 1.29811,-3.78138 -7.18669,-0.17991 -0.0411,-0.0112 c -0.20864,-0.003 -0.43451,0.0231 -0.65373,0.11798 z"/><path id="path4463-9-7" fill="#555753" stroke="#000" stroke-linecap="round" stroke-linejoin="round" stroke-width=".765" d="m 110.35917,374.48795 c 0,1.42891 -1.29236,2.58727 -2.88656,2.58727 -1.5942,0 -2.88655,-1.15836 -2.88655,-2.58727 0,-1.42892 1.29235,-2.58728 2.88655,-2.58728 1.5942,0 2.88656,1.15836 2.88656,2.58728 z" transform="matrix(0.28299027,-0.4811549,0.18763494,0.53706118,179.07176,212.2398)"/><rect id="rect3513-2-79" width="7.066" height="2.508" x="285.032" y="361.369" fill="url(#radialGradient4340-3-6)" fill-opacity="1" fill-rule="nonzero" stroke="#000" stroke-dasharray="none" stroke-linecap="butt" stroke-linejoin="miter" stroke-miterlimit="4" stroke-opacity="1" stroke-width=".404" rx=".571" ry=".571"/><rect id="rect3513-3-0-6" width="7.066" height="2.508" x="285.032" y="346.562" fill="url(#radialGradient4409-8-3)" fill-opacity="1" fill-rule="nonzero" stroke="#000" stroke-dasharray="none" stroke-linecap="butt" stroke-linejoin="miter" stroke-miterlimit="4" stroke-opacity="1" stroke-width=".404" rx=".571" ry=".571"/><rect id="rect3513-0-4-9" width="7.066" height="2.508" x="244.565" y="346.562" fill="url(#radialGradient4409-4-4-3)" fill-opacity="1" fill-rule="nonzero" stroke="#000" stroke-dasharray="none" stroke-linecap="butt" stroke-linejoin="miter" stroke-miterlimit="4" stroke-opacity="1" stroke-width=".404" rx=".571" ry=".571"/><rect id="rect3513-9-1-3" width="7.066" height="2.508" x="244.565" y="361.369" fill="url(#radialGradient4409-6-45-9)" fill-opacity="1" fill-rule="nonzero" stroke="#000" stroke-dasharray="none" stroke-linecap="butt" stroke-linejoin="miter" stroke-miterlimit="4" stroke-opacity="1" stroke-width=".404" rx=".571" ry=".571"/><rect id="rect3513-0-6-8-9" width="7.066" height="2.508" x="253.503" y="346.562" fill="url(#radialGradient5164-8-1)" fill-opacity="1" fill-rule="nonzero" stroke="#000" stroke-dasharray="none" stroke-linecap="butt" stroke-linejoin="miter" stroke-miterlimit="4" stroke-opacity="1" stroke-width=".404" rx=".571" ry=".571"/><rect id="rect3513-9-0-1-5" width="7.066" height="2.508" x="253.503" y="361.369" fill="url(#radialGradient5130-9-5)" fill-opacity="1" fill-rule="nonzero" stroke="#000" stroke-dasharray="none" stroke-linecap="butt" stroke-linejoin="miter" stroke-miterlimit="4" stroke-opacity="1" stroke-width=".404" rx=".571" ry=".571"/><path id="path3658-8-0" fill="url(#linearGradient4734-3)" stroke="#000" stroke-linejoin="bevel" stroke-width=".452" d="m 242.23948,355.22714 c 0.30692,4.48238 6.19729,6.87042 6.57949,6.8305 l 33.9071,-4.02141 -0.0213,-7.15428 -33.74873,-2.87679 c -0.94238,0.39978 -6.47115,2.67244 -6.7166,7.22198 z"/><path id="path4513-2-8" fill="#9fa09c" fill-opacity="1" fill-rule="evenodd" stroke="#000" stroke-linejoin="bevel" stroke-width=".446" d="m 283.4426,347.8814 0.10852,14.20487 9.70063,-0.0448 -0.10852,-14.20486 -9.70063,0.0448 z"/><path id="path4509-8-8" fill="#729fcf" fill-rule="evenodd" stroke="#000" stroke-linejoin="bevel" stroke-width=".254" d="m 294.88481,350.55245 -1.63165,-2.82418 0.0228,14.492 1.5896,-3.09675 0.13724,-7.83091 z"/><g id="g4531-1-6" transform="matrix(0.44615379,-0.18885465,0.23870292,0.35298362,151.63193,246.5931)"><path id="path4533-9-2" fill="#d3d7cf" d="m 110.35917,374.48795 c 0,1.42891 -1.29236,2.58727 -2.88656,2.58727 -1.5942,0 -2.88655,-1.15836 -2.88655,-2.58727 0,-1.42892 1.29235,-2.58728 2.88655,-2.58728 1.5942,0 2.88656,1.15836 2.88656,2.58728 z" transform="matrix(0.65357,-0.23586,0,0.65357,40.11,163.75)"/><path id="path4535-9-19" fill="#f57900" d="m 110.35917,374.48795 c 0,1.42891 -1.29236,2.58727 -2.88656,2.58727 -1.5942,0 -2.88655,-1.15836 -2.88655,-2.58727 0,-1.42892 1.29235,-2.58728 2.88655,-2.58728 1.5942,0 2.88656,1.15836 2.88656,2.58728 z" transform="matrix(0.43922,-0.15851,0,0.43922,63.146,235.71)"/><path id="path4537-5-1" fill="#fff" d="m 110.35917,374.48795 c 0,1.42891 -1.29236,2.58727 -2.88656,2.58727 -1.5942,0 -2.88655,-1.15836 -2.88655,-2.58727 0,-1.42892 1.29235,-2.58728 2.88655,-2.58728 1.5942,0 2.88656,1.15836 2.88656,2.58728 z" transform="matrix(0.14598,-0.052681,0,0.14598,94.172,333.89)"/></g><g id="g4539-8-1" transform="matrix(0.44615379,-0.18885465,0.23870292,0.35298362,151.74484,234.23309)"><path id="path4541-5-1" fill="#d3d7cf" d="m 110.35917,374.48795 c 0,1.42891 -1.29236,2.58727 -2.88656,2.58727 -1.5942,0 -2.88655,-1.15836 -2.88655,-2.58727 0,-1.42892 1.29235,-2.58728 2.88655,-2.58728 1.5942,0 2.88656,1.15836 2.88656,2.58728 z" transform="matrix(0.65357,-0.23586,0,0.65357,40.11,163.75)"/><path id="path4543-1-65" fill="#f57900" d="m 110.35917,374.48795 c 0,1.42891 -1.29236,2.58727 -2.88656,2.58727 -1.5942,0 -2.88655,-1.15836 -2.88655,-2.58727 0,-1.42892 1.29235,-2.58728 2.88655,-2.58728 1.5942,0 2.88656,1.15836 2.88656,2.58728 z" transform="matrix(0.43922,-0.15851,0,0.43922,63.146,235.71)"/><path id="path4545-8-8" fill="#fff" d="m 110.35917,374.48795 c 0,1.42891 -1.29236,2.58727 -2.88656,2.58727 -1.5942,0 -2.88655,-1.15836 -2.88655,-2.58727 0,-1.42892 1.29235,-2.58728 2.88655,-2.58728 1.5942,0 2.88656,1.15836 2.88656,2.58728 z" transform="matrix(0.14598,-0.052681,0,0.14598,94.172,333.89)"/></g><path id="path4547-6-8" fill="#fff" fill-rule="evenodd" d="m 293.64363,359.65228 0.35864,-0.6154 0.24679,-7.48014 -0.63935,1.23156 0.0339,6.86398 z"/><path id="path3658-8-0-1" fill="#e9ff02" fill-opacity="1" stroke="#000" stroke-linejoin="bevel" stroke-width=".262" d="m 242.33444,354.34898 c 1.79392,0.2215 5.71386,0.41441 6.07624,0.37538 l 34.23953,-1.94358 0.0549,-1.13529 -32.93431,-1.20157 c -0.94738,0.1337 -5.58862,1.43242 -6.59936,1.75665 -0.47829,0.68292 -0.75729,1.33263 -0.837,2.14841 z"/><path id="path3658-8-0-1-4" fill="#e9ff02" fill-opacity="1" stroke="#000" stroke-linejoin="bevel" stroke-width=".262" d="m 244.27336,359.41698 c 1.79392,0.2215 5.19987,0.70361 5.56225,0.66458 l 32.81132,-2.50822 -0.0115,-0.60386 -32.96752,0.0274 c -0.94738,0.1337 -5.11591,1.18248 -6.12665,1.50671 0.32599,0.5453 0.45432,0.57042 0.73213,0.91343 z"/></g></svg>